<?xml version="1.0" standalone="no"?>
<!DOCTYPE svg PUBLIC "-//W3C//DTD SVG 1.1//EN" "http://www.w3.org/Graphics/SVG/1.1/DTD/svg11.dtd" >
<svg xmlns="http://www.w3.org/2000/svg" xmlns:xlink="http://www.w3.org/1999/xlink" version="1.1">
<metadata>
Created by FontForge 20170731 at Tue May 24 13:06:42 2022
 By Aleksey,,,
Copyright (c) 2015 by Yanek Iontef. All rights reserved.
</metadata>
<defs>
<font id="MandatoryPH-Regular" horiz-adv-x="401" >
  <font-face 
    font-family="Mandatory PH"
    font-weight="400"
    font-stretch="normal"
    units-per-em="2048"
    panose-1="0 0 5 0 0 0 0 0 0 0"
    ascent="1638"
    descent="-410"
    x-height="1362"
    cap-height="1364"
    bbox="-231 -561 1106 1665"
    underline-thickness="102"
    underline-position="-307"
    unicode-range="U+000D-FB4B"
  />
<missing-glyph horiz-adv-x="1304" 
d="M246 0v1513h811v-1513h-811zM381 137h541v1241h-541v-1241z" />
    <glyph glyph-name="fi" unicode="fi" horiz-adv-x="518" 
d="M63 0q-2 2 -2 6v1352l2 6h392q4 0 4 -6v-1352q0 -6 -4 -6h-113q-4 2 -4 6v1237h-158v-502h78q4 0 4 -6v-108q0 -6 -4 -6h-78v-615q0 -6 -4 -6h-113z" />
    <glyph glyph-name="fl" unicode="fl" horiz-adv-x="626" 
d="M63 0q-2 2 -2 6v1352l2 6h383q5 0 5 -6v-1237h137q2 0 4 -2.5t2 -3.5v-109q0 -6 -6 -6h-252q-4 0 -4 6v1237h-152v-502h78q4 0 4 -6v-108q0 -6 -4 -6h-78v-615q0 -6 -4 -6h-113z" />
    <glyph glyph-name=".notdef" horiz-adv-x="1304" 
d="M246 0v1513h811v-1513h-811zM381 137h541v1241h-541v-1241z" />
    <glyph glyph-name=".null" horiz-adv-x="0" 
 />
    <glyph glyph-name="nonmarkingreturn" horiz-adv-x="682" 
 />
    <glyph glyph-name="CR" unicode="&#xd;" horiz-adv-x="260" 
 />
    <glyph glyph-name="space" unicode=" " horiz-adv-x="258" 
 />
    <glyph glyph-name="exclam" unicode="!" horiz-adv-x="239" 
d="M80 238q-6 0 -6 8l-13 338v774l2 6h113q4 0 4 -6v-774l-14 -338q0 -8 -6 -8h-80zM63 0q-2 2 -2 6v109l2 6h113q4 0 4 -6v-109q0 -6 -4 -6h-113z" />
    <glyph glyph-name="quotedbl" unicode="&#x22;" horiz-adv-x="251" 
d="M53 1118q-4 0 -4 4l-31 236q0 6 7 6h94q4 0 4 -6l-29 -236q0 -4 -6 -4h-35zM182 1118q-2 2 -2 4l-33 236q0 6 7 6h96q4 0 4 -6l-31 -236q0 -4 -4 -4h-37z" />
    <glyph glyph-name="numbersign" unicode="#" horiz-adv-x="466" 
d="M25 0q-4 2 0 6l59 510h-76q-6 0 -6 6l14 94q0 5 9 5h71l15 120h-70q-6 0 -6 4l14 97q0 6 4 6h70l59 510q0 6 8 6h95q4 0 4 -6l-62 -510h60l61 510q0 6 6 6h95q6 0 6 -6l-64 -510h70q2 -2 2 -6l-14 -97q0 -4 -5 -4h-65l-12 -120h59q4 0 4 -5l-10 -94q-3 -6 -8 -6h-58
l-63 -510q0 -6 -4 -6h-97q-6 0 -6 6l66 510h-62l-63 -510q0 -6 -4 -6h-96zM201 621h61l10 120h-55z" />
    <glyph glyph-name="dollar" unicode="$" horiz-adv-x="393" 
d="M156 0q-6 0 -6 6v115h-37q-26 0 -44 17.5t-18 43.5v279q0 4 4 4h111q4 0 4 -4v-209q0 -10 12 -10h31q10 0 10 10v213l-172 412v301q0 27 18 46t44 19h37v115q0 6 6 6h80q4 0 4 -6v-115h39q26 0 44.5 -19.5t18.5 -45.5v-287q0 -6 -2 -6h-113q-4 0 -4 6v221q0 10 -10 10
h-31q-12 0 -12 -10v-235l172 -412v-283q0 -26 -18.5 -43.5t-44.5 -17.5h-39v-115q0 -6 -4 -6h-80z" />
    <glyph glyph-name="percent" unicode="%" horiz-adv-x="600" 
d="M131 709q-42 0 -70 29.5t-28 72.5v463q0 42 28 70t70 28h8q40 0 68.5 -28.5t28.5 -69.5v-463q0 -43 -28.5 -72.5t-68.5 -29.5h-8zM178 0q-5 0 -2 6l160 1352q0 6 6 6h80q7 0 4 -6l-162 -1352q0 -6 -6 -6h-80zM133 795h2q6 0 11.5 5.5t5.5 12.5v457q0 18 -17 18h-2
q-18 0 -18 -18v-457q0 -7 5.5 -12.5t12.5 -5.5zM463 -8q-40 0 -68 29.5t-28 72.5v463q0 41 28 69.5t68 28.5h8q41 0 69.5 -28.5t28.5 -69.5v-463q0 -43 -28.5 -72.5t-69.5 -29.5h-8zM465 78h2q18 0 18 18v457q0 18 -18 18h-2q-16 0 -16 -18v-457q0 -7 5 -12.5t11 -5.5z" />
    <glyph glyph-name="ampersand" unicode="&#x26;" horiz-adv-x="464" 
d="M94 0q-27 0 -46 17.5t-19 43.5v560l80 192l-80 309v176q0 27 18.5 46.5t44.5 19.5h166q26 0 45 -20t19 -46v-170q0 -6 -5 -6h-110q-1 0 -3.5 2t-2.5 4v105q0 10 -11 10h-30q-13 0 -13 -10v-111l146 -547l43 160q0 6 4 6h111q4 0 4 -6l-103 -395l88 -334q0 -6 -6 -6h-106
q-9 0 -9 6l-26 107l-14 -52q-17 -61 -64 -61h-121zM160 121h6q5 0 12 10l53 211l-75 295l-9 -16v-490q0 -10 13 -10z" />
    <glyph glyph-name="quotesingle" unicode="'" horiz-adv-x="163" 
d="M74 1118q-6 0 -6 4l-29 236q0 6 4 6h96q4 0 4 -6l-30 -236q0 -4 -4 -4h-35z" />
    <glyph glyph-name="parenleft" unicode="(" horiz-adv-x="397" 
d="M246 -72q-59 0 -100.5 41t-41.5 99v1216q0 56 42 96.5t100 40.5h123q4 0 4 -6v-106q0 -6 -4 -6h-119q-11 0 -19 -7.5t-8 -17.5v-1206q0 -9 8.5 -17t18.5 -8h119q4 0 4 -4v-111q0 -4 -4 -4h-123z" />
    <glyph glyph-name="parenright" unicode=")" horiz-adv-x="397" 
d="M29 -72q-4 0 -4 4v111q0 4 4 4h118q10 0 18.5 8t8.5 17v1206q0 10 -8 17.5t-19 7.5h-118q-4 0 -4 6v106q0 6 4 6h123q58 0 99.5 -40.5t41.5 -96.5v-1216q0 -58 -41 -99t-100 -41h-123z" />
    <glyph glyph-name="asterisk" unicode="*" horiz-adv-x="487" 
d="M211 901q-11 0 -15.5 11.5t-2.5 19.5l20 149l-121 -92q-23 -17 -33 4l-32 54q-8 16 16 28l139 58l-139 59q-8 4 -13.5 13t-0.5 18l32 53q6 9 16.5 8.5t16.5 -6.5l121 -92l-20 149q-2 9 3 19t17 10h59q12 0 17.5 -10.5t3.5 -18.5l-21 -149l119 94q5 6 17.5 5.5t17.5 -11.5
l33 -53q4 -8 -3.5 -17.5t-15.5 -13.5l-139 -57l141 -60q9 -3 13.5 -12.5t-0.5 -20.5l-31 -53q-6 -9 -17.5 -7.5t-17.5 7.5l-119 92l21 -149q2 -9 -4.5 -19t-18.5 -10h-59z" />
    <glyph glyph-name="plus" unicode="+" horiz-adv-x="520" 
d="M205 473q-4 0 -4 6v142h-144q-4 0 -4 6v108q0 6 4 6h144v144q0 6 4 6h110q4 0 4 -6v-144h144q4 0 4 -6v-108q0 -6 -4 -6h-144v-142q0 -6 -4 -6h-110z" />
    <glyph glyph-name="comma" unicode="," horiz-adv-x="200" 
d="M82 -125q-13 0 -10 12l14 113h-33q-12 0 -12 12v125q0 13 12 13h94q13 0 13 -13v-119q0 -8 -4 -24l-39 -107q-3 -12 -17 -12h-18z" />
    <glyph glyph-name="hyphen" unicode="-" horiz-adv-x="319" 
d="M18 621q-4 0 -4 6v108q0 6 4 6h285q2 -2 2 -6v-108l-2 -6h-285z" />
    <glyph glyph-name="period" unicode="." horiz-adv-x="200" 
d="M53 0q-12 0 -12 12v125q0 13 12 13h94q13 0 13 -13v-125q0 -12 -13 -12h-94z" />
    <glyph glyph-name="slash" unicode="/" horiz-adv-x="210" 
d="M-31 -16q-4 0 -4 6l162 1382q4 2 6 2h94l4 -2l-161 -1382q0 -1 -2.5 -3.5t-4.5 -2.5h-94z" />
    <glyph glyph-name="zero" unicode="0" horiz-adv-x="413" 
d="M201 -12q-58 0 -99 41t-41 100v1106q0 58 40.5 98.5t99.5 40.5h12q59 0 99 -40t40 -99v-1106q0 -59 -40.5 -100t-98.5 -41h-12zM205 106h4q22 0 22 27v1098q0 10 -6 17t-16 7h-4q-10 0 -17.5 -7.5t-7.5 -16.5v-1098q0 -12 7 -19.5t18 -7.5z" />
    <glyph glyph-name="one" unicode="1" horiz-adv-x="311" 
d="M125 0q-12 0 -12 12v1231h-86q-13 0 -13 12v48q0 13 13 16l145 45h47q12 0 12 -12v-1340q0 -12 -12 -12h-94z" />
    <glyph glyph-name="two" unicode="2" horiz-adv-x="368" 
d="M37 0q-12 0 -12 12v443l172 422v354q0 9 -7.5 16.5t-17.5 7.5h-2q-12 0 -19.5 -7.5t-7.5 -16.5v-213q0 -12 -12 -12h-94q-12 0 -12 12v217q0 59 40.5 99t98.5 40h14q58 0 98.5 -40t40.5 -99v-358l-174 -422v-334h187q12 0 12 -12v-97q0 -12 -12 -12h-293z" />
    <glyph glyph-name="three" unicode="3" horiz-adv-x="391" 
d="M184 -12q-58 0 -98.5 41t-40.5 100v205q0 12 12 12h95q12 0 12 -12v-201q0 -12 7.5 -19.5t16.5 -7.5h5q11 0 17.5 7.5t6.5 19.5v455q0 11 -7 18.5t-17 7.5h-78q-13 0 -13 13v96q0 12 13 12h78q10 0 17 7t7 18v471q0 9 -7 16.5t-17 7.5h-5q-9 0 -16.5 -7.5t-7.5 -16.5
v-213q0 -12 -12 -12h-95q-12 0 -12 12v217q0 59 40.5 99t98.5 40h13q59 0 100 -40.5t41 -98.5v-414q0 -117 -78 -133v-4q78 -24 78 -135v-420q0 -59 -41 -100t-100 -41h-13z" />
    <glyph glyph-name="four" unicode="4" horiz-adv-x="423" 
d="M231 0q-12 0 -12 12v408h-186q-13 0 -13 12v96q0 13 3 25l196 799q3 12 14 12h95q12 0 12 -12v-811h51q12 0 12 -13v-96q0 -12 -12 -12h-51v-408q0 -12 -12 -12h-97zM125 541h94v403h-4z" />
    <glyph glyph-name="five" unicode="5" horiz-adv-x="368" 
d="M188 -12q-58 0 -98.5 41t-40.5 100v205q0 12 12 12h95q12 0 12 -12v-201q0 -11 8 -19t17 -8h4q11 0 17.5 7.5t6.5 19.5v455q0 11 -7 18.5t-17 7.5h-136q-12 0 -12 13v725q0 12 12 12h269q12 0 12 -12v-97q0 -12 -12 -12h-162v-508h33q59 0 100 -41.5t41 -99.5v-465
q0 -59 -41 -100t-100 -41h-13z" />
    <glyph glyph-name="six" unicode="6" horiz-adv-x="399" 
d="M197 -12q-58 0 -99 41t-41 100v1106q0 58 40.5 98.5t99.5 40.5h12q59 0 99 -40t40 -99v-217q0 -12 -12 -12h-96q-13 0 -13 12v213q0 10 -6 17t-16 7h-4q-10 0 -17.5 -7.5t-7.5 -16.5v-496h33q58 0 98.5 -41t40.5 -100v-465q0 -59 -40.5 -100t-98.5 -41h-12zM201 106h4
q22 0 22 27v455q0 26 -22 26h-4q-11 0 -18 -7t-7 -19v-455q0 -12 7 -19.5t18 -7.5z" />
    <glyph glyph-name="seven" unicode="7" horiz-adv-x="372" 
d="M43 0q-13 0 -10 12l198 1231h-188q-12 0 -12 12v97q0 12 12 12h295q12 0 12 -12v-103l-196 -1237q-3 -12 -15 -12h-96z" />
    <glyph glyph-name="eight" unicode="8" horiz-adv-x="405" 
d="M197 -12q-58 0 -99 41t-41 100v420q0 112 76 135v4q-76 15 -76 133v414q0 58 40.5 98.5t99.5 40.5h12q59 0 99 -40t40 -99v-414q0 -118 -78 -133v-4q78 -23 78 -135v-420q0 -59 -40.5 -100t-98.5 -41h-12zM201 735h4q22 0 22 25v471q0 10 -6 17t-16 7h-4
q-10 0 -17.5 -7.5t-7.5 -16.5v-471q0 -10 7 -17.5t18 -7.5zM201 106h4q22 0 22 27v455q0 26 -22 26h-4q-11 0 -18 -7t-7 -19v-455q0 -12 7 -19.5t18 -7.5z" />
    <glyph glyph-name="nine" unicode="9" horiz-adv-x="405" 
d="M197 -12q-58 0 -99 41t-41 100v205q0 12 13 12h94q12 0 12 -12v-201q0 -12 7 -19.5t18 -7.5h4q22 0 22 27v481h-30q-59 0 -99.5 41t-40.5 99v481q0 58 40.5 98.5t99.5 40.5h12q59 0 99 -40t40 -99v-1106q0 -59 -40.5 -100t-98.5 -41h-12zM201 735h4q22 0 22 25v471
q0 10 -6 17t-16 7h-4q-10 0 -17.5 -7.5t-7.5 -16.5v-471q0 -10 7 -17.5t18 -7.5z" />
    <glyph glyph-name="colon" unicode=":" horiz-adv-x="200" 
d="M53 471q-12 0 -12 12v125q0 13 12 13h94q13 0 13 -13v-125q0 -12 -13 -12h-94zM53 0q-12 0 -12 12v125q0 13 12 13h94q13 0 13 -13v-125q0 -12 -13 -12h-94z" />
    <glyph glyph-name="semicolon" unicode=";" horiz-adv-x="200" 
d="M53 471q-12 0 -12 12v125q0 13 12 13h94q13 0 13 -13v-125q0 -12 -13 -12h-94zM82 -125q-13 0 -10 12l14 113h-33q-12 0 -12 12v125q0 13 12 13h94q13 0 13 -13v-119q0 -8 -4 -24l-39 -107q-3 -12 -17 -12h-18z" />
    <glyph glyph-name="less" unicode="&#x3c;" horiz-adv-x="503" 
d="M293 418l-187 229q-2 2 -2 10v68q0 10 2 10l185 234q1 1 4.5 1t3.5 -1l74 -58q3 -3 0 -8l-168 -211l168 -213q1 0 1 -3t-1 -3l-72 -55q-4 -8 -8 0z" />
    <glyph glyph-name="equal" unicode="=" horiz-adv-x="442" 
d="M18 741q-4 0 -4 4v109q0 4 4 4h406q4 0 4 -4v-109q0 -4 -4 -4h-406zM18 500q-4 0 -4 6v110q0 5 4 5h406q4 0 4 -5v-110q0 -6 -4 -6h-406z" />
    <glyph glyph-name="greater" unicode="&#x3e;" horiz-adv-x="503" 
d="M203 418l-72 55q-1 0 -1 3t1 3l168 213l-168 211q-3 5 0 8l76 58q0 1 2.5 1t3.5 -1l182 -234q4 0 4 -10v-68q0 -8 -4 -10l-184 -229q-3 -5 -8 0z" />
    <glyph glyph-name="question" unicode="?" horiz-adv-x="333" 
d="M43 238q-6 0 -6 8l-12 338l170 413v236q0 10 -11 10h-32q-9 0 -9 -10v-221q0 -6 -4 -6h-112q-2 0 -2 6v286q0 27 17.5 46.5t43.5 19.5h166q27 0 45 -19.5t18 -46.5v-301l-172 -413l-14 -338q0 -8 -6 -8h-80zM27 0q-2 0 -2 6v109q0 6 2 6h112q4 0 4 -6v-109q0 -6 -4 -6
h-112z" />
    <glyph glyph-name="at" unicode="@" horiz-adv-x="700" 
d="M176 0q-59 0 -100 40.5t-41 98.5v1088q0 57 41.5 98t99.5 41h359q58 0 98.5 -41t40.5 -98v-860q0 -2 -2.5 -4.5t-3.5 -2.5h-396q-28 0 -46.5 18t-18.5 44v659q0 47 63 47h222q3 0 6.5 -3.5t3.5 -6.5v-637h51v744q0 10 -7 17t-18 7h-348q-11 0 -18.5 -7t-7.5 -17v-1080
q0 -10 7.5 -17t18.5 -7h316q6 0 6 -6v-109q0 -6 -6 -6h-320zM338 481h43v527h-43q-3 0 -6.5 -3.5t-3.5 -7.5v-505q0 -3 3.5 -7t6.5 -4z" />
    <glyph glyph-name="A" unicode="A" 
d="M27 0q-4 0 -4 6l116 1352q0 6 4 6h111q4 0 4 -6l123 -1352q0 -6 -4 -6h-113q-2 0 -2 6l-16 221h-90l-13 -221q0 -6 -4 -6h-112zM162 348h76l-37 570h-2z" />
    <glyph glyph-name="B" unicode="B" 
d="M63 0q-2 2 -2 6v1352l2 6h228q26 0 43.5 -19.5t17.5 -46.5v-553q0 -26 -18.5 -43.5t-44.5 -17.5v-4q26 0 44.5 -19.5t18.5 -46.5v-553q0 -26 -18.5 -43.5t-44.5 -17.5h-226zM180 741h43q8 0 8 11v481q0 10 -8 10h-43v-502zM180 121h43q8 0 8 10v481q0 9 -8 9h-43v-500z
" />
    <glyph glyph-name="C" unicode="C" horiz-adv-x="389" 
d="M115 0q-28 0 -46 17.5t-18 43.5v1237q0 27 18 46.5t44 19.5h166q26 0 44.5 -19.5t18.5 -46.5v-286q0 -6 -2 -6h-113q-4 0 -4 6v221q0 10 -10 10h-31q-12 0 -12 -10v-1102q0 -10 12 -10h31q10 0 10 10v209q0 6 4 6h113q2 0 2 -6v-279q0 -26 -17.5 -43.5t-43.5 -17.5h-166z
" />
    <glyph glyph-name="D" unicode="D" horiz-adv-x="403" 
d="M63 0q-2 2 -2 6v1352l2 6h228q26 0 43.5 -19.5t17.5 -46.5v-1237q0 -26 -18.5 -43.5t-44.5 -17.5h-226zM180 121h43q8 0 8 10v1102q0 10 -8 10h-43v-1122z" />
    <glyph glyph-name="E" unicode="E" horiz-adv-x="389" 
d="M63 0q-2 2 -2 6v1352l2 6h285q4 0 4 -6v-109q0 -6 -4 -6h-168v-502h168q4 0 4 -6v-108q0 -6 -4 -6h-168v-500h168q4 0 4 -6v-109q0 -6 -4 -6h-285z" />
    <glyph glyph-name="F" unicode="F" horiz-adv-x="382" 
d="M63 0q-2 2 -2 6v1352l2 6h285q4 0 4 -6v-109q0 -6 -4 -6h-168v-502h168q4 0 4 -6v-108q0 -6 -4 -6h-168v-615q0 -6 -4 -6h-113z" />
    <glyph glyph-name="G" unicode="G" horiz-adv-x="389" 
d="M115 0q-28 0 -46 17.5t-18 43.5v1237q0 27 18 46.5t44 19.5h166q26 0 44.5 -19.5t18.5 -46.5v-286q0 -6 -2 -6h-113q-4 0 -4 6v221q0 10 -10 10h-31q-12 0 -12 -10v-1102q0 -10 12 -10h31q10 0 10 10v490h-28q-5 0 -5 6v108q0 6 5 6h145q2 0 2 -6v-674q0 -26 -17.5 -43.5
t-43.5 -17.5h-166z" />
    <glyph glyph-name="H" unicode="H" horiz-adv-x="413" 
d="M63 0q-2 2 -2 6v1352l2 6h113q4 0 4 -6v-617h51v617q0 6 7 6h110q4 0 4 -6v-1352q0 -6 -4 -6h-110q-7 0 -7 6v615h-51v-615q0 -6 -4 -6h-113z" />
    <glyph glyph-name="I" unicode="I" horiz-adv-x="239" 
d="M63 0q-2 2 -2 6v1352l2 6h113q4 0 4 -6v-1352q0 -6 -4 -6h-113z" />
    <glyph glyph-name="J" unicode="J" horiz-adv-x="380" 
d="M98 0q-27 0 -46 17.5t-19 43.5v281q0 6 6 6h111q4 0 4 -6v-211q0 -10 10 -10h33q10 0 10 10v1227q0 6 6 6h109q6 0 6 -6v-1297q0 -26 -19 -43.5t-47 -17.5h-164z" />
    <glyph glyph-name="K" unicode="K" horiz-adv-x="403" 
d="M63 0q-2 2 -2 6v1352l2 6h113q4 0 4 -6v-623h6l76 621q0 6 4 6h111q6 0 6 -6l-104 -676l102 -674q0 -6 -4 -6h-111q-4 0 -4 6l-76 608h-6v-608q0 -6 -4 -6h-113z" />
    <glyph glyph-name="L" unicode="L" horiz-adv-x="382" 
d="M63 0q-2 2 -2 6v1352l2 6h113q4 0 4 -6v-1237h168q4 0 4 -6v-109q0 -6 -4 -6h-285z" />
    <glyph glyph-name="M" unicode="M" horiz-adv-x="555" 
d="M63 0q-2 2 -2 6v1352l2 6h93q4 0 4 -6l112 -703h11l114 703q0 6 6 6h89q4 0 4 -6v-1352q0 -6 -4 -6h-109q-4 0 -4 6v608h-6l-70 -368q0 -8 -4 -8h-41q-6 0 -6 8l-68 368h-4v-608q0 -6 -4 -6h-113z" />
    <glyph glyph-name="N" unicode="N" horiz-adv-x="436" 
d="M61 0q-4 0 -4 6v1352q0 6 4 6h56q10 0 10 -8l127 -660h6v662q0 6 6 6h107q8 0 8 -6v-1350q0 -8 -6 -8h-58q-7 0 -10 8l-125 645h-6v-647q0 -6 -4 -6h-111z" />
    <glyph glyph-name="O" unicode="O" horiz-adv-x="395" 
d="M113 0q-26 0 -44 17.5t-18 43.5v1237q0 27 18 46.5t44 19.5h166q26 0 44.5 -19.5t18.5 -46.5v-1237q0 -26 -18.5 -43.5t-44.5 -17.5h-166zM182 121h31q10 0 10 10v1102q0 10 -10 10h-31q-12 0 -12 -10v-1102q0 -10 12 -10z" />
    <glyph glyph-name="P" unicode="P" horiz-adv-x="382" 
d="M63 0q-2 2 -2 6v1352l2 6h226q26 0 44.5 -19.5t18.5 -46.5v-618q0 -27 -18.5 -46.5t-44.5 -19.5h-109v-608q0 -6 -4 -6h-113zM180 735h43q8 0 8 8v490q0 10 -8 10h-43v-508z" />
    <glyph glyph-name="Q" unicode="Q" horiz-adv-x="393" 
d="M291 -104l-68 18h-45q-3 0 -5.5 3t-2.5 5v78h-57q-26 0 -44 17.5t-18 43.5v1237q0 27 18 46.5t44 19.5h166q26 0 44.5 -19.5t18.5 -46.5v-1237q0 -26 -18.5 -43.5t-44.5 -17.5h-56v-6l68 -12h45q6 0 6 -7v-73q0 -6 -6 -6h-45zM182 121h31q10 0 10 10v1102q0 10 -10 10
h-31q-12 0 -12 -10v-1102q0 -10 12 -10z" />
    <glyph glyph-name="R" unicode="R" horiz-adv-x="411" 
d="M63 0q-2 2 -2 6v1352l2 6h226q26 0 44.5 -19.5t18.5 -46.5v-739q0 -23 -12.5 -40t-34.5 -21l78 -492q0 -6 -4 -6h-113q-4 0 -4 6l-78 492h-4v-492q0 -6 -4 -6h-113zM180 614h43q8 0 8 13v606q0 10 -8 10h-43v-629z" />
    <glyph glyph-name="S" unicode="S" horiz-adv-x="362" 
d="M98 0q-26 0 -44.5 17.5t-18.5 43.5v279q0 6 4 6h111q4 0 4 -6v-209q0 -10 12 -10h31q10 0 10 10v334l-172 412v421q0 27 18.5 46.5t44.5 19.5h164q27 0 46.5 -19.5t19.5 -46.5v-286q0 -6 -4 -6h-111q-6 0 -6 6v221q0 10 -10 10h-31q-12 0 -12 -10v-356l174 -412v-404
q0 -26 -19 -43.5t-47 -17.5h-164z" />
    <glyph glyph-name="T" unicode="T" horiz-adv-x="344" 
d="M117 0q-4 0 -4 6v1237h-84q-4 0 -4 6v109q0 6 4 6h284q4 0 4 -6v-109q0 -6 -4 -6h-84v-1237q0 -6 -4 -6h-108z" />
    <glyph glyph-name="U" unicode="U" horiz-adv-x="397" 
d="M115 0q-26 0 -44 17.5t-18 43.5v1297q0 6 4 6h111q4 0 4 -6v-1227q0 -10 10 -10h33q8 0 8 10v1227q0 6 6 6h113q2 -2 2 -6v-1297q0 -26 -18.5 -43.5t-44.5 -17.5h-166z" />
    <glyph glyph-name="V" unicode="V" horiz-adv-x="403" 
d="M152 0q-7 0 -7 6l-120 1352q0 6 4 6h112q2 0 2 -6l62 -912h2l55 912q0 6 4 6h113q2 0 2 -6l-115 -1352q0 -6 -4 -6h-110z" />
    <glyph glyph-name="W" unicode="W" horiz-adv-x="667" 
d="M152 0q-7 0 -7 6l-120 1350q0 6 4 6h112q2 0 2 -6l62 -912h2l67 912q0 6 7 6h108q6 0 6 -6l70 -912l63 912q0 6 7 6h106q6 0 6 -6l-125 -1350q0 -6 -4 -6h-110q-5 0 -5 6l-65 703h-2l-70 -703q0 -6 -4 -6h-110z" />
    <glyph glyph-name="X" unicode="X" horiz-adv-x="387" 
d="M16 0q-6 0 -6 6l119 674l-119 678q0 6 6 6h111q4 0 4 -6l55 -475h4l56 475q0 6 6 6h106q9 0 9 -6l-117 -678l115 -674q0 -6 -7 -6h-106q-8 0 -8 6l-54 467h-4l-55 -467q0 -6 -4 -6h-111z" />
    <glyph glyph-name="Y" unicode="Y" horiz-adv-x="376" 
d="M131 0q-4 0 -4 6v670l-119 682q0 6 6 6h111q4 0 4 -6l55 -475h4l56 475q0 6 6 6h106q9 0 9 -6l-117 -682v-670q0 -6 -6 -6h-111z" />
    <glyph glyph-name="Z" unicode="Z" horiz-adv-x="329" 
d="M23 0q-7 0 -7 6v115l177 1122h-168q-9 0 -9 6v109q0 6 9 6h278q6 0 6 -6v-109l-172 -1128h166q6 0 6 -6v-109q0 -6 -6 -6h-280z" />
    <glyph glyph-name="bracketleft" unicode="[" horiz-adv-x="292" 
d="M102 -121q-4 0 -4 6v1592q0 4 4 4h234q4 0 4 -4v-107q0 -6 -4 -6h-119v-1364h119q4 0 4 -6v-109q0 -6 -4 -6h-234z" />
    <glyph glyph-name="backslash" unicode="\" horiz-adv-x="331" 
d="M254 -16q-2 0 -8 6l-281 1382q2 2 4 2h94l7 -2l280 -1382q1 -2 0.5 -4t-2.5 -2h-94z" />
    <glyph glyph-name="bracketright" unicode="]" horiz-adv-x="294" 
d="M-43 -121q-4 0 -4 6v109q0 6 4 6h119v1364h-119q-4 0 -4 6v107q0 4 4 4h233q7 0 7 -4v-1592q0 -1 -2.5 -3.5t-4.5 -2.5h-233z" />
    <glyph glyph-name="asciicircum" unicode="^" horiz-adv-x="483" 
d="M111 1251l-95 52q-5 0 -2 6l185 170q2 2 8 2h69q7 0 9 -2l184 -170q3 -6 -2 -6l-94 -52h-8l-123 123l-123 -123h-8z" />
    <glyph glyph-name="underscore" unicode="_" horiz-adv-x="712" 
d="M8 -561q-4 0 -4 4v111q0 6 4 6h697q4 0 4 -6v-111q0 -4 -4 -4h-697z" />
    <glyph glyph-name="grave" unicode="`" horiz-adv-x="311" 
d="M258 1458l-219 51q-11 3 -8 11l32 84q3 9 13 4l203 -109q5 -3 2 -6l-13 -31q-3 -6 -10 -4z" />
    <glyph glyph-name="a" unicode="a" 
d="M27 0q-4 0 -4 6l116 1352q0 6 4 6h111q4 0 4 -6l123 -1352q0 -6 -4 -6h-113q-2 0 -2 6l-16 221h-90l-13 -221q0 -6 -4 -6h-112zM162 348h76l-37 570h-2z" />
    <glyph glyph-name="b" unicode="b" 
d="M63 0q-2 2 -2 6v1352l2 6h228q26 0 43.5 -19.5t17.5 -46.5v-553q0 -26 -18.5 -43.5t-44.5 -17.5v-4q26 0 44.5 -19.5t18.5 -46.5v-553q0 -26 -18.5 -43.5t-44.5 -17.5h-226zM180 741h43q8 0 8 11v481q0 10 -8 10h-43v-502zM180 121h43q8 0 8 10v481q0 9 -8 9h-43v-500z
" />
    <glyph glyph-name="c" unicode="c" horiz-adv-x="389" 
d="M115 0q-28 0 -46 17.5t-18 43.5v1237q0 27 18 46.5t44 19.5h166q26 0 44.5 -19.5t18.5 -46.5v-286q0 -6 -2 -6h-113q-4 0 -4 6v221q0 10 -10 10h-31q-12 0 -12 -10v-1102q0 -10 12 -10h31q10 0 10 10v209q0 6 4 6h113q2 0 2 -6v-279q0 -26 -17.5 -43.5t-43.5 -17.5h-166z
" />
    <glyph glyph-name="d" unicode="d" horiz-adv-x="403" 
d="M63 0q-2 2 -2 6v1352l2 6h228q26 0 43.5 -19.5t17.5 -46.5v-1237q0 -26 -18.5 -43.5t-44.5 -17.5h-226zM180 121h43q8 0 8 10v1102q0 10 -8 10h-43v-1122z" />
    <glyph glyph-name="e" unicode="e" horiz-adv-x="389" 
d="M63 0q-2 2 -2 6v1352l2 6h285q4 0 4 -6v-109q0 -6 -4 -6h-168v-502h168q4 0 4 -6v-108q0 -6 -4 -6h-168v-500h168q4 0 4 -6v-109q0 -6 -4 -6h-285z" />
    <glyph glyph-name="f" unicode="f" horiz-adv-x="382" 
d="M63 0q-2 2 -2 6v1352l2 6h285q4 0 4 -6v-109q0 -6 -4 -6h-168v-502h168q4 0 4 -6v-108q0 -6 -4 -6h-168v-615q0 -6 -4 -6h-113z" />
    <glyph glyph-name="g" unicode="g" horiz-adv-x="389" 
d="M115 0q-28 0 -46 17.5t-18 43.5v1237q0 27 18 46.5t44 19.5h166q26 0 44.5 -19.5t18.5 -46.5v-286q0 -6 -2 -6h-113q-4 0 -4 6v221q0 10 -10 10h-31q-12 0 -12 -10v-1102q0 -10 12 -10h31q10 0 10 10v490h-28q-5 0 -5 6v108q0 6 5 6h145q2 0 2 -6v-674q0 -26 -17.5 -43.5
t-43.5 -17.5h-166z" />
    <glyph glyph-name="h" unicode="h" horiz-adv-x="413" 
d="M63 0q-2 2 -2 6v1352l2 6h113q4 0 4 -6v-617h51v617q0 6 7 6h110q4 0 4 -6v-1352q0 -6 -4 -6h-110q-7 0 -7 6v615h-51v-615q0 -6 -4 -6h-113z" />
    <glyph glyph-name="i" unicode="i" horiz-adv-x="239" 
d="M63 0q-2 2 -2 6v1352l2 6h113q4 0 4 -6v-1352q0 -6 -4 -6h-113z" />
    <glyph glyph-name="j" unicode="j" horiz-adv-x="380" 
d="M98 0q-27 0 -46 17.5t-19 43.5v281q0 6 6 6h111q4 0 4 -6v-211q0 -10 10 -10h33q10 0 10 10v1227q0 6 6 6h109q6 0 6 -6v-1297q0 -26 -19 -43.5t-47 -17.5h-164z" />
    <glyph glyph-name="k" unicode="k" horiz-adv-x="403" 
d="M63 0q-2 2 -2 6v1352l2 6h113q4 0 4 -6v-623h6l76 621q0 6 4 6h111q6 0 6 -6l-104 -676l102 -674q0 -6 -4 -6h-111q-4 0 -4 6l-76 608h-6v-608q0 -6 -4 -6h-113z" />
    <glyph glyph-name="l" unicode="l" horiz-adv-x="382" 
d="M63 0q-2 2 -2 6v1352l2 6h113q4 0 4 -6v-1237h168q4 0 4 -6v-109q0 -6 -4 -6h-285z" />
    <glyph glyph-name="m" unicode="m" horiz-adv-x="555" 
d="M63 0q-2 2 -2 6v1352l2 6h93q4 0 4 -6l112 -703h11l114 703q0 6 6 6h89q4 0 4 -6v-1352q0 -6 -4 -6h-109q-4 0 -4 6v608h-6l-70 -368q0 -8 -4 -8h-41q-6 0 -6 8l-68 368h-4v-608q0 -6 -4 -6h-113z" />
    <glyph glyph-name="n" unicode="n" horiz-adv-x="436" 
d="M61 0q-4 0 -4 6v1352q0 6 4 6h56q10 0 10 -8l127 -660h6v662q0 6 6 6h107q8 0 8 -6v-1350q0 -8 -6 -8h-58q-7 0 -10 8l-125 645h-6v-647q0 -6 -4 -6h-111z" />
    <glyph glyph-name="o" unicode="o" horiz-adv-x="395" 
d="M113 0q-26 0 -44 17.5t-18 43.5v1237q0 27 18 46.5t44 19.5h166q26 0 44.5 -19.5t18.5 -46.5v-1237q0 -26 -18.5 -43.5t-44.5 -17.5h-166zM182 121h31q10 0 10 10v1102q0 10 -10 10h-31q-12 0 -12 -10v-1102q0 -10 12 -10z" />
    <glyph glyph-name="p" unicode="p" horiz-adv-x="382" 
d="M63 0q-2 2 -2 6v1352l2 6h226q26 0 44.5 -19.5t18.5 -46.5v-618q0 -27 -18.5 -46.5t-44.5 -19.5h-109v-608q0 -6 -4 -6h-113zM180 735h43q8 0 8 8v490q0 10 -8 10h-43v-508z" />
    <glyph glyph-name="q" unicode="q" horiz-adv-x="393" 
d="M291 -104l-68 18h-45q-3 0 -5.5 3t-2.5 5v78h-57q-26 0 -44 17.5t-18 43.5v1237q0 27 18 46.5t44 19.5h166q26 0 44.5 -19.5t18.5 -46.5v-1237q0 -26 -18.5 -43.5t-44.5 -17.5h-56v-6l68 -12h45q6 0 6 -7v-73q0 -6 -6 -6h-45zM182 121h31q10 0 10 10v1102q0 10 -10 10
h-31q-12 0 -12 -10v-1102q0 -10 12 -10z" />
    <glyph glyph-name="r" unicode="r" horiz-adv-x="411" 
d="M63 0q-2 2 -2 6v1352l2 6h226q26 0 44.5 -19.5t18.5 -46.5v-739q0 -23 -12.5 -40t-34.5 -21l78 -492q0 -6 -4 -6h-113q-4 0 -4 6l-78 492h-4v-492q0 -6 -4 -6h-113zM180 614h43q8 0 8 13v606q0 10 -8 10h-43v-629z" />
    <glyph glyph-name="s" unicode="s" horiz-adv-x="362" 
d="M98 0q-26 0 -44.5 17.5t-18.5 43.5v279q0 6 4 6h111q4 0 4 -6v-209q0 -10 12 -10h31q10 0 10 10v334l-172 412v421q0 27 18.5 46.5t44.5 19.5h164q27 0 46.5 -19.5t19.5 -46.5v-286q0 -6 -4 -6h-111q-6 0 -6 6v221q0 10 -10 10h-31q-12 0 -12 -10v-356l174 -412v-404
q0 -26 -19 -43.5t-47 -17.5h-164z" />
    <glyph glyph-name="t" unicode="t" horiz-adv-x="344" 
d="M117 0q-4 0 -4 6v1237h-84q-4 0 -4 6v109q0 6 4 6h284q4 0 4 -6v-109q0 -6 -4 -6h-84v-1237q0 -6 -4 -6h-108z" />
    <glyph glyph-name="u" unicode="u" horiz-adv-x="397" 
d="M115 0q-26 0 -44 17.5t-18 43.5v1297q0 6 4 6h111q4 0 4 -6v-1227q0 -10 10 -10h33q8 0 8 10v1227q0 6 6 6h113q2 -2 2 -6v-1297q0 -26 -18.5 -43.5t-44.5 -17.5h-166z" />
    <glyph glyph-name="v" unicode="v" horiz-adv-x="403" 
d="M152 0q-7 0 -7 6l-120 1352q0 6 4 6h112q2 0 2 -6l62 -912h2l55 912q0 6 4 6h113q2 0 2 -6l-115 -1352q0 -6 -4 -6h-110z" />
    <glyph glyph-name="w" unicode="w" horiz-adv-x="667" 
d="M152 0q-7 0 -7 6l-120 1350q0 6 4 6h112q2 0 2 -6l62 -912h2l67 912q0 6 7 6h108q6 0 6 -6l70 -912l63 912q0 6 7 6h106q6 0 6 -6l-125 -1350q0 -6 -4 -6h-110q-5 0 -5 6l-65 703h-2l-70 -703q0 -6 -4 -6h-110z" />
    <glyph glyph-name="x" unicode="x" horiz-adv-x="387" 
d="M16 0q-6 0 -6 6l119 674l-119 678q0 6 6 6h111q4 0 4 -6l55 -475h4l56 475q0 6 6 6h106q9 0 9 -6l-117 -678l115 -674q0 -6 -7 -6h-106q-8 0 -8 6l-54 467h-4l-55 -467q0 -6 -4 -6h-111z" />
    <glyph glyph-name="y" unicode="y" horiz-adv-x="376" 
d="M131 0q-4 0 -4 6v670l-119 682q0 6 6 6h111q4 0 4 -6l55 -475h4l56 475q0 6 6 6h106q9 0 9 -6l-117 -682v-670q0 -6 -6 -6h-111z" />
    <glyph glyph-name="z" unicode="z" horiz-adv-x="329" 
d="M23 0q-7 0 -7 6v115l177 1122h-168q-9 0 -9 6v109q0 6 9 6h278q6 0 6 -6v-109l-172 -1128h166q6 0 6 -6v-109q0 -6 -6 -6h-280z" />
    <glyph glyph-name="braceleft" unicode="{" horiz-adv-x="419" 
d="M213 -121q-26 0 -46 20t-20 46v667q0 9 -8 9h-69q-7 0 -7 6v108q0 6 7 6h69q8 0 8 11v665q0 26 20 45t46 19h174q6 0 6 -4v-107q0 -6 -6 -6h-108q-11 0 -11 -10v-604q0 -27 -18 -47.5t-45 -20.5v-2q27 0 45 -19.5t18 -46.5v-604q0 -3 3.5 -6.5t7.5 -3.5h108q6 0 6 -6
v-109q0 -6 -6 -6h-174z" />
    <glyph glyph-name="bar" unicode="|" horiz-adv-x="239" 
d="M63 -121q-2 4 -2 6v1592l2 4h113q4 0 4 -4v-1592q0 -6 -4 -6h-113z" />
    <glyph glyph-name="braceright" unicode="}" horiz-adv-x="417" 
d="M29 -121q-4 0 -4 6v109q0 6 4 6h112q2 0 5.5 3.5t3.5 6.5v604q0 27 18.5 46.5t44.5 19.5v2q-26 0 -44.5 20.5t-18.5 47.5v604q0 10 -9 10h-112q-4 0 -4 6v107q0 4 4 4h176q26 0 45.5 -19t19.5 -45v-665q0 -11 11 -11h67q4 0 4 -6v-108q0 -6 -4 -6h-67q-11 0 -11 -9v-667
q0 -26 -19.5 -46t-45.5 -20h-176z" />
    <glyph glyph-name="asciitilde" unicode="~" horiz-adv-x="534" 
d="M14 602q-2 0 -2 4v129q0 8 2 8q73 45 121 45q41 0 125 -22.5t127 -22.5q16 0 35 5t31 10t34.5 16t30.5 14q4 8 4 0v-133q0 -6 -4 -6q-29 -16 -43 -23.5t-39.5 -15.5t-48.5 -8q-58 0 -135.5 23.5t-116.5 23.5q-14 0 -27 -2.5t-27.5 -9t-21.5 -10t-24.5 -13.5t-20.5 -12z
" />
    <glyph glyph-name="uni00A0" unicode="&#xa0;" horiz-adv-x="258" 
 />
    <glyph glyph-name="exclamdown" unicode="&#xa1;" horiz-adv-x="239" 
d="M63 1004q-2 2 -2 4v110l2 4h113q4 0 4 -4v-110q0 -4 -4 -4h-113zM63 -242q-2 4 -2 6v775l13 338q0 8 6 8h80q6 0 6 -8l14 -338v-775q0 -6 -4 -6h-113z" />
    <glyph glyph-name="cent" unicode="&#xa2;" horiz-adv-x="407" 
d="M205 0q-4 0 -4 6v115q-59 0 -99.5 40.5t-40.5 98.5v842q0 59 41 100t99 41v115q0 6 4 6h65q4 0 4 -6v-115h74q4 0 4 -4v-111q0 -6 -4 -6h-143q-10 0 -17.5 -7.5t-7.5 -16.5v-834q0 -9 7.5 -17.5t17.5 -8.5h143q4 0 4 -5v-108q0 -4 -4 -4h-74v-115q0 -6 -4 -6h-65z" />
    <glyph glyph-name="sterling" unicode="&#xa3;" horiz-adv-x="389" 
d="M-12 0q-4 0 -4 6v109q0 6 4 6h55v500h-55q-4 0 -4 6v108q0 6 4 6h55v557q0 27 18.5 46.5t44.5 19.5h166q26 0 46 -20t20 -46v-286q0 -6 -6 -6h-109q-6 0 -6 6v221q0 10 -10 10h-33q-10 0 -10 -10v-492h108q4 0 4 -6v-108q0 -6 -4 -6h-108v-500h168q6 0 6 -6v-109
q0 -6 -6 -6h-344z" />
    <glyph glyph-name="yen" unicode="&#xa5;" horiz-adv-x="407" 
d="M150 0q-7 0 -7 6v569h-80q-6 0 -6 3v96q0 6 6 6h80l-8 61h-72q-6 0 -6 4v97q0 6 6 6h52l-88 510q0 6 4 6h112q2 -2 2 -6l58 -475h4l55 475q0 6 4 6h109q6 0 6 -6l-88 -510h51q6 0 6 -6v-97q0 -4 -6 -4h-70l-10 -61h80q2 0 4 -2t2 -4v-96q0 -3 -6 -3h-80v-569q0 -6 -4 -6
h-110z" />
    <glyph glyph-name="brokenbar" unicode="&#xa6;" horiz-adv-x="364" 
d="M127 772q-6 0 -6 4v582q0 6 6 6h111q4 0 4 -6v-582q0 -4 -4 -4h-111zM127 -121q-1 0 -3.5 2.5t-2.5 3.5v580q0 6 6 6h111q4 0 4 -6v-580q0 -6 -4 -6h-111z" />
    <glyph glyph-name="section" unicode="&#xa7;" horiz-adv-x="339" 
d="M88 -121q-26 0 -44.5 19.5t-18.5 46.5v288q0 5 4 5h112q2 0 2 -5v-223q0 -3 4.5 -6.5t8.5 -3.5h30q4 0 7.5 3.5t3.5 6.5v228l-172 262v315l63 96l-63 95v292q0 27 18.5 46.5t44.5 19.5h166q26 0 44.5 -19.5t18.5 -46.5v-286q0 -6 -4 -6h-110q-6 0 -6 6v221q0 10 -11 10
h-30q-13 0 -13 -10v-227l174 -265v-315l-61 -96l61 -92v-293q0 -27 -18.5 -46.5t-44.5 -19.5h-166zM203 410v331l-62 93v-334z" />
    <glyph glyph-name="dieresis" unicode="&#xa8;" horiz-adv-x="274" 
d="M20 1458q-4 0 -4 6v84q0 4 4 4h84q7 0 7 -4v-84q0 -6 -7 -6h-84zM168 1458q-4 0 -4 6v84q0 4 4 4h84q6 0 6 -4v-84q0 -6 -6 -6h-84z" />
    <glyph glyph-name="copyright" unicode="&#xa9;" horiz-adv-x="509" 
d="M129 410q-40 0 -69 28t-29 68v762q0 40 29 68t69 28h252q40 0 69 -28t29 -68v-762q0 -40 -29 -68t-69 -28h-252zM133 492h244q16 0 16 16v758q0 16 -16 16h-244q-18 0 -18 -16v-758q0 -16 18 -16zM199 575q-20 0 -32.5 12.5t-12.5 30.5v535q0 16 12.5 30.5t30.5 14.5h114
q19 0 32 -14.5t13 -30.5v-203q0 -4 -2 -4h-78q-4 0 -4 4v154q0 8 -6 8h-22q-8 0 -8 -8v-438q0 -4 8 -4h22q6 0 6 4v67l4 2h78l2 -2v-115q0 -18 -11.5 -30.5t-31.5 -12.5h-114z" />
    <glyph glyph-name="ordfeminine" unicode="&#xaa;" horiz-adv-x="491" 
d="M74 694q-6 0 -6 4l127 660q0 6 4 6h96q4 0 4 -6l123 -660v-4h-111q-2 0 -2 4l-22 140h-80l-23 -140q0 -4 -4 -4h-106zM223 936h49l-24 201z" />
    <glyph glyph-name="guillemotleft" unicode="&#xab;" horiz-adv-x="499" 
d="M197 332q-3 0 -11 4l-157 319q-5 12 0 27l157 313q8 4 11 4h65q6 0 6.5 -2t-2.5 -4l-119 -323l119 -332q5 -3 1 -5q-1 -1 -5 -1h-65zM395 332q-6 0 -10 4l-158 319q-5 12 0 27l158 313q4 4 10 4h66q4 0 5 -2.5t-1 -3.5l-121 -323l121 -332q2 -2 1 -4t-5 -2h-66z" />
    <glyph glyph-name="logicalnot" unicode="&#xac;" horiz-adv-x="1034" 
d="M866 494q-26 0 -42.5 17.5t-16.5 41.5v266h-637q-27 0 -46.5 18.5t-19.5 45.5q0 21 20.5 37t45.5 16h711q49 0 49 -33v-350q0 -26 -18.5 -42.5t-45.5 -16.5z" />
    <glyph glyph-name="uni00AD" unicode="&#xad;" horiz-adv-x="540" 
d="M66 621q-3 0 -3 6v108q0 6 3 6h407q4 0 4 -6v-108q0 -6 -4 -6h-407z" />
    <glyph glyph-name="registered" unicode="&#xae;" horiz-adv-x="509" 
d="M129 410q-40 0 -69 28t-29 68v762q0 40 29 68t69 28h252q40 0 69 -28t29 -68v-762q0 -40 -29 -68t-69 -28h-252zM133 492h244q16 0 16 16v758q0 16 -16 16h-244q-18 0 -18 -16v-758q0 -16 18 -16zM156 575l-2 3v614q0 4 2 4h155q20 0 32.5 -13.5t12.5 -31.5v-303
q0 -32 -32 -43l55 -227q-2 -3 -4 -3h-76l-4 3l-53 227h-6v-227l-3 -3h-77zM236 887h30q6 0 6 8v209q0 6 -6 6h-30v-223z" />
    <glyph glyph-name="degree" unicode="&#xb0;" horiz-adv-x="274" 
d="M137 1116q-52 0 -87.5 36t-35.5 87q0 50 35.5 87.5t87.5 37.5q49 0 87 -38t38 -87q0 -50 -37.5 -86.5t-87.5 -36.5zM137 1180q24 0 42 17.5t18 41.5q0 23 -18.5 41t-41.5 18q-24 0 -41.5 -17.5t-17.5 -41.5q0 -25 17 -42t42 -17z" />
    <glyph glyph-name="plusminus" unicode="&#xb1;" horiz-adv-x="540" 
d="M66 621q-3 0 -3 6v108q0 6 3 6h145v144q0 6 4 6h111q4 0 4 -6v-144h143q4 0 4 -6v-108q0 -6 -4 -6h-407zM66 406q-3 0 -3 6v110q0 4 3 4h407q4 0 4 -4v-110q0 -6 -4 -6h-407z" />
    <glyph glyph-name="uni00B2" unicode="&#xb2;" horiz-adv-x="270" 
d="M25 711v4v192l118 209v146q0 20 -18 20q-8 0 -13.5 -6.5t-5.5 -13.5v-84l-2 -4h-79v4v88q0 41 28 69.5t68 28.5h10q39 0 67.5 -28.5t28.5 -69.5v-150l-121 -209v-112h138l2 -2v-78l-2 -4h-219z" />
    <glyph glyph-name="uni00B3" unicode="&#xb3;" horiz-adv-x="303" 
d="M143 698q-42 0 -70 29.5t-28 71.5v88q0 4 2 4h78q2 0 2 -4v-84q0 -7 5 -13t11 -6h2q7 0 13 6t6 13v168q0 6 -6 11t-13 5h-59q-2 0 -2 6v76q0 4 2 4h59q7 0 13 5.5t6 13.5v168q0 7 -5.5 12.5t-13.5 5.5h-2q-6 0 -11 -5.5t-5 -12.5v-86h-2h-78h-2v88q0 43 28 72.5t70 29.5
h7q41 0 69.5 -29.5t28.5 -72.5v-129q0 -81 -53 -93v-2q53 -17 53 -96v-143q0 -42 -28.5 -71.5t-69.5 -29.5h-7z" />
    <glyph glyph-name="acute" unicode="&#xb4;" horiz-adv-x="311" 
d="M53 1458q-7 -2 -10 4l-12 29q-3 6 2 8l203 109q9 5 12 -4l33 -84q2 -7 -9 -11z" />
    <glyph glyph-name="paragraph" unicode="&#xb6;" horiz-adv-x="505" 
d="M227 0q-4 0 -4 6v608h-110q-26 0 -45 20t-19 46v618q0 26 19 46t45 20h323q4 0 4 -6v-1352q0 -6 -4 -6h-74q-4 0 -4 6v1237h-53v-1237q0 -6 -4 -6h-74z" />
    <glyph glyph-name="periodcentered" unicode="&#xb7;" horiz-adv-x="337" 
d="M168 578q-52 0 -89.5 37t-37.5 90q0 52 37 88t90 36t91 -36t38 -88t-38 -89.5t-91 -37.5z" />
    <glyph glyph-name="cedilla" unicode="&#xb8;" horiz-adv-x="196" 
d="M2 -270q-8 0 -8 10v61q0 9 8 9h100v73l-47 23q-19 10 -27 15t-14 16t-6 28v45h88v-30q35 -17 66 -35q41 -20 41 -56v-116q0 -21 -8.5 -32t-32.5 -11h-160z" />
    <glyph glyph-name="uni00B9" unicode="&#xb9;" horiz-adv-x="225" 
d="M88 711q-4 0 -4 4v567h-66q-4 0 -4 2v45l4 2l107 33h41q2 0 2 -2v-647l-2 -4h-78z" />
    <glyph glyph-name="ordmasculine" unicode="&#xba;" horiz-adv-x="333" 
d="M94 694q-26 0 -45.5 20t-19.5 46v540q0 26 19.5 45t45.5 19h150q26 0 43.5 -18.5t17.5 -45.5v-540q0 -27 -17.5 -46.5t-43.5 -19.5h-150zM154 797h28q8 0 8 8v446q0 9 -8 9h-28q-11 0 -11 -9v-446q0 -8 11 -8z" />
    <glyph glyph-name="guillemotright" unicode="&#xbb;" horiz-adv-x="501" 
d="M33 332q-6 0 -6.5 2t2.5 4l118 332l-118 323q-5 3 -1 5q1 1 5 1h67q5 0 9 -4l157 -313q7 -15 0 -27l-157 -319q-4 -4 -9 -4h-67zM231 332q-12 0 -6 6l121 332l-121 323q-6 6 6 6h66q2 0 10 -4l158 -313q5 -15 0 -27l-158 -319q-8 -4 -10 -4h-66z" />
    <glyph glyph-name="onequarter" unicode="&#xbc;" horiz-adv-x="546" 
d="M86 711q-2 0 -2 4v567h-68q-2 0 -2 2v45l2 2l107 33h41q2 0 2 -2v-647l-2 -4h-78zM113 0q-4 0 -4 6l161 1352q0 6 6 6h80q6 0 6 -6l-163 -1352q0 -6 -6 -6h-80zM401 0q-4 0 -4 6v195h-135q-2 2 -2 6v80l137 360q0 2 4 2h76q4 0 4 -2v-360h43q4 0 4 -6v-74q0 -6 -4 -6h-43
v-195q0 -6 -4 -6h-76zM332 287h65v174h-4z" />
    <glyph glyph-name="onehalf" unicode="&#xbd;" horiz-adv-x="546" 
d="M86 711q-2 0 -2 4v567h-68q-2 0 -2 2v45l2 2l107 33h41q2 0 2 -2v-647l-2 -4h-78zM113 0q-4 0 -4 6l161 1352q0 6 6 6h80q6 0 6 -6l-163 -1352q0 -6 -6 -6h-80zM303 0q-4 0 -4 2v193l121 208v148q0 18 -19 18q-8 0 -13 -5.5t-5 -12.5v-86l-2 -4h-78q-4 0 -4 4v88
q0 42 29 71t69 29h11q40 0 68 -29t28 -71v-150l-121 -208v-113h137l2 -2v-78l-2 -2h-217z" />
    <glyph glyph-name="threequarters" unicode="&#xbe;" horiz-adv-x="624" 
d="M143 698q-42 0 -70 29.5t-28 71.5v88q0 4 2 4h78q2 0 2 -4v-84q0 -7 5 -13t11 -6h2q7 0 13 6t6 13v168q0 6 -6 11t-13 5h-59q-2 0 -2 6v76q0 4 2 4h59q7 0 13 5.5t6 13.5v168q0 7 -5.5 12.5t-13.5 5.5h-2q-6 0 -11 -5.5t-5 -12.5v-86h-2h-78h-2v88q0 43 28 72.5t70 29.5
h7q41 0 69.5 -29.5t28.5 -72.5v-129q0 -81 -53 -93v-2q53 -17 53 -96v-143q0 -42 -28.5 -71.5t-69.5 -29.5h-7zM193 0q-7 0 -7 6l164 1352q0 6 4 6h80q6 0 6 -6l-164 -1352q0 -6 -4 -6h-79zM479 0q-4 0 -4 6v195h-135q-2 2 -2 6v80l137 360q0 2 4 2h76q6 0 6 -2v-360h43
q2 0 2 -6v-74q0 -6 -2 -6h-43v-195q0 -6 -6 -6h-76zM410 287h65v174h-2z" />
    <glyph glyph-name="questiondown" unicode="&#xbf;" horiz-adv-x="303" 
d="M172 1004q-6 0 -6 4v110q0 4 6 4h111q4 0 4 -4v-110q0 -4 -4 -4h-111zM59 -242q-27 0 -46 19.5t-19 46.5v301l172 414l16 338q0 8 4 8h80q4 0 4 -8l17 -338l-174 -414v-236q0 -3 4 -6.5t8 -3.5h31q10 0 10 10v224q0 4 6 4h111q4 0 4 -4v-289q0 -27 -18.5 -46.5
t-45.5 -19.5h-164z" />
    <glyph glyph-name="Agrave" unicode="&#xc0;" 
d="M297 1458l-219 51q-10 3 -8 11l32 84q3 9 13 4l202 -109q5 -3 2 -6l-12 -31q-3 -6 -10 -4zM27 0q-4 0 -4 6l116 1352q0 6 4 6h111q4 0 4 -6l123 -1352q0 -6 -4 -6h-113q-2 0 -2 6l-16 221h-90l-13 -221q0 -6 -4 -6h-112zM162 348h76l-37 570h-2z" />
    <glyph glyph-name="Aacute" unicode="&#xc1;" 
d="M88 1458q-7 -2 -10 4l-12 29q-3 6 2 8l202 109q10 5 13 -4l32 -84q2 -8 -8 -11zM27 0q-4 0 -4 6l116 1352q0 6 4 6h111q4 0 4 -6l123 -1352q0 -6 -4 -6h-113q-2 0 -2 6l-16 221h-90l-13 -221q0 -6 -4 -6h-112zM162 348h76l-37 570h-2z" />
    <glyph glyph-name="Acircumflex" unicode="&#xc2;" 
d="M57 1454q-8 -6 -12 2l-14 23q-7 7 0 14l149 147q5 5 13 5h18q5 0 10 -5l150 -147q6 -6 0 -14l-15 -21q-3 -8 -12 -2l-143 82zM27 0q-4 0 -4 6l116 1352q0 6 4 6h111q4 0 4 -6l123 -1352q0 -6 -4 -6h-113q-2 0 -2 6l-16 221h-90l-13 -221q0 -6 -4 -6h-112zM162 348h76
l-37 570h-2z" />
    <glyph glyph-name="Atilde" unicode="&#xc3;" 
d="M274 1458q-40 0 -92 32t-82 32q-13 0 -26.5 -8t-29.5 -23.5t-19 -17.5q0 -3 -3 -2q-2 1 -2 4v49q0 8 5 16q5 6 14 14.5t33 22.5t45 14q45 0 94.5 -30.5t71.5 -30.5q8 0 15 2t12 4t13 8.5t10.5 8.5t12.5 11t12 11q3 4 6 3.5t3 -5.5v-47q0 -14 -7 -21l-7.5 -7.5l-9 -9
t-9.5 -8.5t-12.5 -9t-13.5 -6.5t-16.5 -5t-17.5 -1.5zM27 0q-4 0 -4 6l116 1352q0 6 4 6h111q4 0 4 -6l123 -1352q0 -6 -4 -6h-113q-2 0 -2 6l-16 221h-90l-13 -221q0 -6 -4 -6h-112zM162 348h76l-37 570h-2z" />
    <glyph glyph-name="Adieresis" unicode="&#xc4;" 
d="M84 1458q-4 0 -4 6v84q0 4 4 4h84q6 0 6 -4v-84q0 -6 -6 -6h-84zM231 1458q-4 0 -4 6v84q0 4 4 4h84q7 0 7 -4v-84q0 -6 -7 -6h-84zM27 0q-4 0 -4 6l116 1352q0 6 4 6h111q4 0 4 -6l123 -1352q0 -6 -4 -6h-113q-2 0 -2 6l-16 221h-90l-13 -221q0 -6 -4 -6h-112zM162 348
h76l-37 570h-2z" />
    <glyph glyph-name="Aring" unicode="&#xc5;" 
d="M199 1411q-52 0 -89.5 37t-37.5 88q0 54 37 91.5t90 37.5q54 0 91.5 -37.5t37.5 -91.5q0 -51 -37.5 -88t-91.5 -37zM199 1477q27 0 45 17t18 42q0 28 -17.5 45.5t-45.5 17.5q-27 0 -44.5 -17.5t-17.5 -45.5q0 -25 18 -42t44 -17zM27 0q-4 0 -4 6l116 1352q0 6 4 6h111
q4 0 4 -6l123 -1352q0 -6 -4 -6h-113q-2 0 -2 6l-16 221h-90l-13 -221q0 -6 -4 -6h-112zM162 348h76l-37 570h-2z" />
    <glyph glyph-name="AE" unicode="&#xc6;" horiz-adv-x="503" 
d="M27 0q-4 0 -4 6l116 1352q0 6 4 6h318q4 0 4 -6v-109q0 -6 -4 -6h-193l45 -502h148q4 0 4 -6v-108q0 -6 -4 -6h-137l47 -500h90q4 0 4 -6v-109q0 -6 -4 -6h-197q-2 0 -2 6l-16 221h-90l-13 -221q0 -6 -4 -6h-112zM162 348h76l-37 570h-2z" />
    <glyph glyph-name="Ccedilla" unicode="&#xc7;" horiz-adv-x="389" 
d="M227 1006q-4 0 -4 6v221q0 10 -10 10h-31q-12 0 -12 -10v-1102q0 -10 12 -10h31q10 0 10 10v209q0 6 4 6h113q2 0 2 -6v-279q0 -26 -17.5 -43.5t-43.5 -17.5h-99v-20q35 -17 66 -35q41 -20 41 -56v-116q0 -21 -8.5 -32t-32.5 -11h-160q-8 0 -8 10v61q0 9 8 9h100v73
l-47 23q-19 10 -27 15t-14 16t-6 28v37q-43 13 -43 59v1237q0 27 18 46.5t44 19.5h166q26 0 44.5 -19.5t18.5 -46.5v-286q0 -6 -2 -6h-113z" />
    <glyph glyph-name="Egrave" unicode="&#xc8;" horiz-adv-x="389" 
d="M291 1458l-219 51q-11 4 -9 11l33 84q3 9 13 4l202 -109q5 -3 2 -6l-12 -31q-3 -6 -10 -4zM63 0q-2 2 -2 6v1352l2 6h285q4 0 4 -6v-109q0 -6 -4 -6h-168v-502h168q4 0 4 -6v-108q0 -6 -4 -6h-168v-500h168q4 0 4 -6v-109q0 -6 -4 -6h-285z" />
    <glyph glyph-name="Eacute" unicode="&#xc9;" horiz-adv-x="389" 
d="M82 1458q-7 -2 -10 4l-13 29q-3 6 2 8l203 109q9 5 12 -4l33 -84q2 -8 -8 -11zM63 0q-2 2 -2 6v1352l2 6h285q4 0 4 -6v-109q0 -6 -4 -6h-168v-502h168q4 0 4 -6v-108q0 -6 -4 -6h-168v-500h168q4 0 4 -6v-109q0 -6 -4 -6h-285z" />
    <glyph glyph-name="Ecircumflex" unicode="&#xca;" horiz-adv-x="389" 
d="M51 1454q-8 -6 -12 2l-14 23q-7 7 0 14l149 147q5 5 12 5h19q5 0 10 -5l150 -147q6 -6 0 -14l-15 -21q-3 -8 -12 -2l-143 82zM63 0q-2 2 -2 6v1352l2 6h285q4 0 4 -6v-109q0 -6 -4 -6h-168v-502h168q4 0 4 -6v-108q0 -6 -4 -6h-168v-500h168q4 0 4 -6v-109q0 -6 -4 -6
h-285z" />
    <glyph glyph-name="Edieresis" unicode="&#xcb;" horiz-adv-x="389" 
d="M78 1458q-4 0 -4 6v84q0 4 4 4h84q6 0 6 -4v-84q0 -6 -6 -6h-84zM225 1458q-4 0 -4 6v84q0 4 4 4h84q6 0 6 -4v-84q0 -6 -6 -6h-84zM63 0q-2 2 -2 6v1352l2 6h285q4 0 4 -6v-109q0 -6 -4 -6h-168v-502h168q4 0 4 -6v-108q0 -6 -4 -6h-168v-500h168q4 0 4 -6v-109
q0 -6 -4 -6h-285z" />
    <glyph glyph-name="Igrave" unicode="&#xcc;" horiz-adv-x="239" 
d="M217 1458l-219 51q-10 3 -8 11l33 84q3 9 12 4l203 -109q5 -3 2 -6l-13 -31q-3 -6 -10 -4zM63 0q-2 2 -2 6v1352l2 6h113q4 0 4 -6v-1352q0 -6 -4 -6h-113z" />
    <glyph glyph-name="Iacute" unicode="&#xcd;" horiz-adv-x="239" 
d="M8 1458q-7 -2 -10 4l-12 29q-3 6 2 8l202 109q10 5 13 -4l33 -84q2 -7 -9 -11zM63 0q-2 2 -2 6v1352l2 6h113q4 0 4 -6v-1352q0 -6 -4 -6h-113z" />
    <glyph glyph-name="Icircumflex" unicode="&#xce;" horiz-adv-x="239" 
d="M-23 1454q-8 -6 -12 2l-14 23q-7 7 0 14l149 147q5 5 13 5h18q5 0 10 -5l150 -147q6 -6 0 -14l-15 -21q-3 -8 -12 -2l-143 82zM63 0q-2 2 -2 6v1352l2 6h113q4 0 4 -6v-1352q0 -6 -4 -6h-113z" />
    <glyph glyph-name="Idieresis" unicode="&#xcf;" horiz-adv-x="239" 
d="M4 1458q-4 0 -4 6v84q0 4 4 4h84q6 0 6 -4v-84q0 -6 -6 -6h-84zM152 1458q-5 0 -5 6v84q0 4 5 4h84q6 0 6 -4v-84q0 -6 -6 -6h-84zM63 0q-2 2 -2 6v1352l2 6h113q4 0 4 -6v-1352q0 -6 -4 -6h-113z" />
    <glyph glyph-name="Eth" unicode="&#xd0;" 
d="M63 0q-4 0 -4 6v615h-55q-6 0 -6 6v108q0 6 6 6h55v617q0 6 4 6h226q26 0 43.5 -19.5t17.5 -46.5v-1237q0 -26 -18.5 -43.5t-44.5 -17.5h-224zM180 121h43q2 0 5 3t3 7v1102q0 4 -3 7t-5 3h-43v-502h19q6 0 6 -6v-108q0 -6 -6 -6h-19v-500z" />
    <glyph glyph-name="Ntilde" unicode="&#xd1;" horiz-adv-x="436" 
d="M293 1458q-40 0 -92 32t-82 32q-13 0 -26.5 -8t-30.5 -23.5t-19 -17.5q0 -2 -2 -2t-2 4v49q0 10 4 16q5 6 14 14.5t33 22.5t45 14q45 0 94.5 -30.5t71.5 -30.5q6 0 11.5 1t10 2.5t10 5t8.5 5.5t9 7t8.5 7t9.5 8.5t9 8.5q3 4 5.5 3.5t2.5 -5.5v-47q0 -15 -6 -21l-7.5 -7.5
l-9 -9t-9.5 -8.5t-12.5 -9t-13.5 -6.5t-16.5 -5t-17.5 -1.5zM61 0q-4 0 -4 6v1352q0 6 4 6h56q10 0 10 -8l127 -660h6v662q0 6 6 6h107q8 0 8 -6v-1350q0 -8 -6 -8h-58q-7 0 -10 8l-125 645h-6v-647q0 -6 -4 -6h-111z" />
    <glyph glyph-name="Ograve" unicode="&#xd2;" horiz-adv-x="395" 
d="M293 1458l-219 51q-11 3 -8 11l32 84q3 9 13 4l202 -109q5 -3 2 -6l-12 -31q-3 -6 -10 -4zM113 0q-26 0 -44 17.5t-18 43.5v1237q0 27 18 46.5t44 19.5h166q26 0 44.5 -19.5t18.5 -46.5v-1237q0 -26 -18.5 -43.5t-44.5 -17.5h-166zM182 121h31q10 0 10 10v1102
q0 10 -10 10h-31q-12 0 -12 -10v-1102q0 -10 12 -10z" />
    <glyph glyph-name="Oacute" unicode="&#xd3;" horiz-adv-x="395" 
d="M84 1458q-7 -2 -10 4l-13 29q-3 6 2 8l203 109q10 5 13 -4l32 -84q3 -8 -8 -11zM113 0q-26 0 -44 17.5t-18 43.5v1237q0 27 18 46.5t44 19.5h166q26 0 44.5 -19.5t18.5 -46.5v-1237q0 -26 -18.5 -43.5t-44.5 -17.5h-166zM182 121h31q10 0 10 10v1102q0 10 -10 10h-31
q-12 0 -12 -10v-1102q0 -10 12 -10z" />
    <glyph glyph-name="Ocircumflex" unicode="&#xd4;" horiz-adv-x="395" 
d="M53 1454q-8 -6 -12 2l-14 23q-7 7 0 14l149 147q5 5 12 5h19q5 0 10 -5l150 -147q6 -6 0 -14l-15 -21q-3 -8 -12 -2l-143 82zM113 0q-26 0 -44 17.5t-18 43.5v1237q0 27 18 46.5t44 19.5h166q26 0 44.5 -19.5t18.5 -46.5v-1237q0 -26 -18.5 -43.5t-44.5 -17.5h-166z
M182 121h31q10 0 10 10v1102q0 10 -10 10h-31q-12 0 -12 -10v-1102q0 -10 12 -10z" />
    <glyph glyph-name="Otilde" unicode="&#xd5;" horiz-adv-x="395" 
d="M272 1458q-40 0 -92 32t-82 32q-13 0 -26.5 -8t-29.5 -23.5t-19 -17.5q0 -3 -3 -2q-2 1 -2 4v49q0 8 5 16q5 6 14 14.5t33 22.5t45 14q45 0 94.5 -30.5t71.5 -30.5q8 0 15 2t12 4t13 8.5t10.5 8.5t12.5 11t12 11q3 4 6 3.5t3 -5.5v-47q0 -14 -7 -21l-7.5 -7.5l-9 -9
t-9.5 -8.5t-12.5 -9t-13.5 -6.5t-16.5 -5t-17.5 -1.5zM113 0q-26 0 -44 17.5t-18 43.5v1237q0 27 18 46.5t44 19.5h166q26 0 44.5 -19.5t18.5 -46.5v-1237q0 -26 -18.5 -43.5t-44.5 -17.5h-166zM182 121h31q10 0 10 10v1102q0 10 -10 10h-31q-12 0 -12 -10v-1102
q0 -10 12 -10z" />
    <glyph glyph-name="Odieresis" unicode="&#xd6;" horiz-adv-x="395" 
d="M80 1458q-4 0 -4 6v84q0 4 4 4h84q6 0 6 -4v-84q0 -6 -6 -6h-84zM227 1458q-4 0 -4 6v84q0 4 4 4h84q6 0 6 -4v-84q0 -6 -6 -6h-84zM113 0q-26 0 -44 17.5t-18 43.5v1237q0 27 18 46.5t44 19.5h166q26 0 44.5 -19.5t18.5 -46.5v-1237q0 -26 -18.5 -43.5t-44.5 -17.5h-166
zM182 121h31q10 0 10 10v1102q0 10 -10 10h-31q-12 0 -12 -10v-1102q0 -10 12 -10z" />
    <glyph glyph-name="multiply" unicode="&#xd7;" horiz-adv-x="585" 
d="M184 498l-78 77q-4 0 0 7l103 100l-103 98q-3 5 0 8l78 78q4 4 9 0l100 -98l100 98q3 3 8 0l78 -78q3 -3 0 -8l-100 -98l100 -100q3 -7 0 -7l-78 -77q-5 -5 -8 0l-100 98l-100 -98q-1 -3 -4 -3t-5 3z" />
    <glyph glyph-name="Oslash" unicode="&#xd8;" horiz-adv-x="407" 
d="M-16 0q-4 0 -4 6l75 266v1026q0 26 19 46t45 20h166q26 0 44.5 -19.5t18.5 -46.5v-10l21 70q0 6 6 6h49q4 0 4 -6l-80 -277v-1020q0 -26 -18.5 -43.5t-44.5 -17.5h-166q-27 0 -45.5 17.5t-18.5 43.5v2l-18 -57q0 -6 -4 -6h-49zM176 690l51 182v361q0 10 -8 10h-35
q-2 0 -5 -3t-3 -7v-543zM184 121h35q8 0 8 10v533l-51 -183v-350q0 -4 3 -7t5 -3z" />
    <glyph glyph-name="Ugrave" unicode="&#xd9;" horiz-adv-x="397" 
d="M295 1458l-219 51q-10 3 -8 11l32 84q3 9 13 4l202 -109q5 -3 2 -6l-12 -31q-3 -6 -10 -4zM115 0q-26 0 -44 17.5t-18 43.5v1297q0 6 4 6h111q4 0 4 -6v-1227q0 -10 10 -10h33q8 0 8 10v1227q0 6 6 6h113q2 -2 2 -6v-1297q0 -26 -18.5 -43.5t-44.5 -17.5h-166z" />
    <glyph glyph-name="Uacute" unicode="&#xda;" horiz-adv-x="397" 
d="M86 1458q-7 -2 -10 4l-13 29q-3 5 3 8l202 109q10 5 13 -4l32 -84q3 -8 -8 -11zM115 0q-26 0 -44 17.5t-18 43.5v1297q0 6 4 6h111q4 0 4 -6v-1227q0 -10 10 -10h33q8 0 8 10v1227q0 6 6 6h113q2 -2 2 -6v-1297q0 -26 -18.5 -43.5t-44.5 -17.5h-166z" />
    <glyph glyph-name="Ucircumflex" unicode="&#xdb;" horiz-adv-x="397" 
d="M55 1454q-8 -6 -12 2l-14 23q-7 7 0 14l149 147q5 5 12 5h19q5 0 10 -5l150 -147q6 -6 0 -14l-15 -21q-3 -8 -12 -2l-143 82zM115 0q-26 0 -44 17.5t-18 43.5v1297q0 6 4 6h111q4 0 4 -6v-1227q0 -10 10 -10h33q8 0 8 10v1227q0 6 6 6h113q2 -2 2 -6v-1297
q0 -26 -18.5 -43.5t-44.5 -17.5h-166z" />
    <glyph glyph-name="Udieresis" unicode="&#xdc;" horiz-adv-x="397" 
d="M82 1458q-4 0 -4 6v84q0 4 4 4h84q6 0 6 -4v-84q0 -6 -6 -6h-84zM229 1458q-4 0 -4 6v84q0 4 4 4h84q6 0 6 -4v-84q0 -6 -6 -6h-84zM115 0q-26 0 -44 17.5t-18 43.5v1297q0 6 4 6h111q4 0 4 -6v-1227q0 -10 10 -10h33q8 0 8 10v1227q0 6 6 6h113q2 -2 2 -6v-1297
q0 -26 -18.5 -43.5t-44.5 -17.5h-166z" />
    <glyph glyph-name="Yacute" unicode="&#xdd;" horiz-adv-x="376" 
d="M76 1458q-7 -2 -10 4l-13 29q-3 6 2 8l203 109q9 5 12 -4l33 -84q3 -8 -8 -11zM131 0q-4 0 -4 6v670l-119 682q0 6 6 6h111q4 0 4 -6l55 -475h4l56 475q0 6 6 6h106q9 0 9 -6l-117 -682v-670q0 -6 -6 -6h-111z" />
    <glyph glyph-name="Thorn" unicode="&#xde;" horiz-adv-x="382" 
d="M63 0q-2 2 -2 6v1352l2 6h113q4 0 4 -6v-236h109q26 0 44.5 -18.5t18.5 -44.5v-621q0 -26 -18.5 -43.5t-44.5 -17.5h-109v-371q0 -6 -4 -6h-113zM180 498h43q8 0 8 8v487q0 11 -8 11h-43v-506z" />
    <glyph glyph-name="germandbls" unicode="&#xdf;" 
d="M63 0q-2 2 -2 6v1352l2 6h150q58 0 98.5 -41t40.5 -100v-478q0 -26 -18.5 -43.5t-44.5 -17.5v-4q26 0 44.5 -19.5t18.5 -46.5v-608q0 -6 -4 -6h-143q-4 0 -4 6v109q0 6 4 6h26v500h-26q-4 0 -4 6v108q0 6 4 6h26v476q0 26 -22 26h-29v-1237q0 -6 -4 -6h-113z" />
    <glyph glyph-name="agrave" unicode="&#xe0;" 
d="M297 1458l-219 51q-10 3 -8 11l32 84q3 9 13 4l202 -109q5 -3 2 -6l-12 -31q-3 -6 -10 -4zM27 0q-4 0 -4 6l116 1352q0 6 4 6h111q4 0 4 -6l123 -1352q0 -6 -4 -6h-113q-2 0 -2 6l-16 221h-90l-13 -221q0 -6 -4 -6h-112zM162 348h76l-37 570h-2z" />
    <glyph glyph-name="aacute" unicode="&#xe1;" 
d="M88 1458q-7 -2 -10 4l-12 29q-3 6 2 8l202 109q10 5 13 -4l32 -84q2 -8 -8 -11zM27 0q-4 0 -4 6l116 1352q0 6 4 6h111q4 0 4 -6l123 -1352q0 -6 -4 -6h-113q-2 0 -2 6l-16 221h-90l-13 -221q0 -6 -4 -6h-112zM162 348h76l-37 570h-2z" />
    <glyph glyph-name="acircumflex" unicode="&#xe2;" 
d="M57 1454q-8 -6 -12 2l-14 23q-7 7 0 14l149 147q5 5 13 5h18q5 0 10 -5l150 -147q6 -6 0 -14l-15 -21q-3 -8 -12 -2l-143 82zM27 0q-4 0 -4 6l116 1352q0 6 4 6h111q4 0 4 -6l123 -1352q0 -6 -4 -6h-113q-2 0 -2 6l-16 221h-90l-13 -221q0 -6 -4 -6h-112zM162 348h76
l-37 570h-2z" />
    <glyph glyph-name="atilde" unicode="&#xe3;" 
d="M274 1458q-40 0 -92 32t-82 32q-13 0 -26.5 -8t-29.5 -23.5t-19 -17.5q0 -3 -3 -2q-2 1 -2 4v49q0 8 5 16q5 6 14 14.5t33 22.5t45 14q45 0 94.5 -30.5t71.5 -30.5q8 0 15 2t12 4t13 8.5t10.5 8.5t12.5 11t12 11q3 4 6 3.5t3 -5.5v-47q0 -14 -7 -21l-7.5 -7.5l-9 -9
t-9.5 -8.5t-12.5 -9t-13.5 -6.5t-16.5 -5t-17.5 -1.5zM27 0q-4 0 -4 6l116 1352q0 6 4 6h111q4 0 4 -6l123 -1352q0 -6 -4 -6h-113q-2 0 -2 6l-16 221h-90l-13 -221q0 -6 -4 -6h-112zM162 348h76l-37 570h-2z" />
    <glyph glyph-name="adieresis" unicode="&#xe4;" 
d="M84 1458q-4 0 -4 6v84q0 4 4 4h84q6 0 6 -4v-84q0 -6 -6 -6h-84zM231 1458q-4 0 -4 6v84q0 4 4 4h84q7 0 7 -4v-84q0 -6 -7 -6h-84zM27 0q-4 0 -4 6l116 1352q0 6 4 6h111q4 0 4 -6l123 -1352q0 -6 -4 -6h-113q-2 0 -2 6l-16 221h-90l-13 -221q0 -6 -4 -6h-112zM162 348
h76l-37 570h-2z" />
    <glyph glyph-name="aring" unicode="&#xe5;" 
d="M199 1411q-52 0 -89.5 37t-37.5 88q0 54 37 91.5t90 37.5q54 0 91.5 -37.5t37.5 -91.5q0 -51 -37.5 -88t-91.5 -37zM199 1477q27 0 45 17t18 42q0 28 -17.5 45.5t-45.5 17.5q-27 0 -44.5 -17.5t-17.5 -45.5q0 -25 18 -42t44 -17zM27 0q-4 0 -4 6l116 1352q0 6 4 6h111
q4 0 4 -6l123 -1352q0 -6 -4 -6h-113q-2 0 -2 6l-16 221h-90l-13 -221q0 -6 -4 -6h-112zM162 348h76l-37 570h-2z" />
    <glyph glyph-name="ae" unicode="&#xe6;" horiz-adv-x="503" 
d="M27 0q-4 0 -4 6l116 1352q0 6 4 6h318q4 0 4 -6v-109q0 -6 -4 -6h-193l45 -502h148q4 0 4 -6v-108q0 -6 -4 -6h-137l47 -500h90q4 0 4 -6v-109q0 -6 -4 -6h-197q-2 0 -2 6l-16 221h-90l-13 -221q0 -6 -4 -6h-112zM162 348h76l-37 570h-2z" />
    <glyph glyph-name="ccedilla" unicode="&#xe7;" horiz-adv-x="389" 
d="M227 1006q-4 0 -4 6v221q0 10 -10 10h-31q-12 0 -12 -10v-1102q0 -10 12 -10h31q10 0 10 10v209q0 6 4 6h113q2 0 2 -6v-279q0 -26 -17.5 -43.5t-43.5 -17.5h-99v-20q35 -17 66 -35q41 -20 41 -56v-116q0 -21 -8.5 -32t-32.5 -11h-160q-8 0 -8 10v61q0 9 8 9h100v73
l-47 23q-19 10 -27 15t-14 16t-6 28v37q-43 13 -43 59v1237q0 27 18 46.5t44 19.5h166q26 0 44.5 -19.5t18.5 -46.5v-286q0 -6 -2 -6h-113z" />
    <glyph glyph-name="egrave" unicode="&#xe8;" horiz-adv-x="389" 
d="M291 1458l-219 51q-11 4 -9 11l33 84q3 9 13 4l202 -109q5 -3 2 -6l-12 -31q-3 -6 -10 -4zM63 0q-2 2 -2 6v1352l2 6h285q4 0 4 -6v-109q0 -6 -4 -6h-168v-502h168q4 0 4 -6v-108q0 -6 -4 -6h-168v-500h168q4 0 4 -6v-109q0 -6 -4 -6h-285z" />
    <glyph glyph-name="eacute" unicode="&#xe9;" horiz-adv-x="389" 
d="M82 1458q-7 -2 -10 4l-13 29q-3 6 2 8l203 109q9 5 12 -4l33 -84q2 -8 -8 -11zM63 0q-2 2 -2 6v1352l2 6h285q4 0 4 -6v-109q0 -6 -4 -6h-168v-502h168q4 0 4 -6v-108q0 -6 -4 -6h-168v-500h168q4 0 4 -6v-109q0 -6 -4 -6h-285z" />
    <glyph glyph-name="ecircumflex" unicode="&#xea;" horiz-adv-x="389" 
d="M51 1454q-8 -6 -12 2l-14 23q-7 7 0 14l149 147q5 5 12 5h19q5 0 10 -5l150 -147q6 -6 0 -14l-15 -21q-3 -8 -12 -2l-143 82zM63 0q-2 2 -2 6v1352l2 6h285q4 0 4 -6v-109q0 -6 -4 -6h-168v-502h168q4 0 4 -6v-108q0 -6 -4 -6h-168v-500h168q4 0 4 -6v-109q0 -6 -4 -6
h-285z" />
    <glyph glyph-name="edieresis" unicode="&#xeb;" horiz-adv-x="389" 
d="M78 1458q-4 0 -4 6v84q0 4 4 4h84q6 0 6 -4v-84q0 -6 -6 -6h-84zM225 1458q-4 0 -4 6v84q0 4 4 4h84q6 0 6 -4v-84q0 -6 -6 -6h-84zM63 0q-2 2 -2 6v1352l2 6h285q4 0 4 -6v-109q0 -6 -4 -6h-168v-502h168q4 0 4 -6v-108q0 -6 -4 -6h-168v-500h168q4 0 4 -6v-109
q0 -6 -4 -6h-285z" />
    <glyph glyph-name="igrave" unicode="&#xec;" horiz-adv-x="243" 
d="M219 1458l-219 51q-10 3 -8 11l33 84q3 9 12 4l203 -109q5 -3 2 -6l-13 -31q-3 -6 -10 -4zM66 0q-3 0 -3 6v1352q0 6 3 6h112q4 0 4 -6v-1352q0 -6 -4 -6h-112z" />
    <glyph glyph-name="iacute" unicode="&#xed;" horiz-adv-x="243" 
d="M10 1458q-7 -2 -10 4l-12 29q-3 6 2 8l203 109q9 5 12 -4l33 -84q2 -7 -9 -11zM66 0q-3 0 -3 6v1352q0 6 3 6h112q4 0 4 -6v-1352q0 -6 -4 -6h-112z" />
    <glyph glyph-name="icircumflex" unicode="&#xee;" horiz-adv-x="243" 
d="M-20 1454q-9 -6 -13 2l-14 23q-7 7 0 14l149 147q5 5 13 5h18q5 0 10 -5l150 -147q6 -6 0 -14l-14 -21q-3 -9 -13 -2l-143 82zM66 0q-3 0 -3 6v1352q0 6 3 6h112q4 0 4 -6v-1352q0 -6 -4 -6h-112z" />
    <glyph glyph-name="idieresis" unicode="&#xef;" horiz-adv-x="243" 
d="M6 1458q-4 0 -4 6v84q0 4 4 4h84q6 0 6 -4v-84q0 -6 -6 -6h-84zM154 1458q-4 0 -4 6v84q0 4 4 4h84q6 0 6 -4v-84q0 -6 -6 -6h-84zM66 0q-3 0 -3 6v1352q0 6 3 6h112q4 0 4 -6v-1352q0 -6 -4 -6h-112z" />
    <glyph glyph-name="eth" unicode="&#xf0;" 
d="M63 0q-4 0 -4 6v615h-55q-6 0 -6 6v108q0 6 6 6h55v617q0 6 4 6h226q26 0 43.5 -19.5t17.5 -46.5v-1237q0 -26 -18.5 -43.5t-44.5 -17.5h-224zM180 121h43q2 0 5 3t3 7v1102q0 4 -3 7t-5 3h-43v-502h19q6 0 6 -6v-108q0 -6 -6 -6h-19v-500z" />
    <glyph glyph-name="ntilde" unicode="&#xf1;" horiz-adv-x="436" 
d="M293 1458q-40 0 -92 32t-82 32q-13 0 -26.5 -8t-30.5 -23.5t-19 -17.5q0 -2 -2 -2t-2 4v49q0 10 4 16q5 6 14 14.5t33 22.5t45 14q45 0 94.5 -30.5t71.5 -30.5q6 0 11.5 1t10 2.5t10 5t8.5 5.5t9 7t8.5 7t9.5 8.5t9 8.5q3 4 5.5 3.5t2.5 -5.5v-47q0 -15 -6 -21l-7.5 -7.5
l-9 -9t-9.5 -8.5t-12.5 -9t-13.5 -6.5t-16.5 -5t-17.5 -1.5zM61 0q-4 0 -4 6v1352q0 6 4 6h56q10 0 10 -8l127 -660h6v662q0 6 6 6h107q8 0 8 -6v-1350q0 -8 -6 -8h-58q-7 0 -10 8l-125 645h-6v-647q0 -6 -4 -6h-111z" />
    <glyph glyph-name="ograve" unicode="&#xf2;" horiz-adv-x="395" 
d="M293 1458l-219 51q-11 3 -8 11l32 84q3 9 13 4l202 -109q5 -3 2 -6l-12 -31q-3 -6 -10 -4zM113 0q-26 0 -44 17.5t-18 43.5v1237q0 27 18 46.5t44 19.5h166q26 0 44.5 -19.5t18.5 -46.5v-1237q0 -26 -18.5 -43.5t-44.5 -17.5h-166zM182 121h31q10 0 10 10v1102
q0 10 -10 10h-31q-12 0 -12 -10v-1102q0 -10 12 -10z" />
    <glyph glyph-name="oacute" unicode="&#xf3;" horiz-adv-x="395" 
d="M84 1458q-7 -2 -10 4l-13 29q-3 6 2 8l203 109q10 5 13 -4l32 -84q3 -8 -8 -11zM113 0q-26 0 -44 17.5t-18 43.5v1237q0 27 18 46.5t44 19.5h166q26 0 44.5 -19.5t18.5 -46.5v-1237q0 -26 -18.5 -43.5t-44.5 -17.5h-166zM182 121h31q10 0 10 10v1102q0 10 -10 10h-31
q-12 0 -12 -10v-1102q0 -10 12 -10z" />
    <glyph glyph-name="ocircumflex" unicode="&#xf4;" horiz-adv-x="395" 
d="M53 1454q-8 -6 -12 2l-14 23q-7 7 0 14l149 147q5 5 12 5h19q5 0 10 -5l150 -147q6 -6 0 -14l-15 -21q-3 -8 -12 -2l-143 82zM113 0q-26 0 -44 17.5t-18 43.5v1237q0 27 18 46.5t44 19.5h166q26 0 44.5 -19.5t18.5 -46.5v-1237q0 -26 -18.5 -43.5t-44.5 -17.5h-166z
M182 121h31q10 0 10 10v1102q0 10 -10 10h-31q-12 0 -12 -10v-1102q0 -10 12 -10z" />
    <glyph glyph-name="otilde" unicode="&#xf5;" horiz-adv-x="395" 
d="M272 1458q-40 0 -92 32t-82 32q-13 0 -26.5 -8t-29.5 -23.5t-19 -17.5q0 -3 -3 -2q-2 1 -2 4v49q0 8 5 16q5 6 14 14.5t33 22.5t45 14q45 0 94.5 -30.5t71.5 -30.5q8 0 15 2t12 4t13 8.5t10.5 8.5t12.5 11t12 11q3 4 6 3.5t3 -5.5v-47q0 -14 -7 -21l-7.5 -7.5l-9 -9
t-9.5 -8.5t-12.5 -9t-13.5 -6.5t-16.5 -5t-17.5 -1.5zM113 0q-26 0 -44 17.5t-18 43.5v1237q0 27 18 46.5t44 19.5h166q26 0 44.5 -19.5t18.5 -46.5v-1237q0 -26 -18.5 -43.5t-44.5 -17.5h-166zM182 121h31q10 0 10 10v1102q0 10 -10 10h-31q-12 0 -12 -10v-1102
q0 -10 12 -10z" />
    <glyph glyph-name="odieresis" unicode="&#xf6;" horiz-adv-x="395" 
d="M80 1458q-4 0 -4 6v84q0 4 4 4h84q6 0 6 -4v-84q0 -6 -6 -6h-84zM227 1458q-4 0 -4 6v84q0 4 4 4h84q6 0 6 -4v-84q0 -6 -6 -6h-84zM113 0q-26 0 -44 17.5t-18 43.5v1237q0 27 18 46.5t44 19.5h166q26 0 44.5 -19.5t18.5 -46.5v-1237q0 -26 -18.5 -43.5t-44.5 -17.5h-166
zM182 121h31q10 0 10 10v1102q0 10 -10 10h-31q-12 0 -12 -10v-1102q0 -10 12 -10z" />
    <glyph glyph-name="divide" unicode="&#xf7;" horiz-adv-x="624" 
d="M256 803q-6 0 -6 4v111q0 2 2 4t4 2h109q6 0 6 -6v-111q0 -4 -6 -4h-109zM109 621q-5 0 -5 6v108q0 6 5 6h407q4 0 4 -6v-108q0 -6 -4 -6h-407zM256 440q-2 0 -4 2t-2 4v111q0 4 6 4h109q6 0 6 -4v-111q0 -6 -6 -6h-109z" />
    <glyph glyph-name="oslash" unicode="&#xf8;" horiz-adv-x="407" 
d="M-16 0q-4 0 -4 6l75 266v1026q0 26 19 46t45 20h166q26 0 44.5 -19.5t18.5 -46.5v-10l21 70q0 6 6 6h49q4 0 4 -6l-80 -277v-1020q0 -26 -18.5 -43.5t-44.5 -17.5h-166q-27 0 -45.5 17.5t-18.5 43.5v2l-18 -57q0 -6 -4 -6h-49zM176 690l51 182v361q0 10 -8 10h-35
q-2 0 -5 -3t-3 -7v-543zM184 121h35q8 0 8 10v533l-51 -183v-350q0 -4 3 -7t5 -3z" />
    <glyph glyph-name="ugrave" unicode="&#xf9;" horiz-adv-x="397" 
d="M295 1458l-219 51q-10 3 -8 11l32 84q3 9 13 4l202 -109q5 -3 2 -6l-12 -31q-3 -6 -10 -4zM115 0q-26 0 -44 17.5t-18 43.5v1297q0 6 4 6h111q4 0 4 -6v-1227q0 -10 10 -10h33q8 0 8 10v1227q0 6 6 6h113q2 -2 2 -6v-1297q0 -26 -18.5 -43.5t-44.5 -17.5h-166z" />
    <glyph glyph-name="uacute" unicode="&#xfa;" horiz-adv-x="397" 
d="M86 1458q-7 -2 -10 4l-13 29q-3 5 3 8l202 109q10 5 13 -4l32 -84q3 -8 -8 -11zM115 0q-26 0 -44 17.5t-18 43.5v1297q0 6 4 6h111q4 0 4 -6v-1227q0 -10 10 -10h33q8 0 8 10v1227q0 6 6 6h113q2 -2 2 -6v-1297q0 -26 -18.5 -43.5t-44.5 -17.5h-166z" />
    <glyph glyph-name="ucircumflex" unicode="&#xfb;" horiz-adv-x="397" 
d="M55 1454q-8 -6 -12 2l-14 23q-7 7 0 14l149 147q5 5 12 5h19q5 0 10 -5l150 -147q6 -6 0 -14l-15 -21q-3 -8 -12 -2l-143 82zM115 0q-26 0 -44 17.5t-18 43.5v1297q0 6 4 6h111q4 0 4 -6v-1227q0 -10 10 -10h33q8 0 8 10v1227q0 6 6 6h113q2 -2 2 -6v-1297
q0 -26 -18.5 -43.5t-44.5 -17.5h-166z" />
    <glyph glyph-name="udieresis" unicode="&#xfc;" horiz-adv-x="397" 
d="M82 1458q-4 0 -4 6v84q0 4 4 4h84q6 0 6 -4v-84q0 -6 -6 -6h-84zM229 1458q-4 0 -4 6v84q0 4 4 4h84q6 0 6 -4v-84q0 -6 -6 -6h-84zM115 0q-26 0 -44 17.5t-18 43.5v1297q0 6 4 6h111q4 0 4 -6v-1227q0 -10 10 -10h33q8 0 8 10v1227q0 6 6 6h113q2 -2 2 -6v-1297
q0 -26 -18.5 -43.5t-44.5 -17.5h-166z" />
    <glyph glyph-name="yacute" unicode="&#xfd;" horiz-adv-x="376" 
d="M76 1458q-7 -2 -10 4l-13 29q-3 6 2 8l203 109q9 5 12 -4l33 -84q3 -8 -8 -11zM131 0q-4 0 -4 6v670l-119 682q0 6 6 6h111q4 0 4 -6l55 -475h4l56 475q0 6 6 6h106q9 0 9 -6l-117 -682v-670q0 -6 -6 -6h-111z" />
    <glyph glyph-name="thorn" unicode="&#xfe;" horiz-adv-x="382" 
d="M63 0q-2 2 -2 6v1352l2 6h113q4 0 4 -6v-236h109q26 0 44.5 -18.5t18.5 -44.5v-621q0 -26 -18.5 -43.5t-44.5 -17.5h-109v-371q0 -6 -4 -6h-113zM180 498h43q8 0 8 8v487q0 11 -8 11h-43v-506z" />
    <glyph glyph-name="ydieresis" unicode="&#xff;" horiz-adv-x="376" 
d="M72 1458q-4 0 -4 6v84q0 4 4 4h84q6 0 6 -4v-84q0 -6 -6 -6h-84zM219 1458q-4 0 -4 6v84q0 4 4 4h84q6 0 6 -4v-84q0 -6 -6 -6h-84zM131 0q-4 0 -4 6v670l-119 682q0 6 6 6h111q4 0 4 -6l55 -475h4l56 475q0 6 6 6h106q9 0 9 -6l-117 -682v-670q0 -6 -6 -6h-111z" />
    <glyph glyph-name="dotlessi" unicode="&#x131;" horiz-adv-x="243" 
d="M66 0q-3 0 -3 6v1352q0 6 3 6h112q4 0 4 -6v-1352q0 -6 -4 -6h-112z" />
    <glyph glyph-name="Lslash" unicode="&#x141;" horiz-adv-x="391" 
d="M74 0q-4 0 -4 6v647l-86 -35q-4 3 -4 5v110l4 2l86 35v588q0 6 4 6h110q6 0 6 -6v-543l142 57q4 0 4 -4v-106q0 -8 -4 -8l-142 -56v-577h168q4 0 4 -6v-109q0 -6 -4 -6h-284z" />
    <glyph glyph-name="lslash" unicode="&#x142;" horiz-adv-x="391" 
d="M74 0q-4 0 -4 6v647l-86 -35q-4 3 -4 5v110l4 2l86 35v588q0 6 4 6h110q6 0 6 -6v-543l142 57q4 0 4 -4v-106q0 -8 -4 -8l-142 -56v-577h168q4 0 4 -6v-109q0 -6 -4 -6h-284z" />
    <glyph glyph-name="OE" unicode="&#x152;" horiz-adv-x="552" 
d="M113 0q-26 0 -44 17.5t-18 43.5v1237q0 27 18 46.5t44 19.5h397q6 0 6 -6v-109q0 -6 -6 -6h-168v-502h168q6 0 6 -6v-108q0 -6 -6 -6h-168v-500h168q6 0 6 -6v-109q0 -6 -6 -6h-397zM182 121h41v1122h-41q-12 0 -12 -10v-1102q0 -10 12 -10z" />
    <glyph glyph-name="oe" unicode="&#x153;" horiz-adv-x="552" 
d="M113 0q-26 0 -44 17.5t-18 43.5v1237q0 27 18 46.5t44 19.5h397q6 0 6 -6v-109q0 -6 -6 -6h-168v-502h168q6 0 6 -6v-108q0 -6 -6 -6h-168v-500h168q6 0 6 -6v-109q0 -6 -6 -6h-397zM182 121h41v1122h-41q-12 0 -12 -10v-1102q0 -10 12 -10z" />
    <glyph glyph-name="Scaron" unicode="&#x160;" horiz-adv-x="362" 
d="M172 1458q-6 0 -12 6l-160 158q-2 2 -2 5t2 5l18 27q6 6 11 2l153 -88l150 86q9 3 12 0l18 -27q7 -7 0 -10l-159 -158q-3 -6 -10 -6h-21zM98 0q-26 0 -44.5 17.5t-18.5 43.5v279q0 6 4 6h111q4 0 4 -6v-209q0 -10 12 -10h31q10 0 10 10v334l-172 412v421q0 27 18.5 46.5
t44.5 19.5h164q27 0 46.5 -19.5t19.5 -46.5v-286q0 -6 -4 -6h-111q-6 0 -6 6v221q0 10 -10 10h-31q-12 0 -12 -10v-356l174 -412v-404q0 -26 -19 -43.5t-47 -17.5h-164z" />
    <glyph glyph-name="scaron" unicode="&#x161;" horiz-adv-x="362" 
d="M172 1458q-6 0 -12 6l-160 158q-2 2 -2 5t2 5l18 27q6 6 11 2l153 -88l150 86q9 3 12 0l18 -27q7 -7 0 -10l-159 -158q-3 -6 -10 -6h-21zM98 0q-26 0 -44.5 17.5t-18.5 43.5v279q0 6 4 6h111q4 0 4 -6v-209q0 -10 12 -10h31q10 0 10 10v334l-172 412v421q0 27 18.5 46.5
t44.5 19.5h164q27 0 46.5 -19.5t19.5 -46.5v-286q0 -6 -4 -6h-111q-6 0 -6 6v221q0 10 -10 10h-31q-12 0 -12 -10v-356l174 -412v-404q0 -26 -19 -43.5t-47 -17.5h-164z" />
    <glyph glyph-name="Ydieresis" unicode="&#x178;" horiz-adv-x="376" 
d="M72 1458q-4 0 -4 6v84q0 4 4 4h84q6 0 6 -4v-84q0 -6 -6 -6h-84zM219 1458q-4 0 -4 6v84q0 4 4 4h84q6 0 6 -4v-84q0 -6 -6 -6h-84zM131 0q-4 0 -4 6v670l-119 682q0 6 6 6h111q4 0 4 -6l55 -475h4l56 475q0 6 6 6h106q9 0 9 -6l-117 -682v-670q0 -6 -6 -6h-111z" />
    <glyph glyph-name="Zcaron" unicode="&#x17d;" horiz-adv-x="329" 
d="M156 1458q-7 0 -13 6l-159 158q-2 2 -2 5t2 5l18 27q5 5 10 2l154 -88l149 86q10 3 13 0l18 -27q7 -7 0 -10l-160 -158q-3 -6 -10 -6h-20zM23 0q-7 0 -7 6v115l177 1122h-168q-9 0 -9 6v109q0 6 9 6h278q6 0 6 -6v-109l-172 -1128h166q6 0 6 -6v-109q0 -6 -6 -6h-280z
" />
    <glyph glyph-name="zcaron" unicode="&#x17e;" horiz-adv-x="329" 
d="M156 1458q-7 0 -13 6l-159 158q-2 2 -2 5t2 5l18 27q5 5 10 2l154 -88l149 86q10 3 13 0l18 -27q7 -7 0 -10l-160 -158q-3 -6 -10 -6h-20zM23 0q-7 0 -7 6v115l177 1122h-168q-9 0 -9 6v109q0 6 9 6h278q6 0 6 -6v-109l-172 -1128h166q6 0 6 -6v-109q0 -6 -6 -6h-280z
" />
    <glyph glyph-name="florin" unicode="&#x192;" horiz-adv-x="403" 
d="M29 -242q-4 0 -4 6v111q0 4 4 4h55v742h-55q-4 0 -4 6v108q0 6 4 6h55v557q0 27 18.5 46.5t44.5 19.5h166q26 0 46 -20t20 -46v-286q0 -6 -6 -6h-111q-4 0 -4 6v221q0 10 -10 10h-33q-10 0 -10 -10v-492h108q4 0 4 -6v-108q0 -6 -4 -6h-108v-797q0 -27 -18 -46.5
t-44 -19.5h-114z" />
    <glyph glyph-name="circumflex" unicode="&#x2c6;" horiz-adv-x="372" 
d="M43 1454q-8 -6 -12 2l-15 23q-7 7 0 14l150 147q5 5 12 5h19q5 0 10 -5l149 -147q6 -6 0 -14l-14 -21q-3 -8 -12 -2l-144 82z" />
    <glyph glyph-name="caron" unicode="&#x2c7;" horiz-adv-x="393" 
d="M186 1458q-6 0 -12 6l-160 158q-2 2 -2 5t2 5l19 27q5 5 10 2l154 -88l149 86q9 3 12 0l19 -27q7 -7 0 -10l-160 -158q-3 -6 -10 -6h-21z" />
    <glyph glyph-name="breve" unicode="&#x2d8;" horiz-adv-x="360" 
d="M180 1458q-27 0 -39 6q-52 12 -127 92q-2 2 -2 6t2 5l45 65q0 8 9 4q10 -12 25 -25.5t41 -28.5t46 -15q29 0 61.5 24t51.5 45q6 3 8 -4l45 -65q2 -1 2 -5t-2 -6l-13 -13l-16 -16t-16 -15t-19 -16t-19 -13t-22 -12t-22 -7q-12 -6 -39 -6z" />
    <glyph glyph-name="dotaccent" unicode="&#x2d9;" horiz-adv-x="319" 
d="M90 1460q-4 0 -4 6v138q0 4 4 4h137q6 0 6 -4v-138q0 -2 -2.5 -4t-3.5 -2h-137z" />
    <glyph glyph-name="ring" unicode="&#x2da;" horiz-adv-x="280" 
d="M139 1411q-52 0 -89.5 37t-37.5 88q0 54 37 91.5t90 37.5q54 0 91.5 -37.5t37.5 -91.5q0 -51 -37.5 -88t-91.5 -37zM139 1477q28 0 46 17t18 42q0 28 -18 45.5t-46 17.5q-26 0 -43.5 -17.5t-17.5 -45.5q0 -25 17.5 -42t43.5 -17z" />
    <glyph glyph-name="ogonek" unicode="&#x2db;" horiz-adv-x="229" 
d="M49 -285q-25 0 -34 11.5t-9 33.5v123q0 38 43 60l68 37v30h94v-47q0 -18 -7 -29.5t-14.5 -16.5t-27.5 -15l-51 -25v-78h102q10 0 10 -8v-65q0 -11 -10 -11h-164z" />
    <glyph glyph-name="tilde" unicode="&#x2dc;" horiz-adv-x="385" 
d="M272 1458q-40 0 -92 32t-82 32q-13 0 -26.5 -8t-29.5 -23.5t-19 -17.5q0 -3 -3 -2q-2 1 -2 4v49q0 8 5 16q5 6 14 14.5t33 22.5t45 14q45 0 94.5 -30.5t71.5 -30.5q8 0 15 2t12 4t13 8.5t10.5 8.5t12.5 11t12 11q3 4 6 3.5t3 -5.5v-47q0 -14 -7 -21l-7.5 -7.5l-9 -9
t-9.5 -8.5t-12.5 -9t-13.5 -6.5t-16.5 -5t-17.5 -1.5z" />
    <glyph glyph-name="hungarumlaut" unicode="&#x2dd;" horiz-adv-x="532" 
d="M27 1458q-1 -1 -4 -0.5t-3 2.5l-12 35q-3 3 2 8l189 115q4 8 4 -2l37 -92q0 -4 -2 -8zM309 1458q-6 -3 -6 2l-12 35q-4 2 2 8l186 115q1 3 3.5 1.5t2.5 -3.5l37 -92q0 -4 -2 -8z" />
    <glyph glyph-name="uni05B0" unicode="&#x5b0;" horiz-adv-x="0" 
d="M-51 -225q-4 0 -4 4v104q0 4 4 4h102q4 0 4 -4v-104q0 -4 -4 -4h-102zM-51 -426q-4 0 -4 4v105q0 4 4 4h102q4 0 4 -4v-105q0 -4 -4 -4h-102z" />
    <glyph glyph-name="uni05B1" unicode="&#x5b1;" horiz-adv-x="0" 
d="M-227 -225q-4 0 -4 4v104q0 4 4 4h102q6 0 6 -4v-104q0 -4 -6 -4h-102zM-61 -225q-5 0 -5 4v104q0 4 5 4h102q4 0 4 -4v-104q0 -4 -4 -4h-102zM125 -225q-4 0 -4 4v104q0 4 4 4h102q4 0 4 -4v-104q0 -4 -4 -4h-102zM-139 -389q-6 0 -6 4v104q0 5 6 5h102q4 0 4 -5v-104
q0 -4 -4 -4h-102zM125 -389q-4 0 -4 4v104q0 5 4 5h102q4 0 4 -5v-104q0 -4 -4 -4h-102z" />
    <glyph glyph-name="uni05B2" unicode="&#x5b2;" horiz-adv-x="0" 
d="M-197 -225q-4 0 -4 4v104q0 4 4 4h228q4 0 4 -4v-104q0 -4 -4 -4h-228zM94 -225q-4 0 -4 4v104q0 4 4 4h103q4 0 4 -4v-104q0 -4 -4 -4h-103zM94 -389q-4 0 -4 4v104q0 5 4 5h103q4 0 4 -5v-104q0 -4 -4 -4h-103z" />
    <glyph glyph-name="uni05B3" unicode="&#x5b3;" horiz-adv-x="0" 
d="M-137 -387q-4 0 -4 4v109l14 49h-94q-4 0 -4 4v104q0 4 4 4h268q4 0 4 -4v-104q0 -4 -4 -4h-92l14 -49v-109q0 -4 -4 -4h-102zM119 -225q-4 0 -4 4v104q0 4 4 4h102q4 0 4 -4v-104q0 -4 -4 -4h-102zM119 -389q-4 0 -4 4v104q0 5 4 5h102q4 0 4 -5v-104q0 -4 -4 -4h-102z
" />
    <glyph glyph-name="uni05B4" unicode="&#x5b4;" horiz-adv-x="0" 
d="M-51 -225q-4 0 -4 4v104q0 4 4 4h102q4 0 4 -4v-104q0 -4 -4 -4h-102z" />
    <glyph glyph-name="uni05B5" unicode="&#x5b5;" horiz-adv-x="0" 
d="M-135 -225q-4 0 -4 4v104q0 4 4 4h102q6 0 6 -4v-104q0 -4 -6 -4h-102zM33 -225q-4 0 -4 4v104q0 4 4 4h102q4 0 4 -4v-104q0 -4 -4 -4h-102z" />
    <glyph glyph-name="uni05B6" unicode="&#x5b6;" horiz-adv-x="0" 
d="M-135 -225q-4 0 -4 4v104q0 4 4 4h102q6 0 6 -4v-104q0 -4 -6 -4h-102zM33 -225q-4 0 -4 4v104q0 4 4 4h102q4 0 4 -4v-104q0 -4 -4 -4h-102zM-47 -389q-6 0 -6 4v104q0 5 6 5h104q4 0 4 -5v-104q0 -4 -4 -4h-104z" />
    <glyph glyph-name="uni05B7" unicode="&#x5b7;" horiz-adv-x="0" 
d="M-135 -225q-4 0 -4 4v104q0 4 4 4h270q4 0 4 -4v-104q0 -4 -4 -4h-270z" />
    <glyph glyph-name="uni05B8" unicode="&#x5b8;" horiz-adv-x="0" 
d="M-51 -387q-4 0 -4 4v109l14 49h-94q-4 0 -4 4v104q0 4 4 4h270q4 0 4 -4v-104q0 -4 -4 -4h-92l14 -49v-109q0 -4 -4 -4h-104z" />
    <glyph glyph-name="uni05B9" unicode="&#x5b9;" horiz-adv-x="0" 
d="M-51 1477q-4 0 -4 4v104q0 4 4 4h102q4 0 4 -4v-104q0 -4 -4 -4h-102z" />
    <glyph glyph-name="uni05BA" unicode="&#x5ba;" horiz-adv-x="0" 
d="M-51 1477q-4 0 -4 4v104q0 4 4 4h102q4 0 4 -4v-104q0 -4 -4 -4h-102z" />
    <glyph glyph-name="uni05BB" unicode="&#x5bb;" horiz-adv-x="0" 
d="M-199 -225q-4 0 -4 4v104l4 4h103q4 0 4 -4v-104q0 -4 -4 -4h-103zM-51 -289q-4 0 -4 4v105l4 4h102q4 0 4 -4v-105q0 -4 -4 -4h-102zM96 -352q-4 0 -4 4v104l4 4h103q4 0 4 -4v-104q0 -4 -4 -4h-103z" />
    <glyph glyph-name="uni05BC" unicode="&#x5bc;" horiz-adv-x="0" 
d="M-51 670q-4 0 -4 4v104l4 4h102q4 0 4 -4v-104q0 -4 -4 -4h-102z" />
    <glyph glyph-name="uni05BE" unicode="&#x5be;" horiz-adv-x="382" 
d="M49 1243q-4 0 -4 6v109q0 6 4 6h285q4 0 4 -6v-109q0 -6 -4 -6h-285z" />
    <glyph glyph-name="uni05BF" unicode="&#x5bf;" horiz-adv-x="0" 
d="M-115 1477q-4 0 -4 4v104q0 4 4 4h230q4 0 4 -4v-104q0 -4 -4 -4h-230z" />
    <glyph glyph-name="uni05C1" unicode="&#x5c1;" horiz-adv-x="0" 
d="M-51 1477q-4 0 -4 4v104q0 4 4 4h102q4 0 4 -4v-104q0 -4 -4 -4h-102z" />
    <glyph glyph-name="uni05C2" unicode="&#x5c2;" horiz-adv-x="0" 
d="M-51 1477q-4 0 -4 4v104q0 4 4 4h102q4 0 4 -4v-104q0 -4 -4 -4h-102z" />
    <glyph glyph-name="uni05C7" unicode="&#x5c7;" horiz-adv-x="0" 
d="M-51 -387q-4 0 -4 4v109l14 49h-94q-4 0 -4 4v104q0 4 4 4h270q4 0 4 -4v-104q0 -4 -4 -4h-92l14 -49v-109q0 -4 -4 -4h-104z" />
    <glyph glyph-name="uni05D0" unicode="&#x5d0;" horiz-adv-x="425" 
d="M289 602l96 -485v-105q0 -12 -12 -12h-94q-13 0 -13 12v105l-100 506l-8 -11v-491h37q12 0 12 -12v-97q0 -12 -12 -12h-142q-12 0 -12 12v588q0 14 6 23l84 176l-90 446v107q0 12 12 12h94q13 0 13 -12v-107l94 -467l8 19v446h-33q-12 0 -12 12v97q0 12 12 12h76
q74 0 74 -74v-481q0 -14 -6 -23z" />
    <glyph glyph-name="uni05D1" unicode="&#x5d1;" horiz-adv-x="382" 
d="M45 0q-12 0 -12 12v97q0 12 12 12h131v1122h-131q-12 0 -12 12v97q0 12 12 12h178q74 0 74 -74v-1169h41q12 0 12 -12v-97q0 -12 -12 -12h-293z" />
    <glyph glyph-name="uni05D2" unicode="&#x5d2;" horiz-adv-x="356" 
d="M27 0q-12 0 -9 12l35 97q3 12 17 12h149l-96 1122h-31q-12 0 -12 12v97q0 12 12 12h72q74 0 80 -74l96 -1169v-109q0 -12 -12 -12h-97q-12 0 -12 12v84l-33 -84q-3 -12 -16 -12h-143z" />
    <glyph glyph-name="uni05D3" unicode="&#x5d3;" horiz-adv-x="391" 
d="M195 0q-13 0 -13 12v1231h-162q-12 0 -12 12v97q0 12 12 12h326q12 0 12 -12v-97q0 -12 -12 -12h-43v-1231q0 -12 -12 -12h-96z" />
    <glyph glyph-name="uni05D4" unicode="&#x5d4;" horiz-adv-x="397" 
d="M236 0q-13 0 -13 12v1231h-157q-13 0 -13 12v97q0 12 13 12h204q74 0 74 -74v-1278q0 -12 -12 -12h-96zM66 0q-13 0 -13 12v969q0 12 13 12h94q12 0 12 -12v-969q0 -12 -12 -12h-94z" />
    <glyph glyph-name="uni05D5" unicode="&#x5d5;" horiz-adv-x="249" 
d="M92 0q-12 0 -12 12v1231h-35q-12 0 -12 12v97q0 12 12 12h78q74 0 74 -74v-1278q0 -12 -13 -12h-92z" />
    <glyph glyph-name="uni05D6" unicode="&#x5d6;" horiz-adv-x="323" 
d="M199 0q-13 0 -13 12v109l-88 1050v72h-78q-12 0 -12 12v97q0 12 12 12h275q12 0 12 -12v-97q0 -12 -12 -12h-78v-72l90 -1050v-109q0 -12 -12 -12h-96z" />
    <glyph glyph-name="uni05D7" unicode="&#x5d7;" horiz-adv-x="397" 
d="M66 0q-13 0 -13 12v1147q0 14 6 23l45 61h-38q-13 0 -13 12v97q0 12 13 12h204q74 0 74 -74v-1278q0 -12 -12 -12h-96q-13 0 -13 12v1231h-51v-1231q0 -12 -12 -12h-94z" />
    <glyph glyph-name="uni05D8" unicode="&#x5d8;" 
d="M186 -12q-58 0 -98.5 41t-40.5 100v1223q0 12 12 12h95q12 0 12 -12v-1219q0 -12 6.5 -19.5t17.5 -7.5h19q11 0 17.5 7.5t6.5 19.5v1110h-22q-12 0 -12 12v97q0 12 12 12h131q12 0 12 -12v-1223q0 -59 -40.5 -100t-98.5 -41h-29z" />
    <glyph glyph-name="uni05D9" unicode="&#x5d9;" horiz-adv-x="215" 
d="M78 674q-12 0 -12 12v557h-33q-13 0 -13 12v97q0 12 13 12h76q73 0 73 -74v-604q0 -12 -12 -12h-92z" />
    <glyph glyph-name="uni05DA" unicode="&#x5da;" horiz-adv-x="352" 
d="M193 -211q-13 0 -13 12v1442h-160q-12 0 -12 12v97q0 12 12 12h205q74 0 74 -74v-1489q0 -12 -12 -12h-94z" />
    <glyph glyph-name="uni05DB" unicode="&#x5db;" horiz-adv-x="374" 
d="M45 0q-12 0 -12 12v97q0 12 12 12h137q11 0 18 7t7 17v1098h-162q-12 0 -12 12v97q0 12 12 12h209q74 0 74 -74v-1151q0 -58 -41.5 -98.5t-100.5 -40.5h-141z" />
    <glyph glyph-name="uni05DC" unicode="&#x5dc;" horiz-adv-x="372" 
d="M45 0q-12 0 -12 12v97q0 12 12 12h135q11 0 18 7t7 17v1098h-160q-12 0 -12 12v183q0 12 12 12h96q13 0 13 -12v-74h159q13 0 13 -12v-1213q0 -58 -40.5 -98.5t-99.5 -40.5h-141z" />
    <glyph glyph-name="uni05DD" unicode="&#x5dd;" horiz-adv-x="397" 
d="M66 0q-13 0 -13 12v1340q0 12 13 12h204q74 0 74 -74v-1278q0 -12 -12 -12h-266zM172 121h51v1122h-51v-1122z" />
    <glyph glyph-name="uni05DE" unicode="&#x5de;" horiz-adv-x="436" 
d="M94 0q-12 0 -12 12v1231h-33q-12 0 -12 12v97q0 12 12 12h53q20 0 29.5 -12t9.5 -25v-6h2q8 21 35.5 38t61.5 17h10q58 0 98.5 -41t40.5 -100v-1223q0 -12 -12 -12h-127q-12 0 -12 12v97q0 12 12 12h18v1108q0 26 -24 26h-19q-26 0 -26 -26v-1217q0 -12 -13 -12h-92z" />
    <glyph glyph-name="uni05DF" unicode="&#x5df;" horiz-adv-x="256" 
d="M94 -211q-12 0 -12 12v1442h-62q-12 0 -12 12v97q0 12 12 12h170q13 0 13 -12v-1551q0 -12 -13 -12h-96z" />
    <glyph glyph-name="uni05E0" unicode="&#x5e0;" horiz-adv-x="280" 
d="M45 0q-12 0 -12 12v97q0 12 12 12h61v1122h-40q-13 0 -13 12v97q0 12 13 12h88q73 0 73 -74v-1216q0 -74 -73 -74h-109z" />
    <glyph glyph-name="uni05E1" unicode="&#x5e1;" horiz-adv-x="385" 
d="M186 -12q-58 0 -98.5 41t-40.5 100v1030q0 14 6 23l45 61h-39q-12 0 -12 12v97q0 12 12 12h205q74 0 74 -74v-1161q0 -59 -40.5 -100t-98.5 -41h-13zM190 106h5q22 0 22 27v1110h-51v-1110q0 -12 6.5 -19.5t17.5 -7.5z" />
    <glyph glyph-name="uni05E2" unicode="&#x5e2;" horiz-adv-x="430" 
d="M45 0q-12 0 -12 12v97q0 12 12 12h33v1122h-33q-12 0 -12 12v97q0 12 12 12h76q74 0 74 -74v-1169h61v1122h-25q-12 0 -12 12v97q0 12 12 12h72q74 0 74 -74v-1200q0 -37 -26.5 -63.5t-61.5 -26.5h-244z" />
    <glyph glyph-name="uni05E3" unicode="&#x5e3;" horiz-adv-x="399" 
d="M238 -211q-13 0 -13 12v1442h-65v-448h24q13 0 13 -13v-96q0 -12 -13 -12h-69q-74 0 -74 74v411q0 14 6 23l45 61h-39q-12 0 -12 12v97q0 12 12 12h219q74 0 74 -74v-1489q0 -12 -12 -12h-96z" />
    <glyph glyph-name="uni05E4" unicode="&#x5e4;" horiz-adv-x="399" 
d="M53 0q-12 0 -12 12v97q0 12 12 12h172v1122h-65v-448h28q13 0 13 -13v-96q0 -12 -13 -12h-73q-74 0 -74 74v411q0 15 8 23l45 61h-41q-12 0 -12 12v97q0 12 12 12h219q74 0 74 -74v-1216q0 -74 -74 -74h-219z" />
    <glyph glyph-name="uni05E5" unicode="&#x5e5;" horiz-adv-x="370" 
d="M63 -209q-12 0 -12 12v1440h-31q-12 0 -12 12v97q0 12 12 12h76q74 0 74 -74v-450h2q8 0 20.5 11.5t24.5 42.5t12 73v276h-30q-13 0 -13 12v97q0 12 13 12h77q74 0 74 -74v-323q0 -61 -15.5 -110.5t-36 -78.5t-48.5 -51t-45.5 -30t-34.5 -13v-881q0 -12 -12 -12h-95z" />
    <glyph glyph-name="uni05E6" unicode="&#x5e6;" horiz-adv-x="405" 
d="M385 1290v-205l-121 -378l121 -590v-105q0 -12 -12 -12h-328q-12 0 -12 12v92q0 13 12 13h219l-184 925v201h-35q-12 0 -12 12v97q0 12 12 12h78q74 0 74 -74v-256l20 -104h6l41 131v182h-28q-13 0 -13 12v97q0 12 13 12h75q74 0 74 -74z" />
    <glyph glyph-name="uni05E7" unicode="&#x5e7;" horiz-adv-x="407" 
d="M217 0q-12 0 -12 12v97q0 12 12 12h-2q9 0 17 7t8 17v1098h-174q-13 0 -13 12v97q0 12 13 12h282q12 0 12 -12v-1213q0 -58 -41 -98.5t-100 -40.5h-2zM66 -211q-13 0 -13 12v1184q0 12 13 12h94q12 0 12 -12v-1184q0 -12 -12 -12h-94z" />
    <glyph glyph-name="uni05E8" unicode="&#x5e8;" horiz-adv-x="352" 
d="M193 0q-13 0 -13 12v1231h-160q-12 0 -12 12v97q0 12 12 12h205q74 0 74 -74v-1278q0 -12 -12 -12h-94z" />
    <glyph glyph-name="uni05E9" unicode="&#x5e9;" horiz-adv-x="608" 
d="M90 0q-12 0 -12 12v1231h-33q-12 0 -12 12v97q0 12 12 12h76q74 0 74 -74v-1169h61v1122h-25q-12 0 -12 12v97q0 12 12 12h72q74 0 74 -74v-1169h59v1122h-28q-13 0 -13 12v97q0 12 13 12h73q74 0 74 -74v-1200q0 -37 -25.5 -63.5t-62.5 -26.5h-377z" />
    <glyph glyph-name="uni05EA" unicode="&#x5ea;" horiz-adv-x="413" 
d="M45 0q-12 0 -12 12v97q0 12 12 12h23v1038q0 15 8 23l45 61h-76q-12 0 -12 12v97q0 12 12 12h242q73 0 73 -74v-1278q0 -12 -12 -12h-96q-12 0 -12 12v1231h-54v-1231q0 -12 -12 -12h-129z" />
    <glyph glyph-name="uni05F3" unicode="&#x5f3;" horiz-adv-x="200" 
d="M76 1090q-6 0 -6 4l16 118h-41q-4 0 -4 7v139q0 6 4 6h111q4 0 4 -6v-139l-45 -125q0 -4 -4 -4h-35z" />
    <glyph glyph-name="uni05F4" unicode="&#x5f4;" horiz-adv-x="374" 
d="M76 1090q-6 0 -6 4l16 118h-41q-4 0 -4 7v139q0 6 4 6h111q4 0 4 -6v-139l-45 -125q0 -4 -4 -4h-35zM248 1090q-4 0 -4 4l16 118h-41q-6 0 -6 7v139q0 6 6 6h111q4 0 4 -6v-139l-45 -125q0 -4 -6 -4h-35z" />
    <glyph glyph-name="uni2010" unicode="&#x2010;" horiz-adv-x="520" 
d="M57 621q-4 0 -4 6v108q0 6 4 6h406q4 0 4 -6v-108q0 -6 -4 -6h-406z" />
    <glyph glyph-name="endash" unicode="&#x2013;" horiz-adv-x="665" 
d="M131 621q-4 0 -4 6v108q0 6 4 6h408q2 0 2 -6v-108q0 -6 -2 -6h-408z" />
    <glyph glyph-name="emdash" unicode="&#x2014;" horiz-adv-x="837" 
d="M131 621q-4 0 -4 6v108q0 6 4 6h576q6 0 6 -6v-108q0 -6 -6 -6h-576z" />
    <glyph glyph-name="quoteleft" unicode="&#x2018;" horiz-adv-x="376" 
d="M45 1090q-4 0 -4 4v137l45 127q0 6 4 6h35q6 0 6 -6l-16 -119h41q4 0 4 -6v-139q0 -4 -4 -4h-111zM221 1090q-4 0 -4 4v137l43 127q0 6 4 6h35q6 0 6 -6l-14 -119h41q4 0 4 -6v-139q0 -4 -4 -4h-111z" />
    <glyph glyph-name="quoteright" unicode="&#x2019;" horiz-adv-x="374" 
d="M76 1090q-6 0 -6 4l16 118h-41q-4 0 -4 7v139q0 6 4 6h111q4 0 4 -6v-139l-45 -125q0 -4 -4 -4h-35zM248 1090q-4 0 -4 4l16 118h-41q-6 0 -6 7v139q0 6 6 6h111q4 0 4 -6v-139l-45 -125q0 -4 -6 -4h-35z" />
    <glyph glyph-name="quotesinglbase" unicode="&#x201a;" horiz-adv-x="200" 
d="M76 -125q-6 0 -6 4l16 121h-41q-4 0 -4 6v137q0 7 4 7h111q4 0 4 -7v-137l-45 -127q0 -4 -4 -4h-35z" />
    <glyph glyph-name="quotedblleft" unicode="&#x201c;" horiz-adv-x="200" 
d="M45 1090q-4 0 -4 4v137l45 127q0 6 4 6h35q6 0 6 -6l-16 -119h41q4 0 4 -6v-139q0 -4 -4 -4h-111z" />
    <glyph glyph-name="quotedblright" unicode="&#x201d;" horiz-adv-x="200" 
d="M76 1090q-6 0 -6 4l16 118h-41q-4 0 -4 7v139q0 6 4 6h111q4 0 4 -6v-139l-45 -125q0 -4 -4 -4h-35z" />
    <glyph glyph-name="quotedblbase" unicode="&#x201e;" horiz-adv-x="374" 
d="M76 -125q-6 0 -6 4l16 121h-41q-4 0 -4 6v137q0 7 4 7h111q4 0 4 -7v-137l-45 -127q0 -4 -4 -4h-35zM248 -125q-4 0 -4 4l16 121h-41q-6 0 -6 6v137q0 2 2.5 4.5t3.5 2.5h111q4 0 4 -7v-137l-45 -127q0 -4 -6 -4h-35z" />
    <glyph glyph-name="dagger" unicode="&#x2020;" horiz-adv-x="319" 
d="M104 -121q-2 0 -4 2.5t-2 3.5v1049h-80q-4 0 -4 2v113q0 4 4 4h80v305q0 6 6 6h111q4 0 4 -6v-305h84q2 -2 2 -4v-113l-2 -2h-84v-1049q0 -6 -4 -6h-111z" />
    <glyph glyph-name="daggerdbl" unicode="&#x2021;" horiz-adv-x="319" 
d="M104 -121q-2 0 -2 6v736h-84q-4 0 -4 6v108q0 6 4 6h84v193h-84q-4 0 -4 2v113q0 4 4 4h84v305q0 6 2 6h111q4 0 4 -6v-305h84q2 -2 2 -4v-113l-2 -2h-84v-193h84q2 -2 2 -6v-108l-2 -6h-84v-736q0 -6 -4 -6h-111z" />
    <glyph glyph-name="bullet" unicode="&#x2022;" horiz-adv-x="258" 
d="M29 602q-4 0 -4 8v193q0 10 4 10h194q10 0 10 -10v-193q0 -8 -10 -8h-194z" />
    <glyph glyph-name="ellipsis" unicode="&#x2026;" horiz-adv-x="548" 
d="M45 0q-4 0 -4 6v137q0 7 4 7h111q4 0 4 -7v-137q0 -6 -4 -6h-111zM219 0q-6 0 -6 6v137q0 2 2.5 4.5t3.5 2.5h111q4 0 4 -7v-137q0 -6 -4 -6h-111zM391 0q-6 0 -6 6v137q0 7 6 7h111q4 0 4 -7v-137q0 -6 -4 -6h-111z" />
    <glyph glyph-name="perthousand" unicode="&#x2030;" horiz-adv-x="845" 
d="M131 707q-42 0 -70 29t-28 71v463q0 43 28 72.5t70 29.5h8q40 0 68.5 -29.5t28.5 -72.5v-463q0 -41 -28.5 -70.5t-68.5 -29.5h-8zM178 0q-5 0 -2 6l160 1352q0 6 6 6h80q7 0 4 -6l-162 -1352q0 -6 -6 -6h-80zM133 793h2q17 0 17 18v457q0 7 -5.5 12.5t-11.5 5.5h-2
q-7 0 -12.5 -5t-5.5 -13v-457q0 -18 18 -18zM463 -8q-40 0 -68 29.5t-28 72.5v463q0 41 28 69.5t68 28.5h8q41 0 69.5 -28.5t28.5 -69.5v-463q0 -43 -28.5 -72.5t-69.5 -29.5h-8zM707 -8q-41 0 -69 29.5t-28 72.5v463q0 41 28 69.5t69 28.5h8q41 0 69.5 -28.5t28.5 -69.5
v-463q0 -43 -28.5 -72.5t-69.5 -29.5h-8zM465 78h2q18 0 18 18v457q0 18 -18 18h-2q-16 0 -16 -18v-457q0 -7 5 -12.5t11 -5.5zM709 78h2q7 0 12.5 5t5.5 13v457q0 18 -18 18h-2q-17 0 -17 -18v-457q0 -7 5.5 -12.5t11.5 -5.5z" />
    <glyph glyph-name="guilsinglleft" unicode="&#x2039;" horiz-adv-x="303" 
d="M197 332q-3 0 -11 4l-157 319q-5 12 0 27l157 313q8 4 11 4h65q6 0 6.5 -2t-2.5 -4l-119 -323l119 -332q5 -3 1 -5q-1 -1 -5 -1h-65z" />
    <glyph glyph-name="guilsinglright" unicode="&#x203a;" horiz-adv-x="305" 
d="M39 332q-6 0 -6.5 2t2.5 4l119 332l-119 323q-5 3 -1 5q1 1 5 1h65q7 0 11 -4l157 -313q7 -15 0 -27l-157 -319q-4 -4 -11 -4h-65z" />
    <glyph glyph-name="uni20AA" unicode="&#x20aa;" horiz-adv-x="761" 
d="M66 0q-3 0 -3 6v1352q0 6 3 6h403q25 0 43 -20t18 -46v-1054q0 -6 -4 -6h-110q-2 0 -4 2t-2 4v999h-228v-1237q0 -6 -4 -6h-112zM233 0q-4 0 -4 6v1112q0 4 4 4h111q6 0 6 -4v-997h238v1122h-37q-6 0 -6 6v109q0 6 6 6h98q26 0 43 -19.5t17 -46.5v-1208
q0 -37 -26.5 -63.5t-61.5 -26.5h-388z" />
    <glyph glyph-name="Euro" unicode="&#x20ac;" horiz-adv-x="450" 
d="M270 0q-57 0 -98 40.5t-41 98.5v436h-115q-4 0 -4 3l13 96q0 6 6 6h100v61h-82q-6 0 -6 4l14 97q0 6 4 6h70v375q0 58 41 99.5t98 41.5h148q4 0 4 -8v-107q0 -6 -4 -6h-142q-10 0 -18 -7.5t-8 -18.5v-369h170q5 0 2 -6l-12 -97q0 -4 -4 -4h-156v-61h137q4 0 4 -6l-14 -96
q0 -3 -4 -3h-123v-430q0 -10 7.5 -17t18.5 -7h142q4 0 4 -6v-109q0 -6 -4 -6h-148z" />
    <glyph glyph-name="trademark" unicode="&#x2122;" horiz-adv-x="567" 
d="M84 711q-4 0 -4 4v567h-55q-2 0 -2 2v78q0 2 2 2h270q2 0 2 -2l65 -258h3l63 258q0 2 6 2h76q2 0 2 -2v-647q0 -4 -2 -4h-76q-6 0 -6 4v366h-2l-35 -198l-2 -6h-55q-2 4 -2 6l-33 198h-2v-366l-2 -4h-78q-2 0 -2 4v567h-51v-567l-2 -4h-78z" />
    <glyph glyph-name="minus" unicode="&#x2212;" horiz-adv-x="520" 
d="M57 621q-4 0 -4 6v108q0 6 4 6h406q4 0 4 -6v-108q0 -6 -4 -6h-406z" />
    <glyph glyph-name="uniFB2A" unicode="&#xfb2a;" horiz-adv-x="608" 
d="M457 1477q-4 0 -4 4v104q0 4 4 4h102q4 0 4 -4v-104q0 -4 -4 -4h-102zM90 0q-12 0 -12 12v1231h-33q-12 0 -12 12v97q0 12 12 12h76q74 0 74 -74v-1169h61v1122h-25q-12 0 -12 12v97q0 12 12 12h72q74 0 74 -74v-1169h59v1122h-28q-13 0 -13 12v97q0 12 13 12h73
q74 0 74 -74v-1200q0 -37 -25.5 -63.5t-62.5 -26.5h-377z" />
    <glyph glyph-name="uniFB2B" unicode="&#xfb2b;" horiz-adv-x="608" 
d="M31 1477q-4 0 -4 4v104q0 4 4 4h102q4 0 4 -4v-104q0 -4 -4 -4h-102zM90 0q-12 0 -12 12v1231h-33q-12 0 -12 12v97q0 12 12 12h76q74 0 74 -74v-1169h61v1122h-25q-12 0 -12 12v97q0 12 12 12h72q74 0 74 -74v-1169h59v1122h-28q-13 0 -13 12v97q0 12 13 12h73
q74 0 74 -74v-1200q0 -37 -25.5 -63.5t-62.5 -26.5h-377z" />
    <glyph glyph-name="uniFB2C" unicode="&#xfb2c;" horiz-adv-x="608" 
d="M457 1477q-4 0 -4 4v104q0 4 4 4h102q4 0 4 -4v-104q0 -4 -4 -4h-102zM90 0q-12 0 -12 12v1231h-33q-12 0 -12 12v97q0 12 12 12h76q74 0 74 -74v-1169h61v1122h-25q-12 0 -12 12v97q0 12 12 12h72q74 0 74 -74v-1169h59v1122h-28q-13 0 -13 12v97q0 12 13 12h73
q74 0 74 -74v-1200q0 -37 -25.5 -63.5t-62.5 -26.5h-377zM389 662v2v36v2h37v-2v-36v-2h-37z" />
    <glyph glyph-name="uniFB2D" unicode="&#xfb2d;" horiz-adv-x="608" 
d="M31 1477q-4 0 -4 4v104q0 4 4 4h102q4 0 4 -4v-104q0 -4 -4 -4h-102zM90 0q-12 0 -12 12v1231h-33q-12 0 -12 12v97q0 12 12 12h76q74 0 74 -74v-1169h61v1122h-25q-12 0 -12 12v97q0 12 12 12h72q74 0 74 -74v-1169h59v1122h-28q-13 0 -13 12v97q0 12 13 12h73
q74 0 74 -74v-1200q0 -37 -25.5 -63.5t-62.5 -26.5h-377zM389 662v2v36v2h37v-2v-36v-2h-37z" />
    <glyph glyph-name="uniFB2E" unicode="&#xfb2e;" horiz-adv-x="425" 
d="M289 602l96 -485v-105q0 -12 -12 -12h-94q-13 0 -13 12v105l-100 506l-8 -11v-491h37q12 0 12 -12v-97q0 -12 -12 -12h-142q-12 0 -12 12v588q0 14 6 23l84 176l-90 446v107q0 12 12 12h94q13 0 13 -12v-107l94 -467l8 19v446h-33q-12 0 -12 12v97q0 12 12 12h76
q74 0 74 -74v-481q0 -14 -6 -23zM367 -113q4 0 4 -4v-104q0 -4 -4 -4h-271q-4 0 -4 4v104q0 4 4 4h271z" />
    <glyph glyph-name="uniFB2F" unicode="&#xfb2f;" horiz-adv-x="425" 
d="M289 602l96 -485v-105q0 -12 -12 -12h-94q-13 0 -13 12v105l-100 506l-8 -11v-491h37q12 0 12 -12v-97q0 -12 -12 -12h-142q-12 0 -12 12v588q0 14 6 23l84 176l-90 446v107q0 12 12 12h94q13 0 13 -12v-107l94 -467l8 19v446h-33q-12 0 -12 12v97q0 12 12 12h76
q74 0 74 -74v-481q0 -14 -6 -23zM367 -113q4 0 4 -4v-104q0 -4 -4 -4h-93l15 -49v-109q0 -4 -4 -4h-105q-4 0 -4 4v109l14 49h-94q-4 0 -4 4v104q0 4 4 4h271z" />
    <glyph glyph-name="uniFB30" unicode="&#xfb30;" horiz-adv-x="425" 
d="M289 602l96 -485v-105q0 -12 -12 -12h-94q-13 0 -13 12v105l-100 506l-8 -11v-491h37q12 0 12 -12v-97q0 -12 -12 -12h-142q-12 0 -12 12v588q0 14 6 23l84 176l-90 446v107q0 12 12 12h94q13 0 13 -12v-107l94 -467l8 19v446h-33q-12 0 -12 12v97q0 12 12 12h76
q74 0 74 -74v-481q0 -14 -6 -23zM180 270v2h37v-2v-37v-2h-37v2v37z" />
    <glyph glyph-name="uniFB31" unicode="&#xfb31;" horiz-adv-x="382" 
d="M45 0q-12 0 -12 12v97q0 12 12 12h131v1122h-131q-12 0 -12 12v97q0 12 12 12h178q74 0 74 -74v-1169h41q12 0 12 -12v-97q0 -12 -12 -12h-293zM35 625q-4 0 -4 4v104l4 4h102q4 0 4 -4v-104q0 -4 -4 -4h-102z" />
    <glyph glyph-name="uniFB32" unicode="&#xfb32;" horiz-adv-x="356" 
d="M27 0q-12 0 -9 12l35 97q3 12 17 12h149l-96 1122h-31q-12 0 -12 12v97q0 12 12 12h72q74 0 80 -74l96 -1169v-109q0 -12 -12 -12h-97q-12 0 -12 12v84l-33 -84q-3 -12 -16 -12h-143zM14 625q-4 0 -4 4v104l4 4h103q4 0 4 -4v-104q0 -4 -4 -4h-103z" />
    <glyph glyph-name="uniFB33" unicode="&#xfb33;" horiz-adv-x="391" 
d="M195 0q-13 0 -13 12v1231h-162q-12 0 -12 12v97q0 12 12 12h326q12 0 12 -12v-97q0 -12 -12 -12h-43v-1231q0 -12 -12 -12h-96zM0 625q-4 0 -4 4v104l4 4h102q4 0 4 -4v-104q0 -4 -4 -4h-102z" />
    <glyph glyph-name="uniFB34" unicode="&#xfb34;" horiz-adv-x="397" 
d="M236 0q-13 0 -13 12v1231h-157q-13 0 -13 12v97q0 12 13 12h204q74 0 74 -74v-1278q0 -12 -12 -12h-96zM66 0q-13 0 -13 12v969q0 12 13 12h94q12 0 12 -12v-969q0 -12 -12 -12h-94zM184 668v2v26v2h29v-2v-26v-2h-29z" />
    <glyph glyph-name="uniFB35" unicode="&#xfb35;" horiz-adv-x="249" 
d="M92 0q-12 0 -12 12v1231h-35q-12 0 -12 12v97q0 12 12 12h78q74 0 74 -74v-1278q0 -12 -13 -12h-92zM-45 625q-4 0 -4 4v104l4 4h102q4 0 4 -4v-104q0 -4 -4 -4h-102z" />
    <glyph glyph-name="uniFB36" unicode="&#xfb36;" horiz-adv-x="323" 
d="M199 0q-13 0 -13 12v109l-88 1050v72h-78q-12 0 -12 12v97q0 12 12 12h275q12 0 12 -12v-97q0 -12 -12 -12h-78v-72l90 -1050v-109q0 -12 -12 -12h-96zM-39 625q-4 0 -4 4v104l4 4h102q5 0 5 -4v-104q0 -4 -5 -4h-102z" />
    <glyph glyph-name="uniFB38" unicode="&#xfb38;" 
d="M186 -12q-58 0 -98.5 41t-40.5 100v1223q0 12 12 12h95q12 0 12 -12v-1219q0 -12 6.5 -19.5t17.5 -7.5h19q11 0 17.5 7.5t6.5 19.5v1110h-22q-12 0 -12 12v97q0 12 12 12h131q12 0 12 -12v-1223q0 -59 -40.5 -100t-98.5 -41h-29zM184 668v2v26v2h29v-2v-26v-2h-29z" />
    <glyph glyph-name="uniFB39" unicode="&#xfb39;" horiz-adv-x="215" 
d="M78 674q-12 0 -12 12v557h-33q-13 0 -13 12v97q0 12 13 12h76q73 0 73 -74v-604q0 -12 -12 -12h-92zM-78 967q-4 0 -4 4v104l4 4h103q4 0 4 -4v-104q0 -4 -4 -4h-103z" />
    <glyph glyph-name="uniFB3A" unicode="&#xfb3a;" horiz-adv-x="352" 
d="M193 -211q-13 0 -13 12v1442h-160q-12 0 -12 12v97q0 12 12 12h205q74 0 74 -74v-1489q0 -12 -12 -12h-94zM-8 625q-4 0 -4 4v104l4 4h102q4 0 4 -4v-104q0 -4 -4 -4h-102z" />
    <glyph glyph-name="uniFB3B" unicode="&#xfb3b;" horiz-adv-x="374" 
d="M45 0q-12 0 -12 12v97q0 12 12 12h137q11 0 18 7t7 17v1098h-162q-12 0 -12 12v97q0 12 12 12h209q74 0 74 -74v-1151q0 -58 -41.5 -98.5t-100.5 -40.5h-141zM53 625q-4 0 -4 4v104l4 4h103q4 0 4 -4v-104q0 -4 -4 -4h-103z" />
    <glyph glyph-name="uniFB3C" unicode="&#xfb3c;" horiz-adv-x="372" 
d="M45 0q-12 0 -12 12v97q0 12 12 12h135q11 0 18 7t7 17v1098h-160q-12 0 -12 12v183q0 12 12 12h96q13 0 13 -12v-74h159q13 0 13 -12v-1213q0 -58 -40.5 -98.5t-99.5 -40.5h-141zM63 625q-4 0 -4 4v104l4 4h103q4 0 4 -4v-104q0 -4 -4 -4h-103z" />
    <glyph glyph-name="uniFB3E" unicode="&#xfb3e;" horiz-adv-x="436" 
d="M94 0q-12 0 -12 12v1231h-33q-12 0 -12 12v97q0 12 12 12h53q20 0 29.5 -12t9.5 -25v-6h2q8 21 35.5 38t61.5 17h10q58 0 98.5 -41t40.5 -100v-1223q0 -12 -12 -12h-127q-12 0 -12 12v97q0 12 12 12h18v1108q0 26 -24 26h-19q-26 0 -26 -26v-1217q0 -12 -13 -12h-92z
M217 662v2v36v2h37v-2v-36v-2h-37z" />
    <glyph glyph-name="uniFB40" unicode="&#xfb40;" horiz-adv-x="280" 
d="M45 0q-12 0 -12 12v97q0 12 12 12h61v1122h-40q-13 0 -13 12v97q0 12 13 12h88q73 0 73 -74v-1216q0 -74 -73 -74h-109zM-47 625q-4 0 -4 4v104l4 4h102q4 0 4 -4v-104q0 -4 -4 -4h-102z" />
    <glyph glyph-name="uniFB41" unicode="&#xfb41;" horiz-adv-x="385" 
d="M186 -12q-58 0 -98.5 41t-40.5 100v1030q0 14 6 23l45 61h-39q-12 0 -12 12v97q0 12 12 12h205q74 0 74 -74v-1161q0 -59 -40.5 -100t-98.5 -41h-13zM190 106h5q22 0 22 27v1110h-51v-1110q0 -12 6.5 -19.5t17.5 -7.5zM178 668v2v26v2h29v-2v-26v-2h-29z" />
    <glyph glyph-name="uniFB43" unicode="&#xfb43;" horiz-adv-x="399" 
d="M238 -211q-13 0 -13 12v1442h-65v-448h24q13 0 13 -13v-96q0 -12 -13 -12h-69q-74 0 -74 74v411q0 14 6 23l45 61h-39q-12 0 -12 12v97q0 12 12 12h219q74 0 74 -74v-1489q0 -12 -12 -12h-96zM94 500q-4 0 -4 4v104l4 4h103q4 0 4 -4v-104q0 -4 -4 -4h-103z" />
    <glyph glyph-name="uniFB44" unicode="&#xfb44;" horiz-adv-x="399" 
d="M53 0q-12 0 -12 12v97q0 12 12 12h172v1122h-65v-448h28q13 0 13 -13v-96q0 -12 -13 -12h-73q-74 0 -74 74v411q0 15 8 23l45 61h-41q-12 0 -12 12v97q0 12 12 12h219q74 0 74 -74v-1216q0 -74 -74 -74h-219zM84 469q-4 0 -4 4v105l4 4h102q4 0 4 -4v-105q0 -4 -4 -4
h-102z" />
    <glyph glyph-name="uniFB46" unicode="&#xfb46;" horiz-adv-x="405" 
d="M385 1290v-205l-121 -378l121 -590v-105q0 -12 -12 -12h-328q-12 0 -12 12v92q0 13 12 13h219l-184 925v201h-35q-12 0 -12 12v97q0 12 12 12h78q74 0 74 -74v-256l20 -104h6l41 131v182h-28q-13 0 -13 12v97q0 12 13 12h75q74 0 74 -74zM117 629q0 -4 -4 -4h-103
q-4 0 -4 4v104l4 4h103q4 0 4 -4v-104z" />
    <glyph glyph-name="uniFB47" unicode="&#xfb47;" horiz-adv-x="407" 
d="M217 0q-12 0 -12 12v97q0 12 12 12h-2q9 0 17 7t8 17v1098h-174q-13 0 -13 12v97q0 12 13 12h282q12 0 12 -12v-1213q0 -58 -41 -98.5t-100 -40.5h-2zM66 -211q-13 0 -13 12v1184q0 12 13 12h94q12 0 12 -12v-1184q0 -12 -12 -12h-94zM184 662v2v36v2h37v-2v-36v-2h-37z
" />
    <glyph glyph-name="uniFB48" unicode="&#xfb48;" horiz-adv-x="352" 
d="M193 0q-13 0 -13 12v1231h-160q-12 0 -12 12v97q0 12 12 12h205q74 0 74 -74v-1278q0 -12 -12 -12h-94zM39 625q-4 0 -4 4v104l4 4h102q4 0 4 -4v-104q0 -4 -4 -4h-102z" />
    <glyph glyph-name="uniFB49" unicode="&#xfb49;" horiz-adv-x="608" 
d="M90 0q-12 0 -12 12v1231h-33q-12 0 -12 12v97q0 12 12 12h76q74 0 74 -74v-1169h61v1122h-25q-12 0 -12 12v97q0 12 12 12h72q74 0 74 -74v-1169h59v1122h-28q-13 0 -13 12v97q0 12 13 12h73q74 0 74 -74v-1200q0 -37 -25.5 -63.5t-62.5 -26.5h-377zM389 662v2v36v2h37
v-2v-36v-2h-37z" />
    <glyph glyph-name="uniFB4A" unicode="&#xfb4a;" horiz-adv-x="413" 
d="M45 0q-12 0 -12 12v97q0 12 12 12h23v1038q0 15 8 23l45 61h-76q-12 0 -12 12v97q0 12 12 12h242q73 0 73 -74v-1278q0 -12 -12 -12h-96q-12 0 -12 12v1231h-54v-1231q0 -12 -12 -12h-129zM197 668v2v26v2h28v-2v-26v-2h-28z" />
    <glyph glyph-name="uniFB4B" unicode="&#xfb4b;" horiz-adv-x="249" 
d="M41 1477q-4 0 -4 4v104q0 4 4 4h102q4 0 4 -4v-104q0 -4 -4 -4h-102zM92 0q-12 0 -12 12v1231h-35q-12 0 -12 12v97q0 12 12 12h78q74 0 74 -74v-1278q0 -12 -13 -12h-92z" />
    <glyph glyph-name="NULL" horiz-adv-x="260" 
 />
    <glyph glyph-name="macron.001" horiz-adv-x="438" 
d="M23 1174q-11 0 -11 8v121q0 10 11 10h395q8 0 8 -10v-121q0 -8 -8 -8h-395z" />
    <glyph glyph-name="fontvendor" horiz-adv-x="1304" 
d="M260 172l-61 18l61 162l121 140l666 34l-80 400l-121 131l-365 41l-30 -121l10 -59l100 -41h103l79 20l41 -242l-182 -61l-121 41l-121 -21l-41 -41h-26l-33 41l59 62l62 18l-80 121l39 182l82 121l-103 60l-18 61l59 262l62 -20l18 -62l80 -39l377 -41l117 -120l92 -322
v-491l-100 -146l-625 -29l-80 -20zM588 -18v116h8v-116h-8zM256 -18v65q0 5 -3 9t-6 6l-3 1h-29v-12h16v-18h-32v49h47q26 -8 26 -31v-69h-16zM287 0v63h-8v19h24v-66h49v31q0 4 -1.5 7t-2.5 4l-2 1l-16 -18l-15 12l29 29q27 -8 27 -31v-51h-84zM383 0v16h29v47h-19v19h31
v-82h-41zM459 0v63h-19v19h33v-82h-14zM492 0v16h55v29q0 6 -2.5 10.5t-4.5 6.5l-3 1h-31v-12h16v-18h-30v49h47q24 -8 24 -31v-51h-71zM621 0v82h65v-19h-51v-12h41v-18h-39v-33h-16zM733 -2q-18 0 -29.5 12.5t-11.5 30.5q0 16 11.5 28.5t29.5 12.5q17 0 29 -12.5t12 -28.5
q0 -17 -12 -30t-29 -13zM791 0v82h16l41 -59v59h14v-82h-14l-41 57v-57h-16zM903 0v63h-29v19h74v-19h-26v-63h-19zM961 0v82h65v-19h-49v-12h41v-18h-41v-15h47v-18h-63zM1042 0v82h64v-19h-49v-12h43v-18h-41v-33h-17zM733 12q10 0 17.5 8.5t7.5 20.5q0 11 -7.5 20
t-17.5 9q-11 0 -18.5 -9t-7.5 -20q0 -12 7 -20.5t19 -8.5z" />
    </font>
</defs>
</svg>
