<?xml version="1.0" encoding="UTF-8"?>
<svg width="27px" height="27px" viewBox="0 0 27 27" version="1.1" xmlns="http://www.w3.org/2000/svg" xmlns:xlink="http://www.w3.org/1999/xlink">
    <title>Icon/mug-hot</title>
    <g id="Page-1" stroke="none" stroke-width="1" fill="none" fill-rule="evenodd">
        <g id="תוכנית-קולאפס-מובייל-גלילה" transform="translate(-321.000000, -521.000000)">
            <g id="Group-5" transform="translate(-0.000000, 219.000000)">
                <g id="Group-40" transform="translate(39.500000, 169.391507)">
                    <g id="Icon/mug-hot" transform="translate(282.000000, 133.038740)">
                        <rect id="Rectangle" x="0" y="0" width="26" height="26"></rect>
                        <path d="M20.0909091,11.1090909 L19.6181818,11.1090909 L19.6181818,10.1636364 C19.6181818,8.59715598 18.3482986,7.32727273 16.7818182,7.32727273 L5.43636364,7.32727273 C3.86988326,7.32727273 2.6,8.59715598 2.6,10.1636364 L2.6,19.6181818 C2.60312578,22.2276866 4.71776793,24.3423288 7.32727273,24.3454545 L14.8909091,24.3454545 C17.136459,24.3426198 19.0713,22.7631577 19.5236364,20.5636364 C20.4887072,20.6991479 21.4655727,20.4144822 22.206772,19.7817511 C22.9479713,19.14902 23.3823971,18.2289248 23.4,17.2545455 L23.4,14.4181818 C23.4,13.5405563 23.0513646,12.6988761 22.4307897,12.0783012 C21.8102148,11.4577263 20.9685346,11.1090909 20.0909091,11.1090909 Z M14.8909091,22.4545455 L7.32727273,22.4545455 C5.76079235,22.4545455 4.49090909,21.1846622 4.49090909,19.6181818 L4.49090909,10.1636364 C4.49090909,9.64147624 4.91420351,9.21818182 5.43636364,9.21818182 L16.7818182,9.21818182 C17.3039783,9.21818182 17.7272727,9.64147624 17.7272727,10.1636364 L17.7272727,19.6181818 C17.7272727,21.1846622 16.4573895,22.4545455 14.8909091,22.4545455 Z M21.5090909,17.2545455 C21.4877515,17.7113292 21.2635534,18.1347225 20.8977278,18.4090917 C20.5319023,18.6834608 20.0626693,18.7801408 19.6181818,18.6727273 L19.6181818,13 C20.0626693,12.8925864 20.5319023,12.9892664 20.8977278,13.2636356 C21.2635534,13.5380048 21.4877515,13.9613981 21.5090909,14.4181818 L21.5090909,17.2545455 Z M10.1636364,4.49090909 L10.1636364,2.6 C10.1636364,2.07783987 10.5869308,1.65454545 11.1090909,1.65454545 C11.631251,1.65454545 12.0545455,2.07783987 12.0545455,2.6 L12.0545455,4.49090909 C12.0545455,5.01306922 11.631251,5.43636364 11.1090909,5.43636364 C10.5869308,5.43636364 10.1636364,5.01306922 10.1636364,4.49090909 Z M13.9454545,4.49090909 L13.9454545,2.6 C13.9454545,2.07783987 14.368749,1.65454545 14.8909091,1.65454545 C15.4130692,1.65454545 15.8363636,2.07783987 15.8363636,2.6 L15.8363636,4.49090909 C15.8363636,5.01306922 15.4130692,5.43636364 14.8909091,5.43636364 C14.368749,5.43636364 13.9454545,5.01306922 13.9454545,4.49090909 Z M6.38181818,4.49090909 L6.38181818,2.6 C6.38181818,2.07783987 6.8051126,1.65454545 7.32727273,1.65454545 C7.84943285,1.65454545 8.27272727,2.07783987 8.27272727,2.6 L8.27272727,4.49090909 C8.27272727,5.01306922 7.84943285,5.43636364 7.32727273,5.43636364 C6.8051126,5.43636364 6.38181818,5.01306922 6.38181818,4.49090909 Z" id="Shape" fill="#000000" fill-rule="nonzero"></path>
                    </g>
                </g>
            </g>
        </g>
    </g>
</svg>