<?xml version="1.0" encoding="UTF-8"?>
<svg width="27px" height="26px" viewBox="0 0 27 26" version="1.1" xmlns="http://www.w3.org/2000/svg" xmlns:xlink="http://www.w3.org/1999/xlink">
    <title>icons/search</title>
    <g id="Page-1" stroke="none" stroke-width="1" fill="none" fill-rule="evenodd">
        <g id="לוח-קונצרטים-1920-פילטר-מיקום-פתוח" transform="translate(-902.000000, -59.000000)">
            <g id="menu/inner-hero" transform="translate(0.000000, 39.000000)">
                <g id="header/menu/white" transform="translate(903.000000, 18.000000)">
                    <g id="Group" transform="translate(-0.137686, 0.000000)">
                        <g id="icons/search" transform="translate(0.000000, 2.000000)">
                            <polygon id="bg" points="0 0 25.9382407 0 25.9382407 26 0 26"></polygon>
                            <path d="M9.35901947,1.80662512 C14.6515796,1.15678045 19.466205,4.87710435 20.109936,10.1198725 C20.4218565,12.6602612 19.6971068,15.0907237 18.2649686,16.9952638 L24.8546422,22.8254607 C25.1957636,23.1273688 25.2267226,23.6480788 24.9237911,23.9884991 C24.6424975,24.3046037 24.17222,24.3541022 23.8333518,24.1178361 L23.75763,24.0582317 L17.1655806,18.2236573 C15.7151187,19.5900264 13.8262782,20.5247026 11.6895242,20.787063 C6.39696411,21.4369076 1.58233865,17.7165837 0.938607664,12.4738156 C0.294876681,7.23104748 4.06645938,2.45646978 9.35901947,1.80662512 Z M18.4700868,10.3212207 C17.9376147,5.98458348 13.9496286,2.90301462 9.55982014,3.44201532 C5.17001167,3.98101603 2.04598481,7.93583027 2.5784569,12.2724674 C3.11092899,16.6091046 7.09891506,19.6906735 11.4887235,19.1516728 C15.878532,18.6126721 19.0025589,14.6578578 18.4700868,10.3212207 Z" id="Combined-Shape" fill="#000000" fill-rule="nonzero"></path>
                        </g>
                    </g>
                </g>
            </g>
        </g>
    </g>
</svg>