<?xml version="1.0" encoding="UTF-8"?><svg version="1.1" width="27px" height="26px" viewBox="0 0 27.0 26.0" xmlns="http://www.w3.org/2000/svg" xmlns:xlink="http://www.w3.org/1999/xlink"><defs><clipPath id="i0"><path d="M1920,0 L1920,6757 L0,6757 L0,0 L1920,0 Z"></path></clipPath><clipPath id="i1"><path d="M1920,0 L1920,950 L0,950 L0,0 L1920,0 Z"></path></clipPath><clipPath id="i2"><path d="M19.2432693,8.38653915 C19.5551899,10.9269279 18.8304401,13.3573904 17.3983019,15.2619305 L23.9879755,21.0921273 C24.3290969,21.3940354 24.3600559,21.9147455 24.0571244,22.2551658 C23.7758308,22.5712704 23.3055534,22.6207689 22.9666851,22.3845028 L22.8909633,22.3248984 L16.2989139,16.490324 C14.848452,17.8566931 12.9596115,18.7913692 10.8228575,19.0537296 C5.53029744,19.7035743 0.71567198,15.9832504 0.0719409969,10.7404823 C-0.571789986,5.49771415 3.19979272,0.72313645 8.4923528,0.0732917841 C13.7849129,-0.576552882 18.5995383,3.14377102 19.2432693,8.38653915 Z M8.69315347,1.70868199 C4.30334501,2.2476827 1.17931814,6.20249694 1.71179023,10.5391341 C2.24426232,14.8757713 6.2322484,17.9573401 10.6220569,17.4183394 C15.0118653,16.8793387 18.1358922,12.9245245 17.6034201,8.58788732 C17.070948,4.25125015 13.0829619,1.16968129 8.69315347,1.70868199 Z"></path></clipPath></defs><g transform="translate(-902.0 -5058.0)"><g clip-path="url(#i0)"><g transform="translate(0.0 5004.0)"><g clip-path="url(#i1)"><g transform="translate(0.0 34.0)"><g transform="translate(903.0 18.0)"><g transform="translate(-0.13768630388767633 0.0)"><g transform="translate(0.0 2.0)"><g transform="translate(0.8666666666666671 1.7333333333333343)"><g clip-path="url(#i2)"><polygon points="0.000387962973,-0.000397343783 24.2655272,-0.000397343783 24.2655272,22.5323913 0.000387962973,22.5323913 0.000387962973,-0.000397343783" stroke="none" fill="#000000"></polygon></g></g></g></g></g></g></g></g></g></g></svg>