<?xml version="1.0" encoding="UTF-8"?><svg version="1.1" width="45px" height="44px" viewBox="0 0 45.0 44.0" xmlns="http://www.w3.org/2000/svg" xmlns:xlink="http://www.w3.org/1999/xlink"><defs><clipPath id="i0"><path d="M1920,0 L1920,1754 L0,1754 L0,0 L1920,0 Z"></path></clipPath><clipPath id="i1"><path d="M23.4100281,0 L23.4100281,3.9375 L0,3.9375 L0,0 L23.4100281,0 Z"></path></clipPath><clipPath id="i2"><path d="M15.6066854,0 L15.6066854,3.9375 L0,3.9375 L0,0 L15.6066854,0 Z"></path></clipPath><clipPath id="i3"><path d="M0,0 L9.75417837,5.90625 L0,11.8125 L0,0 Z"></path></clipPath></defs><g transform="translate(-1570.0 -469.0)"><g clip-path="url(#i0)"><g transform="translate(100.0 402.0)"><g transform="translate(1122.028215138867 56.19606578947378)"><g transform="translate(337.9717848611331 1.8039342105262222)"><g transform="translate(10.178270386693157 9.101328947368383)"><g transform="translate(7.315633780388074 8.703947368421018)"><g transform="translate(0.0 7.8749999999999325)"><g clip-path="url(#i1)"><polygon points="0,0 23.4100281,0 23.4100281,3.9375 0,3.9375 0,0" stroke="none" fill="#FFFFFF"></polygon></g></g><g clip-path="url(#i1)"><polygon points="0,0 23.4100281,0 23.4100281,3.9375 0,3.9375 0,0" stroke="none" fill="#FFFFFF"></polygon></g><g transform="translate(0.0 15.749999999999863)"><g clip-path="url(#i2)"><polygon points="0,0 15.6066854,0 15.6066854,3.9375 0,3.9375 0,0" stroke="none" fill="#FFFFFF"></polygon></g></g><g transform="translate(19.508356747701463 15.749999999999863)"><g clip-path="url(#i3)"><polygon points="0,0 9.75417837,0 9.75417837,11.8125 0,11.8125 0,0" stroke="none" fill="#FFFFFF"></polygon></g></g></g></g></g></g></g></g></g></svg>