<svg xmlns="http://www.w3.org/2000/svg" xmlns:xlink="http://www.w3.org/1999/xlink" viewBox="0 0 43 42">
  <defs>
    <polygon id="group_3-a" points="0 0 41.433 0 41.433 41.435 0 41.435"/>
  </defs>
  <g fill="none" fill-rule="evenodd" transform="rotate(-90 21.373 20.404)">
    <mask id="group_3-b" fill="#fff">
      <use xlink:href="#group_3-a"/>
    </mask>
    <path fill="#000" d="M22.1267134,35.5979316 C22.1284504,34.8127045 21.4904223,34.1648134 20.715887,34.1648134 C19.9464076,34.1648963 19.2897309,34.8214901 19.2887348,35.5918812 C19.287576,36.3650904 19.9391968,37.0220157 20.7091735,37.0237604 C21.4882674,37.0256625 22.1249693,36.385065 22.1267134,35.5979316 M20.0772787,27.2980132 C19.8885557,27.2768782 19.6977606,27.2668495 19.5114411,27.2326191 C16.0070109,26.5888721 13.7682765,23.5496603 13.801761,20.3860421 C13.8248852,18.1899922 13.8061538,15.9936107 13.8061538,13.797395 C13.8061538,13.7006713 13.8026727,13.6038648 13.8063195,13.5073069 C13.8106294,13.393095 13.7725864,13.3223135 13.6460251,13.3224793 C13.0520904,13.3231423 12.4581557,13.3230595 11.864221,13.322645 C11.7631046,13.3225622 11.7132923,13.3700537 11.7143698,13.471999 C11.7151986,13.5548813 11.7130436,13.6377636 11.7130436,13.7206459 C11.7129608,15.930703 11.7128779,18.1407601 11.7131265,20.3508171 C11.7132923,21.0710645 11.7792666,21.7839353 11.9497555,22.4855342 C12.8456305,26.1733001 15.8277364,28.8528855 19.5894334,29.3492678 C20.1251847,29.4199664 20.1251847,29.4199664 20.1167307,29.9200783 C20.1110947,30.2589012 20.1103488,30.2656147 19.7663043,30.2281519 C18.7311041,30.115349 17.718365,29.89281 16.7782309,29.4402725 C13.0256509,27.6338524 11.0167493,24.6568023 10.9074275,20.4771298 C10.8492441,18.254889 10.8970672,16.0297474 10.8970672,13.8059319 C10.8970672,13.7092082 10.8923429,13.6123188 10.8973987,13.5159266 C10.904941,13.3693078 10.8286893,13.3260432 10.6954974,13.3267063 C10.1291625,13.3292756 9.56282761,13.3303531 8.9965756,13.326209 C8.84738742,13.3250486 8.80553185,13.3988139 8.81224532,13.5300166 C8.81572638,13.5988918 8.81216244,13.6680986 8.81216244,13.7371395 C8.81207955,16.0300789 8.81191379,18.3230183 8.81224532,20.6158748 C8.81241108,21.5036273 8.9224788,22.3784502 9.13540348,23.2396804 C10.7040343,29.5844878 16.9163957,33.4540975 23.3114298,32.0708745 C28.5663346,30.9343093 32.5105385,26.1796821 32.6133954,20.8019456 C32.6590636,18.4131943 32.6252476,16.022951 32.6274854,13.6333709 C32.6274854,13.6057711 32.6250818,13.5779226 32.6276512,13.5505714 C32.6419069,13.3992283 32.5901055,13.323391 32.4219373,13.3252973 C31.8556853,13.3317621 31.2892675,13.3308504 30.7230155,13.3258775 C30.5718381,13.3245513 30.5340438,13.398068 30.5403428,13.5291878 C30.5449014,13.6256628 30.5405915,13.7225522 30.5405915,13.819193 C30.5405915,16.0016503 30.5376077,18.1840247 30.5429122,20.3664819 C30.5440725,20.8239094 30.511334,21.2787676 30.4536479,21.7298132 C29.9478171,25.6873611 26.9863489,29.0112737 23.1151644,29.9752779 C22.6057697,30.1020879 22.0875065,30.1808261 21.5655137,30.2372689 C21.3739726,30.2579895 21.2695409,30.2066025 21.2981353,29.9953354 C21.2999587,29.9818256 21.2987155,29.9677356 21.2983011,29.9539772 C21.2822219,29.4256024 21.2812273,29.4168997 21.7991589,29.3566443 C22.8951947,29.2291713 23.940921,28.9244959 24.8997037,28.3846833 C28.0266049,26.62418 29.6481975,23.9397045 29.7136746,20.3484136 C29.7473248,18.4981486 29.7195592,16.6467234 29.7195592,14.7957954 C29.7195592,14.3952252 29.7066296,13.9940747 29.7245322,13.5943333 C29.7347267,13.36707 29.6465399,13.3131136 29.4390026,13.317755 C28.9419573,13.3286126 28.4445805,13.3192469 27.9472866,13.3218991 C27.6324995,13.3235568 27.632168,13.3267063 27.6266149,13.6338682 C27.6252059,13.7167505 27.6263662,13.7996328 27.6263662,13.8825151 C27.6263662,16.051131 27.6264491,18.2197469 27.6262833,20.38828 C27.6262833,21.0969238 27.5478767,21.7981082 27.3158062,22.4677974 C26.3839602,25.15708 24.5165387,26.7646655 21.707574,27.2583126 C21.3033569,27.3293427 21.2960633,27.3083735 21.2994614,26.8973601 C21.3023623,26.5336725 21.2164962,26.4856007 21.7015236,26.4105093 C24.5382539,25.9715646 26.7474821,23.4830229 26.8007754,20.615709 C26.8441229,18.2822402 26.81097,15.9471966 26.8093123,13.6128161 C26.8090637,13.3344143 26.8020187,13.3303531 26.4987523,13.3281153 C26.0152997,13.3246342 25.5318471,13.3251315 25.0483945,13.3278666 C24.7322814,13.32969 24.7319498,13.3327567 24.7258165,13.6401672 C24.7239931,13.736808 24.725485,13.8335317 24.725485,13.9302553 C24.725485,16.0435887 24.7335246,18.1569221 24.7229157,20.2702555 C24.7147103,21.9154696 23.9991044,23.1587873 22.5470061,23.9552864 C22.1729582,24.1605859 21.7727195,24.3008228 21.3370071,24.3406892 C21.2706184,24.1481535 21.3169496,23.9670557 21.2963119,23.7919253 C21.2726076,23.5910186 21.3462899,23.4892391 21.5500147,23.4464718 C21.8208741,23.3895317 22.0740796,23.2757342 22.3107086,23.1299442 C23.4705638,22.4154986 23.9442363,21.3584175 23.9017176,20.0200338 C23.8194984,17.4256514 23.7534412,14.8307717 23.6854777,12.2360578 C23.6471032,10.7729362 23.619006,9.30948311 23.5848585,7.84619574 C23.5758244,7.46493707 23.5731721,7.46493707 23.1850342,7.47761807 C22.7020789,7.49344859 22.2191237,7.52262317 21.7363341,7.51947364 C21.5219176,7.51806464 21.4832115,7.59688573 21.4896764,7.78668624 C21.5112258,8.42139905 21.5151212,9.05677491 21.5312004,9.69173637 C21.6207962,13.211417 21.7118839,16.7310976 21.8021427,20.2506953 C21.8071985,20.4447228 21.7965067,20.6355179 21.7161937,20.8183563 C21.5072474,21.294018 21.0177444,21.5511189 20.494011,21.4548097 C20.0155314,21.3669544 19.6316205,20.9401933 19.623498,20.4329535 C19.6148783,19.9088886 19.6468709,19.3841606 19.6598834,18.8596813 C19.7364666,15.7815148 19.8122211,12.7034312 19.8894674,9.62526475 C19.9049664,9.00414464 19.9255212,8.3831903 19.943258,7.76207019 C19.9464904,7.6504277 19.9600003,7.53174022 19.7929095,7.52685017 C19.2133963,7.50977641 18.6337174,7.49303418 18.0542042,7.47297733 C17.912061,7.46841813 17.860674,7.53348075 17.8582704,7.67056811 C17.8530488,7.9603247 17.834566,8.24991553 17.827521,8.53967212 C17.7774601,10.5826384 17.7302172,12.6256876 17.6797419,14.6686539 C17.6326647,16.5733725 17.568348,18.4778425 17.5390906,20.3828926 C17.5187015,21.7148115 18.3531607,22.8939783 19.5914226,23.3589481 C19.7073749,23.4024613 19.8288804,23.4305584 19.9472364,23.4676068 C20.0268863,23.4924715 20.1145758,23.518165 20.1128353,23.6227625 C20.1089398,23.8617951 20.1450765,24.1052205 20.0892138,24.3414351 C18.3542382,24.1139231 16.712671,22.5343519 16.7139142,20.4327878 C16.7153232,18.236572 16.7141628,16.0403563 16.71408,13.8440577 C16.71408,13.7474169 16.7090241,13.6503617 16.7150745,13.5541354 C16.7245231,13.4060247 16.6839937,13.323391 16.5120129,13.3253802 C15.9457608,13.3319279 15.3793431,13.3308504 14.8130911,13.3257117 C14.6647317,13.3243856 14.6184834,13.3911887 14.6271031,13.5257067 C14.631413,13.5944162 14.6272689,13.6637887 14.6272689,13.7328296 C14.627186,15.9566452 14.6261914,18.1805436 14.6286779,20.404442 C14.6290094,20.6526746 14.6309986,20.9033107 14.6636542,21.1487252 C15.0143293,23.781565 16.9149038,25.8197242 19.51716,26.3805888 C19.7109389,26.4222786 19.9881802,26.3384017 20.0836607,26.5365733 C20.1652998,26.7063163 20.1111776,26.9420337 20.1130839,27.1486593 C20.1134983,27.1876969 20.0950156,27.2269002 20.0772787,27.2980132 M20.756748,0.000140909118 C32.260814,0.0745692326 41.4917496,9.38987896 41.4326904,20.8050951 C41.3726477,32.2849595 31.9527405,41.6545572 20.2977457,41.4316037 C9.06636251,41.2167728 -0.174353125,31.9855057 0.00235198144,20.3874511 C0.174332796,9.10178001 9.35421281,0.00486520137 20.756748,0.000140909118" mask="url(#group_3-b)" transform="rotate(90 20.716 20.718)"/>
  </g>
</svg>
