<svg xmlns="http://www.w3.org/2000/svg" viewBox="0 0 18 18">
  <path fill="#FFF" d="M8.99955204,0 C11.4839355,0.0024497065 13.7328179,1.01036626 15.3612181,2.6387673 C16.921769,4.19931891 17.912467,6.32972564 17.9944758,8.69075929 L18,9 L18,12.5447948 C18.001876,13.3561096 17.6894127,14.0988459 17.1741524,14.6530268 C16.6588931,15.2072065 15.9408375,15.5728316 15.1315343,15.6299253 C14.3222309,15.6870191 13.5599551,15.4258265 12.9719963,14.9494748 C12.3840375,14.473123 11.9703958,13.781612 11.8583605,12.978069 C11.8188022,12.6943473 11.819232,12.4137747 11.8554121,12.1423613 C11.6484394,12.3350841 11.4216842,12.5074347 11.1781434,12.6561574 C10.5213248,13.057256 9.7673878,13.2712458 9,13.2750002 C8.13545647,13.2750002 7.3134822,13.0146078 6.6249317,12.5545331 C5.93638098,12.0944583 5.38125415,11.4347011 5.05041003,10.635972 C4.71956595,9.83724292 4.64558154,8.97818995 4.80713819,8.16598905 C4.96869483,7.35378818 5.36579251,6.58843937 5.97711263,5.97711865 C6.5884327,5.36579797 7.35378067,4.96869992 8.16598068,4.80714314 C8.97818065,4.64558636 9.83723265,4.71957083 10.6359608,5.05041519 C11.434689,5.38125956 12.0944454,5.93638677 12.5545197,6.62493738 C12.9727692,7.25089254 13.2259921,7.98711498 13.268576,8.76534068 L13.2749864,9 L13.2749864,12.5437502 C13.2749864,12.9942074 13.4575701,13.4020199 13.752768,13.6972181 C14.047966,13.9924163 14.4557782,14.1750002 14.9062351,14.1750002 C15.356692,14.1750002 15.7645042,13.9924163 16.0597021,13.6972181 C16.3221002,13.4348197 16.4955192,13.0834421 16.5308173,12.6922272 L16.5374837,12.5437502 L16.5374837,9 C16.5374837,6.91857742 15.6938213,5.03420271 14.3298045,3.67018358 C12.9657871,2.30616388 11.0814148,1.46250022 9,1.46250022 C6.91857239,1.46250022 5.03419824,2.30616344 3.67017979,3.67018229 C2.30616095,5.03420155 1.46249809,6.91857677 1.46249809,9 C1.46249809,11.0814237 2.30616095,12.9657989 3.67017979,14.3298181 C5.03419824,15.693837 6.91857239,16.5375002 9,16.5375002 C9.20192255,16.5375002 9.38473331,16.6193484 9.51706246,16.7516782 C9.64939211,16.8840085 9.73123994,17.0668211 9.73123994,17.2687502 C9.73123994,17.4706794 9.64939211,17.6534919 9.51706246,17.7858223 C9.38473331,17.9181521 9.20192255,18 9,18 C6.51471478,18 4.26471604,16.9926411 2.63603745,15.3639618 C1.00735851,13.7352821 0,11.4852819 0,9 C0,6.51471858 1.00735851,4.26471836 2.63603745,2.63603865 C4.26471604,1.00735929 6.51471478,0 8.99955204,0 Z M8.99999576,6.30000022 C8.2544117,6.30000022 7.57941202,6.60220801 7.09080835,7.09081191 C6.60220469,7.57941581 6.29999703,8.25441581 6.29999703,9.00000022 C6.29999703,9.74558463 6.60220469,10.4205846 7.09080835,10.9091885 C7.57941202,11.3977924 8.2544117,11.7000002 8.99999576,11.7000002 C9.74559118,11.6994976 10.4202637,11.3972196 10.9087389,10.9087442 C11.397214,10.4202688 11.6994918,9.74559598 11.6999944,9.00030366 C11.6999944,8.25441581 11.3977868,7.57941581 10.9091832,7.09081191 C10.4205795,6.60220801 9.74557982,6.30000022 8.99999576,6.30000022 Z"/>
</svg>
