<?xml version="1.0" encoding="UTF-8"?><svg version="1.1" width="23px" height="23px" viewBox="0 0 23.0 23.0" xmlns="http://www.w3.org/2000/svg" xmlns:xlink="http://www.w3.org/1999/xlink"><defs><clipPath id="i0"><path d="M1920,0 L1920,6757 L0,6757 L0,0 L1920,0 Z"></path></clipPath><clipPath id="i1"><path d="M8.63304694,0 L9.03952276,0.00500672557 L9.63862374,0.019292323 L9.8997952,0.0335546768 C10.1177913,0.063605178 10.284842,0.238926917 10.2618815,0.459894527 L10.2613165,3.4879525 L10.2575762,3.53922396 C10.2461083,3.63821274 10.2110553,3.72845356 10.1205047,3.80698943 C10.0360911,3.88020263 9.95299063,3.90230541 9.85987648,3.90615109 C9.83052946,3.90736314 9.80064537,3.90638079 9.76024975,3.90436699 L9.53845127,3.8969929 L8.36688094,3.87349744 L7.97993475,3.87010211 C7.64766252,3.87010211 7.34824907,3.91550171 7.08343594,4.0119916 C6.73330352,4.13638486 6.48932431,4.36942783 6.34845279,4.7177476 C6.30236547,4.83195391 6.27901621,4.97567786 6.27428668,5.16401976 L6.25458071,5.69067703 L6.2282,6.60008574 L9.80429581,6.60027881 L9.88288162,6.6043868 C10.1332037,6.63168635 10.2666667,6.79417856 10.2666667,7.06576174 L10.2666667,9.98084152 L10.2642945,10.0938209 C10.259837,10.1502093 10.2470383,10.1791668 10.2103639,10.2432802 C10.1169381,10.4066051 10.0013874,10.4416751 9.83674527,10.4460364 L6.21646667,10.4456857 L6.21718325,16.4005361 L6.2137773,16.4771856 L6.21239804,16.8676833 L5.22287416,16.8636999 L2.21076672,16.8610783 L2.21026667,10.4361524 L0.462370854,10.4364428 L0.347369852,10.4338236 C0.304126143,10.430143 0.276340637,10.4213135 0.237341898,10.4001702 L0.193617585,10.3746569 C0.0357064304,10.2783578 0.00435547694,10.1682337 0.00027902259,10.0044711 L0,7.0509393 C0,6.75713861 0.161490146,6.59039719 0.457585644,6.59039719 L2.21173333,6.58981908 L2.2131368,6.03752745 L2.21723561,5.8159728 L2.22851243,5.55148756 C2.23156014,5.49756392 2.23504088,5.44295922 2.23897048,5.38729365 L2.26806077,5.0375313 L2.30868265,4.64407723 C2.35286586,4.2436355 2.43603845,3.84287534 2.55584752,3.43949405 C2.78524705,2.65959222 3.0956213,2.01865844 3.53686662,1.47888286 C3.84983435,1.09319401 4.254737,0.802304478 4.76540287,0.565948782 C5.10595492,0.410819662 5.46307997,0.292718548 5.8461479,0.206028268 C6.17747593,0.131046998 6.51522717,0.0824140088 6.95059999,0.0404597264 C7.06069474,0.0302033555 7.19548171,0.0219982587 7.34843839,0.0156750969 L7.67664542,0.00548784533 L8.04170942,0 L8.63304694,0 Z M8.44278357,0.732434057 L8.06356764,0.733256561 L7.71031769,0.738229269 L7.39507018,0.747611723 L7.1298616,0.761663465 L7.01978331,0.770521427 C6.61376047,0.809649164 6.30448047,0.854182563 6.00801197,0.921274939 C5.67256479,0.997188393 5.3630132,1.09955698 5.07141587,1.23237875 C4.65728069,1.42406235 4.34187502,1.6506556 4.10547326,1.94198383 C3.73164424,2.39929222 3.4630852,2.95387612 3.25910387,3.64735782 C3.15112512,4.01091205 3.07682713,4.36891064 3.03757857,4.72462847 L2.99850888,5.10268185 L2.9707111,5.43569296 L2.95340971,5.74062734 L2.94640426,6.04778981 L2.94518886,6.75795535 L2.94410005,6.87307003 C2.94410005,7.16166153 2.77790197,7.32373052 2.49129962,7.32373052 L0.7326,7.32315241 L0.733333333,9.70281908 L2.51522567,9.70310949 C2.74295142,9.70310949 2.90815907,9.85017622 2.93892334,10.0613536 L2.94410005,10.1340067 L2.9436,16.1275524 L4.10011489,16.1282424 L5.48313333,16.1312191 L5.48384992,10.1883557 C5.48384992,9.90778919 5.61731285,9.74448031 5.87480491,9.71710652 L5.95576397,9.71299111 L9.53333333,9.71235241 L9.53333333,7.33341908 L5.92090235,7.33362671 L5.85025686,7.32957001 C5.76050226,7.31903896 5.6771443,7.28780441 5.60148541,7.20968526 C5.48421878,7.0886054 5.47993721,7.03887144 5.48875009,6.85894798 L5.51387333,5.91548419 L5.54905876,4.98626684 C5.56448329,4.78726076 5.60140531,4.60934398 5.66850892,4.44305861 C5.88825743,3.89970667 6.29055296,3.51544383 6.83514157,3.32197792 C7.18396611,3.19485998 7.56708152,3.13676878 7.97993475,3.13676878 C8.00832338,3.13676878 8.04070835,3.13688425 8.07647534,3.13710393 L8.78984313,3.14680784 L9.5282,3.16295241 L9.52966667,0.74955241 L9.03396386,0.738414181 L8.44278357,0.732434057 Z"></path></clipPath></defs><g transform="translate(-96.0 -718.0)"><g clip-path="url(#i0)"><g transform="translate(-1.0 0.0)"><g transform="translate(0.0 36.0)"><g transform="translate(97.00000000000182 682.5697674418625)"><g transform="translate(6.233333333333334 2.5673142567558322)"><g clip-path="url(#i1)"><polygon points="0,0 10.2666667,0 10.2666667,16.8676833 0,16.8676833 0,0" stroke="none" fill="#EFEFEF"></polygon></g></g></g></g></g></g></g></svg>