<?xml version="1.0" encoding="UTF-8"?><svg version="1.1" width="23px" height="23px" viewBox="0 0 23.0 23.0" xmlns="http://www.w3.org/2000/svg" xmlns:xlink="http://www.w3.org/1999/xlink"><defs><clipPath id="i0"><path d="M1920,0 L1920,6757 L0,6757 L0,0 L1920,0 Z"></path></clipPath><clipPath id="i1"><path d="M8.06666667,0 C12.4857971,0 16.1333333,3.64753623 16.1333333,8.06666667 C16.1333333,12.4857971 12.4857971,16.1333333 8.06666667,16.1333333 C3.64753623,16.1333333 0,12.4857971 0,8.06666667 C0,3.64753623 3.64753623,0 8.06666667,0 Z M8.06666667,0.701449275 C3.99826087,0.701449275 0.701449275,3.99826087 0.701449275,8.06666667 C0.701449275,12.1350725 3.99826087,15.4318841 8.06666667,15.4318841 C12.1350725,15.4318841 15.4318841,12.1350725 15.4318841,8.06666667 C15.4318841,3.99826087 12.1350725,0.701449275 8.06666667,0.701449275 Z M11.5037681,10.5918841 C11.644058,10.662029 11.7142029,10.9426087 11.644058,11.0828986 C11.5037681,11.2231884 11.3634783,11.2933333 11.2933333,11.2933333 C11.2231884,11.2933333 11.1530435,11.2933333 11.0828986,11.2231884 C9.39942029,10.1710145 7.15478261,9.96057971 4.55942029,10.5217391 C4.34898551,10.5918841 4.20869565,10.4515942 4.13855072,10.2411594 C4.0684058,10.0307246 4.20869565,9.89043478 4.41913043,9.82028986 C7.22492754,9.18898551 9.60985507,9.46956522 11.5037681,10.5918841 Z M12.2753623,8.55768116 C12.4156522,8.62782609 12.4857971,8.9084058 12.4156522,9.04869565 C12.2753623,9.11884058 12.1350725,9.18898551 12.0649275,9.18898551 C11.9947826,9.18898551 11.9246377,9.18898551 11.8544928,9.11884058 C9.82028986,7.85623188 6.80405797,7.50550725 4.48927536,8.27710145 C4.27884058,8.34724638 4.13855072,8.20695652 4.0684058,8.06666667 C3.99826087,7.92637681 4.13855072,7.71594203 4.27884058,7.6457971 C6.80405797,6.8742029 10.0307246,7.22492754 12.2753623,8.55768116 Z M13.1171014,6.17275362 C13.2573913,6.24289855 13.3275362,6.45333333 13.2573913,6.66376812 C13.1872464,6.80405797 13.0469565,6.8742029 12.9066667,6.8742029 C12.8365217,6.8742029 12.7663768,6.8742029 12.6962319,6.80405797 C10.3814493,5.40115942 6.38318841,5.26086957 4.0684058,5.96231884 C3.92811594,6.03246377 3.71768116,5.89217391 3.64753623,5.75188406 C3.5773913,5.54144928 3.71768116,5.33101449 3.85797101,5.26086957 C6.31304348,4.55942029 10.5217391,4.69971014 13.1171014,6.17275362 Z"></path></clipPath></defs><g transform="translate(-96.0 -798.0)"><g clip-path="url(#i0)"><g transform="translate(-1.0 0.0)"><g transform="translate(0.0 36.0)"><g transform="translate(97.00000000000182 682.5697674418625)"><g transform="translate(0.0 80.0)"><g transform="translate(2.9333333333333336 2.9333333333333336)"><g clip-path="url(#i1)"><polygon points="0,0 16.1333333,0 16.1333333,16.1333333 0,16.1333333 0,0" stroke="none" fill="#EFEFEF"></polygon></g></g></g></g></g></g></g></g></svg>