<?xml version="1.0" encoding="UTF-8"?><svg version="1.1" width="23px" height="23px" viewBox="0 0 23.0 23.0" xmlns="http://www.w3.org/2000/svg" xmlns:xlink="http://www.w3.org/1999/xlink"><defs><clipPath id="i0"><path d="M1920,0 L1920,6757 L0,6757 L0,0 L1920,0 Z"></path></clipPath><clipPath id="i1"><path d="M11.9025641,0 C13.0690476,0 14.1266816,0.474549139 14.8927329,1.24060046 C15.6239637,1.97183127 16.0895902,2.96873962 16.1304091,4.07239515 L16.1333333,4.23076923 L16.1333333,11.9025641 C16.1333333,13.0690476 15.6587842,14.1266816 14.8927329,14.8927329 C14.1615021,15.6239637 13.1645937,16.0895902 12.0609382,16.1304091 L11.9025641,16.1333333 L4.23076923,16.1333333 C3.06428571,16.1333333 2.00665178,15.6587842 1.24060046,14.8927329 C0.509369654,14.1615021 0.0437431081,13.1645937 0.00292422955,12.0609382 L0,11.9025641 L0,4.23076923 C0,3.06428571 0.474549139,2.00665178 1.24060046,1.24060046 C1.97183127,0.509369654 2.96873962,0.0437431081 4.07239515,0.00292422955 L4.23076923,0 L11.9025641,0 Z M11.9025641,0.78974359 L4.23076923,0.78974359 L4.08173206,0.792928108 C3.1921759,0.831012407 2.38896675,1.20834771 1.79865723,1.79865723 C1.22348385,2.37383061 0.850502957,3.15112566 0.796524674,4.01347711 L0.78974359,4.23076923 L0.78974359,11.9025641 L0.792928108,12.0516013 C0.831012407,12.9411574 1.20834771,13.7443666 1.79865723,14.3346761 C2.37383061,14.9098495 3.15112566,15.2828304 4.01347711,15.3368087 L4.23076923,15.3435897 L11.9025641,15.3435897 L12.0516013,15.3404052 C12.9411574,15.3023209 13.7443666,14.9249856 14.3346761,14.3346761 C14.9098495,13.7595027 15.2828304,12.9822077 15.3368087,12.1198562 L15.3435897,11.9025641 L15.3435897,4.23076923 L15.3404052,4.08173206 C15.3023209,3.1921759 14.9249856,2.38896675 14.3346761,1.79865723 C13.7115716,1.17555274 12.8512549,0.78974359 11.9025641,0.78974359 Z M8.06666667,4.47521368 C9.05700983,4.47521368 9.95481957,4.8779957 10.6050786,5.52825473 C11.2553376,6.17851376 11.6581197,7.0763235 11.6581197,8.06666667 C11.6581197,9.05700983 11.2553376,9.95481957 10.6050786,10.6050786 C9.95481957,11.2553376 9.05700983,11.6581197 8.06666667,11.6581197 C7.0763235,11.6581197 6.17851376,11.2553376 5.52825473,10.6050786 C4.8779957,9.95481957 4.47521368,9.05700983 4.47521368,8.06666667 C4.47521368,7.0763235 4.8779957,6.17851376 5.52825473,5.52825473 C6.17851376,4.8779957 7.0763235,4.47521368 8.06666667,4.47521368 Z M8.06666667,5.26495726 C7.2940953,5.26495726 6.59361444,5.57900857 6.0863115,6.0863115 C5.57900857,6.59361444 5.26495726,7.2940953 5.26495726,8.06666667 C5.26495726,8.83923803 5.57900857,9.53971889 6.0863115,10.0470218 C6.59361444,10.5543248 7.2940953,10.8683761 8.06666667,10.8683761 C8.83923803,10.8683761 9.53971889,10.5543248 10.0470218,10.0470218 C10.5543248,9.53971889 10.8683761,8.83923803 10.8683761,8.06666667 C10.8683761,7.2940953 10.5543248,6.59361444 10.0470218,6.0863115 C9.53971889,5.57900857 8.83923803,5.26495726 8.06666667,5.26495726 Z M12.2222222,3.1965812 C12.4194325,3.1965812 12.5980455,3.27664133 12.7273688,3.40596456 C12.856692,3.5352878 12.9367521,3.71390085 12.9367521,3.91111111 C12.9367521,4.10832137 12.856692,4.28693443 12.7273688,4.41625766 C12.5980455,4.54558089 12.4194325,4.62564103 12.2222222,4.62564103 C12.025012,4.62564103 11.8463989,4.54558089 11.7170757,4.41625766 C11.5877524,4.28693443 11.5076923,4.10832137 11.5076923,3.91111111 C11.5076923,3.71390085 11.5877524,3.5352878 11.7170757,3.40596456 C11.8463989,3.27664133 12.025012,3.1965812 12.2222222,3.1965812 Z"></path></clipPath></defs><g transform="translate(-96.0 -758.0)"><g clip-path="url(#i0)"><g transform="translate(-1.0 0.0)"><g transform="translate(0.0 36.0)"><g transform="translate(97.00000000000182 682.5697674418625)"><g transform="translate(0.0 40.0)"><g transform="translate(2.9333333333333336 2.9333333333333336)"><g clip-path="url(#i1)"><polygon points="0,0 16.1333333,0 16.1333333,16.1333333 0,16.1333333 0,0" stroke="none" fill="#EFEFEF"></polygon></g></g></g></g></g></g></g></g></svg>