<?xml version="1.0" encoding="UTF-8"?><svg version="1.1" width="23px" height="23px" viewBox="0 0 23.0 23.0" xmlns="http://www.w3.org/2000/svg" xmlns:xlink="http://www.w3.org/1999/xlink"><defs><clipPath id="i0"><path d="M1920,0 L1920,6757 L0,6757 L0,0 L1920,0 Z"></path></clipPath><clipPath id="i1"><path d="M12.760537,0 C14.6203278,0 16.1333333,1.60776917 16.1333333,3.58395583 L16.1333333,9.6160625 C16.1333333,11.5922492 14.6203278,13.2 12.760537,13.2 L3.37277907,13.2 C1.51298818,13.2 0,11.5922492 0,9.6160625 L0,3.58395583 C0,1.60776917 1.51298818,0 3.37277907,0 L12.760537,0 Z M12.760537,0.733333333 L3.37277907,0.733333333 C1.89477663,0.733333333 0.692272807,2.0122025 0.692272807,3.58395583 L0.692272807,9.6160625 C0.692272807,11.1878158 1.89477663,12.4666667 3.37277907,12.4666667 L12.760537,12.4666667 C14.2385394,12.4666667 15.4410605,11.1878158 15.4410605,9.6160625 L15.4410605,3.58395583 C15.4410605,2.0122025 14.2385394,0.733333333 12.760537,0.733333333 Z M6.33784513,3.49173917 L11.133565,6.46734917 C11.2396991,6.53305583 11.3047727,6.65353333 11.3047727,6.7837 C11.3047727,6.91386667 11.2395174,7.0343625 11.133565,7.10006917 L6.33784513,10.0749458 C6.28374401,10.1084225 6.22341244,10.1252525 6.16291645,10.1252525 C6.10358002,10.1252525 6.04407917,10.1091192 5.99067032,10.0767058 C5.88319497,10.0113658 5.81678005,9.88999917 5.81678005,9.75858583 L5.81678005,3.80809917 C5.81678005,3.67668583 5.88319497,3.55531917 5.99084339,3.48997917 C6.09853508,3.4246025 6.23137358,3.4257025 6.33784513,3.49173917 Z M6.50905285,4.4478225 L6.50905285,9.1188625 L10.2736324,6.7837 L6.50905285,4.4478225 Z"></path></clipPath></defs><g transform="translate(-96.0 -838.0)"><g clip-path="url(#i0)"><g transform="translate(-1.0 0.0)"><g transform="translate(0.0 36.0)"><g transform="translate(97.00000000000182 682.5697674418625)"><g transform="translate(0.0 120.0)"><g transform="translate(2.9333333333333336 4.3999999999999995)"><g clip-path="url(#i1)"><polygon points="0,0 16.1333333,0 16.1333333,13.2 0,13.2 0,0" stroke="none" fill="#EFEFEF"></polygon></g></g></g></g></g></g></g></g></svg>