<?xml version="1.0" encoding="UTF-8"?>
<svg width="44px" height="149px" viewBox="0 0 44 149" version="1.1" xmlns="http://www.w3.org/2000/svg" xmlns:xlink="http://www.w3.org/1999/xlink">
    <title>header/logo/with text</title>
    <defs>
        <polygon id="path-1" points="0 0 40.8262587 0 40.8262587 41.5446598 0 41.5446598"></polygon>
    </defs>
    <g id="Page-1" stroke="none" stroke-width="1" fill="none" fill-rule="evenodd">
        <g id="תפריט-מובייל-סגור" transform="translate(-33.000000, -124.000000)">
            <g id="header/logo/with-text" transform="translate(34.000000, 124.000000)">
                <g id="Group-3" transform="translate(20.686290, 21.060999) rotate(-90.000000) translate(-20.686290, -21.060999) translate(0.273161, 0.288669)">
                    <mask id="mask-2" fill="white">
                        <use xlink:href="#path-1"></use>
                    </mask>
                    <g id="Clip-2"></g>
                    <path d="M21.8027863,35.6918323 C21.8044979,34.9045339 21.1758103,34.2549338 20.4126139,34.2549338 C19.6543993,34.2550169 19.0073362,34.9133426 19.0063547,35.6857659 C19.0052128,36.4610147 19.6472941,37.1196728 20.4059987,37.1214222 C21.1736869,37.1233292 21.8010678,36.481042 21.8027863,35.6918323 M19.7833546,27.3700203 C19.5973944,27.3488295 19.4093925,27.3387743 19.2258007,27.3044536 C15.772674,26.6590085 13.5667139,23.6117799 13.5997082,20.4398167 C13.6224938,18.237974 13.6040366,16.0357988 13.6040366,13.8337899 C13.6040366,13.7368111 13.6006065,13.6397492 13.6042,13.5429366 C13.6084468,13.4284235 13.5709607,13.3574553 13.4462522,13.3576215 C12.8610125,13.3582863 12.2757728,13.3582032 11.6905331,13.3577877 C11.5908969,13.3577046 11.5418139,13.4053214 11.5428756,13.5075356 C11.5436923,13.5906365 11.5415689,13.6737375 11.5415689,13.7568384 C11.5414872,15.9727252 11.5414056,18.188612 11.5416506,20.4044988 C11.5418139,21.126646 11.6068224,21.8413973 11.7748154,22.5448468 C12.6575751,26.2423404 15.5960241,28.928994 19.3026512,29.4266856 C19.8305593,29.4975707 19.8305593,29.4975707 19.822229,29.9990018 C19.8166755,30.3387185 19.8159405,30.3454497 19.4769327,30.3078881 C18.4568875,30.1947877 17.4589745,29.9716616 16.5326036,29.5179305 C12.8349601,27.7067453 10.855468,24.7218423 10.7477467,20.5311446 C10.6904151,18.303042 10.7375381,16.0720309 10.7375381,13.8423493 C10.7375381,13.7453705 10.7328829,13.6482255 10.7378647,13.5515791 C10.7452966,13.4045735 10.6701612,13.3611948 10.5389192,13.3618596 C9.98087521,13.3644358 9.42283126,13.3655161 8.86486897,13.361361 C8.71786486,13.3601976 8.67662204,13.4341575 8.68323722,13.5657063 C8.68666732,13.6347631 8.68315555,13.7041524 8.68315555,13.7733755 C8.68307388,16.0723633 8.68291055,18.371351 8.68323722,20.6702556 C8.68340056,21.5603499 8.79185693,22.4374804 9.00166447,23.3009823 C10.5473311,29.6625261 16.6687458,33.5423432 22.9701588,32.1554715 C28.1481338,31.0159082 32.0345959,26.2487392 32.1359471,20.8568172 C32.1809467,18.4617648 32.1476257,16.0652166 32.1498308,13.6693331 C32.1498308,13.6416605 32.1474624,13.6137386 32.1499941,13.5863153 C32.1640412,13.434573 32.1129981,13.3585356 31.9472918,13.3604469 C31.3893295,13.3669288 30.8312039,13.3660147 30.2732416,13.3610286 C30.1242774,13.359699 30.0870364,13.4334095 30.0932432,13.5648752 C30.097735,13.6616047 30.0934882,13.7587498 30.0934882,13.8556455 C30.0934882,16.0438596 30.0905481,18.2319907 30.095775,20.4202049 C30.0969183,20.878839 30.0646591,21.334897 30.0078175,21.7871324 C29.5093919,25.7551195 26.5912785,29.0878 22.7767667,30.0543471 C22.2748294,30.1814915 21.7641534,30.2604374 21.2498023,30.3170292 C21.0610654,30.3378044 20.9581625,30.2862818 20.9863383,30.0744575 C20.988135,30.0609121 20.98691,30.0467849 20.9865016,30.0329901 C20.9706579,29.5032216 20.9696778,29.494496 21.4800271,29.4340816 C22.5600173,29.3062723 23.5904345,29.0007933 24.535181,28.4595568 C27.6163056,26.6944095 29.2141586,24.0028529 29.2786771,20.4020889 C29.3118347,18.5469433 29.2844756,16.6906343 29.2844756,14.8348239 C29.2844756,14.4331971 29.2717352,14.0309885 29.2893757,13.6301926 C29.299421,13.4023298 29.2125252,13.3482311 29.0080262,13.3528847 C28.5182575,13.363771 28.0281621,13.3543805 27.5381484,13.3570398 C27.2279697,13.3587018 27.227643,13.3618596 27.2221712,13.6698317 C27.2207828,13.7529327 27.2219262,13.8360336 27.2219262,13.9191346 C27.2219262,16.0934709 27.2220078,18.2678072 27.2218445,20.4420604 C27.2218445,21.1525735 27.1445857,21.8556075 26.9159126,22.5270632 C25.9977086,25.2234397 24.1576254,26.8352657 21.3897829,27.3302149 C20.9914834,27.4014324 20.9842966,27.3804079 20.987645,26.9683103 C20.9905034,26.6036633 20.9058944,26.5554648 21.3838211,26.4801753 C24.1790227,26.0400727 26.3559086,23.5449667 26.4084217,20.6700894 C26.4511346,18.3304653 26.418467,15.9892623 26.4168336,13.6487241 C26.4165886,13.369588 26.4096468,13.3655161 26.1108201,13.3632723 C25.6344451,13.3597821 25.1580701,13.3602807 24.6816951,13.363023 C24.3702097,13.3648513 24.369883,13.367926 24.3638395,13.6761474 C24.3620428,13.7730431 24.3635128,13.8700219 24.3635128,13.9670007 C24.3635128,16.0859087 24.3714347,18.2048167 24.3609811,20.3237247 C24.3528959,21.9732785 23.6477661,23.2198758 22.2169261,24.0184759 C21.8483541,24.224317 21.4539747,24.3649238 21.024641,24.4048953 C20.9592242,24.2118518 21.0048771,24.0302763 20.9845416,23.8546839 C20.9611843,23.6532472 21.033788,23.5511993 21.2345302,23.5083192 C21.5014244,23.4512288 21.750923,23.3371312 21.9840879,23.1909567 C23.1269632,22.4746265 23.5937013,21.414757 23.5518051,20.0728429 C23.4707895,17.471617 23.4056993,14.8698925 23.3387308,12.2683343 C23.3009181,10.8013532 23.2732323,9.33403977 23.2395847,7.86689254 C23.2306828,7.48462817 23.2280694,7.48462817 22.8456137,7.49734262 C22.3697287,7.5132149 21.8938437,7.54246643 21.418122,7.5393086 C21.2068445,7.53789588 21.1687051,7.61692488 21.1750752,7.80722605 C21.1963092,8.44361312 21.2001476,9.08066498 21.2159914,9.71730135 C21.3042755,13.2462662 21.3940297,16.7752311 21.4829672,20.3041128 C21.487949,20.4986522 21.4774137,20.6899505 21.3982765,20.8732712 C21.1923891,21.3501876 20.7100522,21.6079667 20.1939861,21.5114034 C19.7225112,21.4233164 19.3442207,20.9954296 19.3362171,20.4868518 C19.3277235,19.9614045 19.3592477,19.4352924 19.3720698,18.9094296 C19.4475319,15.8231435 19.5221773,12.7369405 19.5982928,9.65065439 C19.6135649,9.02789588 19.6338188,8.40530358 19.6512959,7.78254507 C19.654481,7.6706081 19.667793,7.55160754 19.5031484,7.54670458 C18.9321191,7.52958579 18.3609265,7.5127994 17.7898971,7.49268965 C17.6498349,7.48811841 17.5992001,7.55335266 17.5968317,7.69080163 C17.5916866,7.98132254 17.5734744,8.27167725 17.5665326,8.56219817 C17.5172045,10.6105534 17.4706532,12.6589918 17.4209168,14.7073471 C17.3745289,16.61709 17.3111537,18.5265836 17.2823246,20.4366588 C17.262234,21.7720911 18.0844771,22.9543683 19.3046112,23.4205646 C19.4188661,23.4641926 19.5385928,23.4923638 19.655216,23.5295099 C19.7336999,23.5544402 19.8201056,23.5802015 19.8183906,23.6850749 C19.8145522,23.924738 19.8501598,24.1688055 19.7951149,24.4056432 C18.0855388,24.1775311 16.4680035,22.5937933 16.4692285,20.4866856 C16.4706169,18.2846767 16.4694735,16.0826678 16.4693918,13.8805757 C16.4693918,13.78368 16.46441,13.6863688 16.4703719,13.5898886 C16.4796821,13.4413872 16.439746,13.3585356 16.2702829,13.36053 C15.7123207,13.367095 15.154195,13.3660147 14.5962327,13.3608624 C14.4500453,13.3595328 14.404474,13.4265122 14.4129676,13.561385 C14.4172144,13.6302757 14.413131,13.6998312 14.413131,13.7690543 C14.4130493,15.9987358 14.4120693,18.2285005 14.4145193,20.4582651 C14.414846,20.7071524 14.4168061,20.9584497 14.4489836,21.2045116 C14.794525,23.8442963 16.6672757,25.8878317 19.2314358,26.4501759 C19.4223778,26.4919756 19.6955605,26.4078775 19.7896431,26.6065718 C19.870087,26.7767626 19.8167572,27.0131017 19.8186356,27.2202723 C19.8190439,27.2594129 19.8008318,27.2987196 19.7833546,27.3700203 M20.4528767,0.00014128081 C31.7885273,0.0747659322 40.8843253,9.41464769 40.8261307,20.8599751 C40.766967,32.3701212 31.4849638,41.7644341 20.000594,41.5408925 C8.93363423,41.3254949 -0.171800658,32.0698775 0.00231754928,20.4412294 C0.171780626,9.1257888 9.2172705,0.00487803485 20.4528767,0.00014128081" id="Fill-1" fill="#000000" mask="url(#mask-2)" transform="translate(20.413135, 20.772471) rotate(-270.000000) translate(-20.413135, -20.772471) "></path>
                </g>
                <path d="M43.923677,106.429065 C44.2536196,106.954928 44.7075356,107.312262 45.256351,107.549681 C47.4115946,108.481825 49.7247044,107.307858 50.3595172,104.963663 C50.5126464,104.398327 50.5584627,103.820859 50.5578094,103.237241 C50.5565027,102.004604 50.5584627,100.771968 50.556911,99.5392485 C50.5563393,99.115683 50.5673646,99.1611392 50.9416535,99.1611392 C51.5405319,99.1613054 52.1395737,99.1696155 52.7382071,99.1566517 C52.9480963,99.1522474 53.0273152,99.2116645 53.0238034,99.4336272 C52.997506,101.095064 53.114946,102.76182 52.9708003,104.417191 C52.784595,106.555212 51.7924806,108.217148 49.9032327,109.259982 C49.2888372,109.5992 48.6256036,109.802797 47.935746,109.915648 C46.7476261,110.110188 45.5697964,110.060493 44.4285545,109.666595 C42.2896446,108.928409 41.1025047,107.367524 40.7300943,105.128784 C40.6571639,104.690178 40.6415651,104.24833 40.6424276,103.804405 C40.6451586,102.377811 40.6427085,100.9513 40.6440152,99.5247058 C40.6443419,99.1650449 40.6473636,99.1628012 40.9967434,99.1617209 C41.5956218,99.1598096 42.1945819,99.1591447 42.7934604,99.1621364 C43.0991473,99.1635491 43.1042924,99.167621 43.1047824,99.4834046 C43.1068241,100.882243 43.1070691,102.281164 43.1046191,103.680003 C43.1040474,103.99911 43.1255263,104.314312 43.1957616,104.623115 C43.993749,104.671563 44.9322069,104.087945 45.3035556,103.314109 C45.5287169,102.845087 45.6163477,102.341496 45.6236979,101.825439 C45.6348049,101.050024 45.6288431,100.274359 45.6330082,99.4987783 C45.6347232,99.1663745 45.6379083,99.1632167 45.9711993,99.1618871 C46.5565207,99.1593941 47.1418421,99.1590616 47.7270818,99.1621364 C48.0274602,99.1636322 48.0380772,99.1679535 48.0366888,99.4452613 C48.0323603,100.386795 48.066498,101.328994 48.0104731,102.269779 C47.9078152,103.994623 47.0965158,105.215625 45.5179366,105.891236 C45.1282124,106.058019 44.7280345,106.189236 44.3191181,106.294275 C44.1904895,106.327266 44.0586758,106.347127 43.923677,106.429065 M-1.99871801,99.1616212 C-0.760045003,99.1617043 0.478546336,99.1603746 1.71713767,99.162286 C2.25223265,99.163117 2.7755673,99.2439742 3.2732579,99.4492335 C4.54157674,99.9724371 5.16577255,100.96674 5.27904738,102.324609 C5.30085299,102.586461 5.30828487,102.850223 5.30852988,103.113154 C5.31081661,105.190595 5.30983658,107.268119 5.30975491,109.345559 C5.30975491,109.414782 5.30665149,109.484172 5.3092649,109.553312 C5.31367502,109.670816 5.26761373,109.731148 5.14494696,109.730981 C4.39628767,109.729403 3.64771005,109.72907 2.89913243,109.731812 C2.75286333,109.732311 2.71227386,109.654196 2.71660232,109.523561 C2.71970574,109.426666 2.71660232,109.329687 2.71660232,109.232708 C2.71652065,107.266041 2.71643898,105.299374 2.71668399,103.332707 C2.71668399,103.041438 2.705332,102.751084 2.62447974,102.469288 C2.43696782,101.814868 1.99179036,101.421551 1.32872013,101.399197 C0.49929025,101.371192 -0.331609676,101.392549 -1.16169291,101.38158 C-1.36447692,101.378921 -1.37329717,101.488531 -1.37264382,101.642517 C-1.3695404,102.40422 -1.36733534,103.166007 -1.37256215,103.92771 C-1.379014,104.869244 -1.34675476,105.81111 -1.39747118,106.752228 C-1.42229854,107.211859 -1.510011,107.658527 -1.67751402,108.085832 C-2.03301897,108.992546 -2.69764091,109.535445 -3.62311348,109.748682 C-4.41726238,109.931753 -5.21255464,109.924524 -6.00980696,109.741452 C-6.22933311,109.690927 -6.29311656,109.58971 -6.28756307,109.373647 C-6.27498605,108.889252 -6.28601136,108.404275 -6.2827446,107.919547 C-6.28053954,107.599359 -6.27678277,107.598528 -5.97387262,107.62645 C-5.67529093,107.653956 -5.37711758,107.670078 -5.07731086,107.640577 C-4.57488346,107.591215 -4.25114773,107.322467 -4.09965182,106.834165 C-3.99609559,106.500349 -3.96734812,106.15548 -3.96644976,105.809198 C-3.96261132,104.451911 -3.96391802,103.094623 -3.96538806,101.737335 C-3.96571474,101.388062 -3.96914484,101.38615 -4.33012161,101.384987 C-4.88816556,101.383159 -5.44629119,101.387314 -6.00425347,101.383242 C-6.28862476,101.381164 -6.29360657,101.375597 -6.29564829,101.081087 C-6.29940507,100.540931 -6.29948674,100.000775 -6.29556663,99.4606184 C-6.29344323,99.1700144 -6.28821642,99.1633663 -6.00041503,99.1627846 C-4.66651602,99.1601253 -3.33261702,99.1616212 -1.99871801,99.1616212 M2.6194081,82.7131929 C3.51204975,82.7131929 4.38255912,82.7207551 5.25274181,82.707542 C5.45258574,82.7044673 5.54258493,82.794798 5.62907235,82.950363 C5.86248222,83.3706876 6.10642738,83.7848627 6.34204231,84.194218 C6.47924615,84.1854093 6.51028035,84.0802866 6.56516189,84.0118114 C7.30679765,83.0876458 8.28306831,82.6365738 9.43280383,82.5489023 C10.0468727,82.5021165 10.6575931,82.5539715 11.2503464,82.7327216 C12.6873116,83.1660099 13.5888552,84.1582353 14.0151671,85.5899815 C14.489582,87.1833591 14.4640197,88.7899497 13.9383166,90.3665409 C13.3113441,92.246783 11.7868297,93.3950719 9.83494175,93.5031862 C9.31952899,93.5317729 8.80289119,93.5515509 8.29090853,93.4368716 C8.14325106,93.4037975 8.08673615,93.3399759 8.08787951,93.187735 C8.09286132,92.5387997 8.0900029,91.8896982 8.0900029,91.2648622 C8.20303273,91.1530914 8.29401195,91.2265526 8.38156107,91.2361092 C8.7615667,91.2772442 9.14369573,91.2945292 9.52206799,91.2487406 C10.5019321,91.1300724 11.2011,90.6203312 11.5047452,89.6473853 C11.878789,88.4488203 11.8673553,87.2407818 11.402169,86.0710529 C10.9556031,84.9483591 9.84882547,84.4642961 8.75372648,84.8546212 C8.2231233,85.043759 7.85757306,85.424943 7.59615075,85.9102526 C7.17441227,86.692648 6.91552169,87.5351254 6.75716559,88.4109263 C6.49133315,89.8816469 6.34490072,91.3681566 6.18752465,92.8532537 C6.18025611,92.9219782 6.17952109,92.9914506 6.17225255,93.0602581 C6.13550152,93.4097807 6.13509318,93.4117751 5.77697482,93.4126893 C5.16478435,93.4143513 4.55259388,93.4133541 3.94048508,93.4131048 C3.52699517,93.4129386 3.54038888,93.4509157 3.58375509,92.9968521 C3.6600339,92.1984182 3.74545962,91.400566 3.84787249,90.6052068 C4.01921395,89.2754255 4.2045208,87.9473892 4.46733149,86.6323998 C4.50816597,86.4283039 4.46398307,86.2594427 4.36704202,86.0814405 C3.83349875,85.1016803 3.30714235,84.1178482 2.782746,83.1330189 C2.71994258,83.0150986 2.62528826,82.9076491 2.6194081,82.7131929 M51.6247244,93.2939962 C50.9853382,93.2939962 50.3458703,93.2970709 49.706484,93.2925835 C49.4221128,93.290589 49.417376,93.2837748 49.4151709,92.9870213 C49.4114141,92.4609923 49.4111691,91.9349633 49.4152526,91.4088512 C49.417621,91.1062806 49.4226844,91.1026242 49.7438884,91.1011284 C50.6553139,91.0968902 51.5668211,91.0959761 52.4783283,91.0937324 C52.9834508,91.092569 53.4828564,91.0345645 53.9750752,90.9225444 C55.1278325,90.6601947 55.8559112,89.9723682 56.0355012,88.7543576 C56.1454276,88.0094407 56.147306,87.2620308 55.9715544,86.5275015 C55.7133172,85.4477709 55.0518803,84.794265 53.9513095,84.6456805 C53.3347089,84.5624965 52.728072,84.6111105 52.1514075,84.8665628 C51.7091701,85.0625149 51.3748174,85.3765533 51.2153179,85.8513091 C50.92964,86.7018473 51.3103806,87.4672901 52.159166,87.7622154 C52.5138543,87.8854541 52.514426,87.8854541 52.5147527,88.268217 C52.5152427,88.7527787 52.5093625,89.2374234 52.5175294,89.7217357 C52.5205512,89.8982421 52.468773,89.967299 52.2860796,89.954917 C51.3084206,89.8883531 50.4144722,89.5929292 49.6760215,88.9213074 C48.8372814,88.1584407 48.5720206,87.165883 48.6867655,86.0617207 C48.8332796,84.6521624 49.5818572,83.6587736 50.8086066,83.0223866 C51.7534347,82.5321741 52.7709482,82.3850023 53.8152491,82.4032845 C54.2899907,82.4116777 54.7630173,82.4665243 55.228367,82.5852756 C56.8958836,83.0110017 57.9639502,84.0703726 58.4142728,85.7477653 C58.7576908,87.026772 58.7518106,88.3246426 58.4099443,89.6043972 C57.9223807,91.4300419 56.7021649,92.5040386 54.945629,93.0006498 C54.1393931,93.2285957 53.3131483,93.2842734 52.4818401,93.2934976 C52.1961621,93.2966554 51.9104024,93.2939962 51.6247244,93.2939962 M20.0643864,109.731189 C20.2760724,108.558801 20.4499456,107.439099 20.7455872,106.344992 C21.085575,105.086345 21.7716759,104.127027 23.0203125,103.66349 C23.0553485,103.650527 23.085076,103.622688 23.1464094,103.582882 C22.0936966,102.131026 21.0461289,100.68615 20.0032164,99.2478384 C20.073125,99.1083119 20.181418,99.1647374 20.2641487,99.1641557 C21.0532341,99.1591697 21.8425645,99.1716348 22.6313233,99.1551808 C22.8884988,99.1498624 23.0493867,99.2242377 23.2051294,99.4419622 C24.0775171,100.661469 24.9674637,101.868011 25.8526735,103.077878 C26.08641,103.397401 26.0966186,103.396487 26.4358715,103.188984 C26.9844418,102.853505 27.2780417,102.34044 27.4176956,101.723083 C27.5765417,101.02088 27.6413869,100.30347 27.7390629,99.5914608 C27.7977013,99.1639064 27.7900244,99.161912 28.1938773,99.1614134 C28.8197065,99.1605824 29.4455357,99.1593359 30.0713649,99.162743 C30.1909282,99.1634078 30.3161267,99.1314971 30.4445103,99.2082823 C30.4501455,99.6188841 30.3394024,100.020096 30.2677787,100.424382 C30.1666726,100.995202 30.0466192,101.5622 29.8935716,102.122882 C29.5200995,103.491638 28.718682,104.439404 27.3630591,104.863884 C27.3244297,104.875933 27.2880053,104.895296 27.1917993,104.936264 C28.3442299,106.517094 29.4864519,108.084128 30.6259788,109.647423 C30.5261793,109.764845 30.4261348,109.729693 30.338504,109.730026 C29.5495003,109.732934 28.7602515,109.722713 27.9713294,109.737172 C27.7281193,109.741577 27.5776034,109.662132 27.432886,109.461111 C26.492468,108.155014 25.5388197,106.858971 24.5887648,105.56002 C24.3122337,105.181911 24.2968799,105.181495 23.9461118,105.499024 C23.5636561,105.845223 23.3648738,106.295962 23.2585409,106.790828 C23.0814009,107.61519 22.9635526,108.450437 22.8417842,109.284771 C22.8278188,109.380503 22.8113217,109.475903 22.798908,109.571802 C22.7837992,109.688808 22.7198524,109.732851 22.6052709,109.732519 C21.7774744,109.730109 20.9496779,109.731189 20.0643864,109.731189 M36.8292911,93.2940377 C37.8882107,90.4806551 38.9202613,87.7389886 39.9512501,84.9998983 C39.7893006,84.9002603 39.6519334,84.9392346 39.5220798,84.9389022 C38.0395433,84.9356613 36.5570885,84.9373233 35.074552,84.9364923 C34.6922596,84.9363261 34.6894012,84.9343316 34.6891562,84.5645324 C34.6880128,82.8898821 34.6878495,81.2153149 34.6893195,79.5407477 C34.6896462,79.2086763 34.6938113,79.2055185 35.0254689,79.2043551 C35.6783305,79.2020282 36.3311921,79.2011141 36.9840537,79.2048537 C37.2668733,79.2064326 37.2729168,79.2122497 37.2738969,79.5085045 C37.2769186,80.4634175 37.2738152,81.4183305 37.2756936,82.3732435 C37.2763469,82.7083896 37.2796953,82.7122123 37.6057995,82.7125447 C39.1699233,82.7139574 40.734047,82.7131264 42.2980892,82.7132095 C42.3933152,82.7132095 42.4885412,82.7157856 42.5836855,82.713625 C42.6966337,82.7109658 42.7648272,82.7540121 42.7645017,82.8789959 C42.7629488,83.5017544 42.7667056,84.1245129 42.7561703,84.7470221 C42.7544553,84.8522279 42.695572,84.957683 42.6569425,85.060562 C41.6735667,87.6812335 40.6881491,90.3009909 39.7064883,92.9222441 C39.5379236,93.372485 39.5650377,93.2905475 39.1933623,93.2927081 C38.4335143,93.2972463 37.6736664,93.2940377 36.8292911,93.2940377 M13.5872871,109.731754 C14.6473501,106.91671 15.6808707,104.172384 16.7156164,101.424402 C16.536843,101.360497 16.3868172,101.386425 16.2398947,101.386175 C14.7567865,101.384015 13.27376,101.385594 11.7906518,101.384264 C11.4421704,101.383932 11.4389037,101.380441 11.438577,101.016293 C11.4373519,99.3411441 11.4372703,97.6659952 11.4387403,95.9907632 C11.439067,95.6548692 11.4430688,95.6513789 11.7743997,95.6502155 C12.441145,95.6478056 13.1078904,95.6558664 13.7744724,95.6457154 C13.9717846,95.6428195 14.0300145,95.7094665 14.0282178,95.9077454 C14.0196426,96.8629908 14.0240527,97.8182362 14.0246244,98.7735647 C14.024951,99.1732802 13.9842799,99.1614799 14.3927063,99.1613968 C15.9437631,99.1608982 17.4948198,99.1611475 19.0459583,99.1612306 C19.1411843,99.1612306 19.2364919,99.1647208 19.3316363,99.1610644 C19.4466261,99.1567431 19.5107363,99.2016176 19.5101684,99.3259367 C19.5073878,99.962573 19.5100829,100.599376 19.4985676,101.236012 C19.4966892,101.341301 19.4380509,101.446922 19.3993398,101.549967 C18.4203741,104.158672 17.4406733,106.767045 16.4608909,109.375417 C16.3273622,109.730674 16.3267088,109.731256 15.9363312,109.731588 C15.1759116,109.732253 14.415492,109.731754 13.5872871,109.731754 M62.0977467,87.8392832 C62.3731345,87.8406959 62.3782796,87.8464299 62.3786063,88.144513 C62.380403,89.7635687 62.3768096,91.3827076 62.3829485,93.0017634 C62.3837514,93.2041142 62.3487971,93.3031705 62.1178373,93.2986831 C61.4245496,93.2851376 60.7306901,93.2868827 60.0371574,93.2978521 C59.8149362,93.3013423 59.7663432,93.2115933 59.7689566,93.003093 C59.7790835,92.1867093 59.7731217,91.3702425 59.7731217,90.5537756 C59.7731217,89.7511867 59.7714066,88.9485146 59.7741017,88.1459257 C59.7750001,87.8472609 59.7798185,87.8408621 60.057738,87.8392832 C60.7377953,87.8354605 61.417771,87.8357098 62.0977467,87.8392832 Z M65.6517836,82.7145391 C66.2001089,82.7186942 66.7352856,82.809108 67.2418781,83.0303227 C68.4207694,83.5451331 69.0007823,84.4990489 69.1517065,85.7587761 C69.2723316,86.7653779 69.2050364,87.777132 69.2199001,88.7865592 C69.2242286,89.0771632 69.2206351,89.3678503 69.2206351,89.6585374 C69.2206351,90.7381019 69.2217785,91.8175832 69.2199818,92.8971476 C69.2193284,93.274509 69.2951172,93.2961983 68.8158021,93.2946139 L67.918097,93.2934138 L66.848908,93.293501 C66.5651458,93.2876637 66.6152672,93.2391911 66.6149872,92.8592536 C66.6131905,90.8800383 66.6134355,88.9009061 66.6150689,86.9216908 C66.6153139,86.6580115 66.6031452,86.3972407 66.5446702,86.1386306 C66.3810873,85.4141565 65.8989138,84.9866852 65.1716518,84.9434727 C64.9140679,84.9280991 64.655014,84.9371571 64.3966134,84.937074 C62.9683051,84.9366585 61.5401601,84.9378219 60.1120152,84.9360768 C59.7787242,84.9356613 59.7757024,84.9315893 59.773824,84.5982714 C59.7710473,84.1000812 59.772079,83.6018079 59.7734157,83.1036178 C59.7743957,82.7166997 59.7757024,82.7141236 60.1430494,82.7137081 C61.2312065,82.7122954 62.319282,82.7132095 63.4074391,82.7132095 C64.1555267,82.7132095 64.903696,82.7089714 65.6517836,82.7145391 Z M24.6442833,87.832552 C25.3369994,87.8478426 26.0302871,87.842441 26.7233298,87.8352112 C26.9077383,87.8332999 26.989489,87.8790885 26.9885979,88.0889184 C26.9814037,89.7344003 26.9823838,91.3798822 26.9876922,93.0254471 C26.9882639,93.2159976 26.9399159,93.2999296 26.7367236,93.2973535 C26.0302054,93.2882123 25.3233607,93.2869658 24.6168425,93.2978521 C24.3993581,93.3011761 24.3795126,93.1937266 24.3807376,93.0168878 C24.3864544,92.187291 24.3832693,91.3576111 24.3832693,90.5279313 C24.3832693,89.725924 24.3881695,88.9238337 24.3798392,88.1219095 C24.3777158,87.9203897 24.4152836,87.8275659 24.6442833,87.832552 Z M30.3767578,82.7214448 C31.3115406,82.734741 32.1702897,83.0211899 32.8512454,83.7241408 C33.5120289,84.4063165 33.7536873,85.2621732 33.777943,86.1816021 C33.8073438,87.3016367 33.7849665,88.4230009 33.7849665,89.5438664 L33.7953385,89.5438664 C33.7953385,90.6924046 33.7968085,91.841026 33.7943584,92.9895642 C33.7937051,93.2848218 33.7879883,93.2910544 33.506067,93.2927164 C32.8396484,93.2966222 32.1732297,93.2967884 31.5068927,93.2927164 C31.2079844,93.2909713 31.2030842,93.2848218 31.2027576,92.9584844 C31.2011242,90.9796846 31.2031659,89.0008017 31.2006342,87.0219189 C31.2002258,86.6907616 31.2037376,86.3591057 31.1092466,86.0345134 C30.9201013,85.3845809 30.4821924,85.0073857 29.8211639,84.9464727 L29.6176959,84.9371862 L29.4135542,84.9372485 C27.8495937,84.9366668 26.2855516,84.9375809 24.7215911,84.9362513 C24.3887902,84.9359189 24.3856867,84.9324286 24.3839717,84.6015207 C24.3812766,84.075741 24.3807866,83.5498782 24.3842167,83.0240154 C24.3861768,82.7212786 24.3905052,82.7145474 24.6649129,82.7142981 C26.5688612,82.7123037 28.4731362,82.6946032 30.3767578,82.7214448 Z M62.1222556,104.286756 C62.3557471,104.28177 62.3843313,104.385147 62.3825346,104.581182 C62.3751843,105.396237 62.3794311,106.211291 62.3794311,107.026428 C62.3794311,107.827687 62.3813095,108.628947 62.3784511,109.430206 C62.3774711,109.72322 62.3724076,109.728954 62.0917114,109.730533 C61.4128791,109.734106 60.7339651,109.726544 60.0552144,109.734937 C59.8558605,109.737347 59.7667597,109.693719 59.7680522,109.46087 C59.7777033,107.830762 59.77705,106.200571 59.7685564,104.570462 C59.7674947,104.351159 59.8347899,104.285094 60.0451691,104.288252 C60.7374768,104.298473 61.4301112,104.301797 62.1222556,104.286756 Z M65.8125897,99.1723578 C66.7047414,99.1844905 67.5264944,99.4596378 68.1929947,100.106994 C68.7944865,100.691028 69.0647291,101.427884 69.15628,102.24917 C69.2685748,103.257351 69.2038113,104.269271 69.2199001,105.279363 C69.2243919,105.556339 69.2206351,105.833397 69.2206351,106.110373 C69.2206351,107.20448 69.2217785,108.298587 69.2199001,109.392694 C69.2193284,109.726261 69.215735,109.729752 68.8817907,109.730998 C68.2285207,109.733574 67.5751691,109.733907 66.9218175,109.730749 C66.619479,109.729419 66.6151505,109.724932 66.6149055,109.407486 C66.6135172,107.385391 66.6126188,105.363378 66.6159672,103.341366 C66.6164572,103.062396 66.5966934,102.787415 66.5300515,102.517919 C66.3672036,101.859011 65.8933603,101.445335 65.2235933,101.398383 C64.8847488,101.374616 64.5433725,101.385668 64.2031397,101.385336 C62.8556836,101.384256 61.5082276,101.385419 60.1606899,101.384505 C59.7766008,101.384256 59.7748041,101.382344 59.7734974,101.011963 C59.7718479,100.499563 59.7706389,99.9870795 59.774069,99.474679 C59.7760291,99.1709451 59.7801942,99.1627181 60.0552552,99.162635 C61.974394,99.1612223 63.8937777,99.1460148 65.8125897,99.1723578 Z M22.8025259,89.4930253 C22.8025259,90.6418128 22.8035876,91.7906003 22.8018726,92.9394709 C22.8013826,93.286916 22.7979525,93.2911541 22.4778102,93.2925668 C21.8248669,93.2954754 21.1719236,93.2957247 20.519062,93.2924006 C20.2154168,93.2908217 20.2103534,93.2859188 20.2101084,92.9660632 C20.208475,90.9868479 20.2083933,89.0075495 20.210435,87.0282512 C20.21068,86.7783666 20.1952446,86.5308089 20.1594736,86.2837498 C20.0365618,85.4349567 19.5137172,84.9504782 18.6663201,84.9400905 C17.6054404,84.9272099 16.5443157,84.9366834 15.4832727,84.9364341 C15.3880467,84.9364341 15.2928207,84.938013 15.1975947,84.9361848 C14.8929695,84.9302846 14.8884777,84.9298691 14.8862727,84.6121742 C14.8826792,84.0724335 14.8920711,83.5324436 14.8821075,82.9928691 C14.8781874,82.7811279 14.9427059,82.7074174 15.1604353,82.7088102 C16.5750233,82.7182205 17.9898562,82.7039271 19.4043625,82.7195501 C19.8800024,82.7248686 20.3482922,82.8213488 20.794123,83.0108189 C21.8466725,83.4579851 22.4501244,84.2702969 22.6819825,85.3899991 C22.7978708,85.9493516 22.793624,86.5180944 22.8001575,87.0846767 C22.8093861,87.8873488 22.8025259,88.690187 22.8025259,89.4930253 M39.2179854,105.708987 C39.2179854,107.077327 39.2190471,108.225782 39.2173321,109.37432 C39.2168421,109.727666 39.213412,109.729909 38.8560286,109.730824 C38.2305261,109.732652 37.604942,109.731488 36.9793578,109.731239 C36.6037623,109.731073 36.6246695,109.758995 36.6247512,109.372991 C36.6248328,107.380396 36.6232811,105.387802 36.6263846,103.395124 C36.6268746,103.102775 36.6083357,102.812503 36.5419389,102.52996 C36.3781109,101.832577 35.892589,101.421975 35.1681854,101.395134 C34.5434179,101.372032 33.9172621,101.385909 33.2917595,101.384746 C32.7205669,101.383666 32.1492109,101.375273 31.5784266,101.389233 C31.3633106,101.394386 31.2933203,101.322836 31.2974037,101.107771 C31.3078573,100.554484 31.3063873,100.000783 31.2978937,99.4473305 C31.2947903,99.2443149 31.3433833,99.1548983 31.5692797,99.1566184 C32.997098,99.1676958 34.4249979,99.1566184 35.8528162,99.1699396 C36.3022405,99.1740115 36.7461112,99.2634281 37.165318,99.4376908 C38.4678561,99.9793428 39.0694296,101.025085 39.1763343,102.401652 C39.2673952,103.575453 39.1983849,104.753077 39.2179854,105.708987 M-3.44575302,86.6784211 C-3.44575302,87.717183 -3.44648804,88.7558617 -3.44550801,89.7945405 C-3.445018,90.2668862 -3.4773589,90.7349939 -3.60321076,91.1922153 C-3.91608452,92.328787 -4.65216679,93.0050625 -5.77862666,93.24672 C-6.04413242,93.3036442 -6.31453832,93.3371339 -6.58878267,93.3352226 C-7.1876611,93.3311506 -7.7866212,93.3302365 -8.38533629,93.3394607 C-8.58093343,93.3424523 -8.68301962,93.3057217 -8.67632277,93.0695488 C-8.660724,92.5160965 -8.660724,91.9614808 -8.67648611,91.4079454 C-8.68310129,91.1745148 -8.58501688,91.1286431 -8.38803137,91.1338784 C-8.0344048,91.1431857 -7.68020655,91.1420223 -7.32641665,91.1348756 C-6.4626858,91.1174244 -6.05719945,90.7035817 -6.05385103,89.8196369 C-6.04805253,88.2962304 -6.05303434,86.7727407 -6.05148263,85.249251 C-6.05115595,84.9098667 -6.06038454,84.9357111 -6.36884818,84.936459 C-6.96772661,84.9378717 -7.56668671,84.9312237 -8.16548347,84.9399493 C-8.35283205,84.9426916 -8.43433766,84.8930803 -8.43017255,84.6851618 C-8.41890223,84.1175823 -8.42110729,83.5495042 -8.42927419,82.9818416 C-8.43196926,82.7950307 -8.38999142,82.7082733 -8.18181726,82.7093536 C-6.68466202,82.7167496 -5.18742511,82.7192426 -3.69026986,82.7075874 C-3.43170596,82.7056141 -3.44428298,82.845473 -3.44460965,83.0221456 C-3.44673304,84.2409041 -3.44575302,85.4596626 -3.44575302,86.6784211 M1.60428752,88.0064158 C1.60428752,89.6523963 1.60502254,91.2983768 1.60371583,92.9443572 C1.60338916,93.2864007 1.59979572,93.2908882 1.27581161,93.2924671 C0.623361723,93.295625 -0.0291732101,93.2951263 -0.681626474,93.2927164 C-1.01883758,93.291553 -1.02210434,93.2883952 -1.02390106,92.9588168 C-1.0266778,92.4332864 -1.02463608,91.9075898 -1.02463608,91.3819763 C-1.02463608,89.4040075 -1.02463608,87.4261219 -1.02463608,85.4481531 C-1.02463608,85.3513405 -1.03002623,85.2541955 -1.02390106,85.1577984 C-1.01401911,85.0017348 -1.07273909,84.9300187 -1.2339536,84.9347555 C-1.49202749,84.9421514 -1.7505914,84.9308497 -2.00866529,84.9379964 C-2.16767474,84.9424838 -2.2222296,84.8744242 -2.2209229,84.7172803 C-2.21594109,84.1364046 -2.20924424,83.5551966 -2.22394465,82.9746534 C-2.22982481,82.7403087 -2.12920866,82.703495 -1.93328485,82.7045527 C-0.859419785,82.7109741 0.214445276,82.7061542 1.28831034,82.7085642 C1.59767233,82.709229 1.60265414,82.714215 1.60338916,83.027007 C1.60575756,84.1058235 1.60428752,85.1847231 1.60428752,86.2636227 L1.60428752,88.0064158 Z M47.4209294,86.1603033 C47.4209294,87.1989821 47.4223994,88.2376608 47.420031,89.2762565 C47.4193777,89.5902118 47.4147226,89.5946993 47.1062589,89.5960289 C46.4393503,89.5990205 45.7724416,89.599436 45.1056146,89.5956965 C44.8233667,89.5941176 44.8172415,89.5882174 44.8166698,89.2934584 C44.8142198,88.0333156 44.8156081,86.7730897 44.8156081,85.5127807 C44.8156081,85.415885 44.8073596,85.3180752 44.8171598,85.2221767 C44.8383938,85.0159202 44.7751003,84.9160328 44.5503474,84.9330685 C44.3202859,84.9505197 44.0875294,84.9285811 43.8565696,84.9391349 C43.6895566,84.9466971 43.6461904,84.8660891 43.6470071,84.7158426 C43.6499472,84.1203412 43.6506005,83.5248398 43.646501,82.9294215 C43.645537,82.7770975 43.6890666,82.704218 43.8553446,82.7049659 C44.9712692,82.710035 46.0873571,82.7117802 47.2032816,82.7041219 C47.4378349,82.702556 47.4218278,82.8454896 47.4215828,83.0027997 C47.4201944,83.8752765 47.4209294,84.7477534 47.4210111,85.6202302 C47.4210111,85.8002269 47.4210111,85.9802236 47.4209294,86.1603033 M10.2828061,102.614374 C10.2828061,103.652222 10.2843578,104.690153 10.2818261,105.728 C10.2810911,106.038798 10.2760276,106.042538 9.96674727,106.043784 C9.31396733,106.046277 8.66118739,106.046443 8.00840745,106.043701 C7.68655011,106.042288 7.68246666,106.038299 7.68197665,105.692101 C7.68017993,104.377444 7.6813233,103.062787 7.6813233,101.74813 C7.68124163,101.362791 7.70606899,101.384563 7.33284188,101.384813 C7.12883283,101.384979 6.92482379,101.381987 6.72089641,101.385394 C6.59537123,101.387389 6.5120689,101.357057 6.51271844,101.204483 C6.515744,100.581725 6.51476398,99.9590495 6.51353894,99.336291 C6.51329393,99.2162933 6.56621542,99.1583719 6.68455373,99.1621115 C6.72530654,99.163358 6.76614101,99.1612804 6.80697549,99.1612804 C7.86777352,99.1611973 8.92857155,99.1597015 9.98936957,99.1621946 C10.2747209,99.1629425 10.2809277,99.1685102 10.2816628,99.4591973 C10.2845212,100.51084 10.2828061,101.562649 10.2828061,102.614374 M58.0509766,102.631983 C58.0510583,103.669914 58.0527734,104.707845 58.0498333,105.745859 C58.0490982,106.036629 58.0428097,106.041864 57.7568867,106.04336 C57.0905497,106.046767 56.4240494,106.046601 55.7576308,106.043526 C55.4510455,106.042114 55.4460637,106.03746 55.4455737,105.721261 C55.4433686,104.448071 55.4446753,103.174799 55.4446753,101.901609 C55.4446753,101.818591 55.4348751,101.734077 55.4463904,101.652805 C55.4789763,101.42328 55.3696216,101.369597 55.1674092,101.381646 C54.9370211,101.395441 54.7050813,101.380234 54.4740398,101.385801 C54.3338959,101.389209 54.2811378,101.327132 54.2817911,101.188769 C54.2844862,100.579805 54.2862012,99.9709247 54.2807067,99.3619609 C54.279096,99.1884461 54.3657468,99.1592777 54.5093208,99.1596932 C55.6109533,99.162768 56.7126675,99.1670061 57.8142183,99.1565883 C58.0343978,99.154541 58.05359,99.2599961 58.0529521,99.4350898 C58.0490166,100.500776 58.0509766,101.56638 58.0509766,102.631983 M-9.96231477,86.1555783 C-9.96231477,87.1924288 -9.9609264,88.2291962 -9.96304979,89.2660468 C-9.96370314,89.5995309 -9.96778659,89.6025225 -10.2979742,89.6036028 C-10.9365437,89.6057634 -11.5750316,89.6058465 -12.2136011,89.6036028 C-12.5469738,89.6024394 -12.5517923,89.5993647 -12.5523639,89.2668778 C-12.5544057,87.9813061 -12.5524456,86.6956513 -12.553589,85.4099135 C-12.554079,84.8724996 -12.520268,84.9553513 -13.0118335,84.9423044 C-13.2395265,84.9362381 -13.5238978,85.0394494 -13.6798038,84.890948 C-13.838895,84.7392057 -13.732562,84.4466904 -13.7378705,84.2165007 C-13.7476707,83.8019932 -13.732317,83.3868209 -13.7440773,82.9723965 C-13.7497125,82.7728711 -13.6816006,82.7103792 -13.4868201,82.7117919 C-12.4000513,82.719271 -11.3130376,82.7221795 -10.2262688,82.7098273 C-9.99416566,82.7072213 -9.95831299,82.804117 -9.95943041,83.0036424 C-9.96558153,84.0542877 -9.96231477,85.104933 -9.96231477,86.1555783 M-6.69256757,118.496469 C-5.88878174,118.512674 -5.31709907,118.02321 -5.25094722,117.235246 C-5.21631958,116.822733 -5.22293477,116.405982 -5.22571151,115.991225 C-5.22685488,115.815467 -5.17311671,115.753307 -4.99507839,115.744997 C-4.43850447,115.718654 -4.43491104,115.711009 -4.44021952,116.276677 C-4.44373129,116.649385 -4.42453908,117.02176 -4.47933895,117.3948 C-4.5928588,118.167888 -5.01516895,118.6763 -5.72152372,118.951696 C-5.94791006,119.039867 -6.18082991,119.111001 -6.4386588,119.19942 C-6.13199188,119.75844 -5.66941893,120.028269 -5.08287251,120.086523 C-4.03040472,120.191064 -3.18480438,119.528334 -2.97377181,118.440543 C-2.92648548,118.196974 -2.8996164,117.949665 -2.90263815,117.698451 C-2.909335,117.145082 -2.89871804,116.591463 -2.90794663,116.038177 C-2.91121339,115.841893 -2.88418096,115.73544 -2.6486477,115.744166 C-2.01089485,115.767684 -2.1412385,115.684416 -2.13258159,116.271774 C-2.12457803,116.811348 -2.1328266,117.351089 -2.13029486,117.890747 C-2.12866148,118.239272 -2.17864288,118.577659 -2.27991238,118.911392 C-2.68115195,120.234775 -3.82909075,120.927255 -5.14069413,120.80759 C-6.58745963,120.675543 -7.48385806,119.686392 -7.53204274,118.203539 C-7.55589007,117.470921 -7.53310444,116.73689 -7.54527311,116.003773 C-7.54862154,115.801589 -7.48459308,115.740842 -7.28964929,115.745745 C-6.64087113,115.762116 -6.77129644,115.690234 -6.76263953,116.263713 C-6.75504432,116.775532 -6.76133283,117.2876 -6.76084282,117.799585 C-6.76067948,118.034511 -6.74981751,118.268524 -6.69256757,118.496469 M66.0094691,120.013145 C66.2382238,120.073476 66.39952,120.084944 66.5618779,120.080872 C67.2320533,120.064335 67.6665321,119.740906 67.8586175,119.090974 C68.0395959,118.478104 68.0290606,117.858919 67.8323201,117.252947 C67.6717589,116.758164 67.3545567,116.417699 66.8178284,116.356869 C66.2506375,116.292549 65.8475196,116.553569 65.5758069,117.044031 C65.3245116,117.497845 65.2237321,118.000606 65.1551302,118.50827 C65.066356,119.165764 64.9872188,119.824921 64.9241704,120.485408 C64.9043248,120.693326 64.8438081,120.775097 64.6318772,120.763131 C64.078325,120.731802 64.0481075,120.901494 64.1318999,120.176771 C64.2287592,119.338864 64.3188401,118.500292 64.4915699,117.674186 C64.5291376,117.494438 64.4713977,117.351421 64.3924238,117.203169 C64.1467636,116.742125 63.9045335,116.279336 63.6471946,115.79145 C63.910087,115.712588 64.1535421,115.76677 64.3914438,115.749069 C64.5258709,115.739014 64.5814058,115.829594 64.6357973,115.929481 C64.745642,116.131084 64.8581002,116.331274 64.982972,116.556145 C65.0523906,116.478446 65.0889783,116.441134 65.1216459,116.400331 C65.6912868,115.6904 66.4303092,115.489877 67.2808097,115.691646 C68.1046861,115.8871 68.5336114,116.483349 68.7009511,117.284775 C68.8502419,117.999609 68.8290897,118.716936 68.580081,119.41166 C68.2114274,120.439868 67.387306,120.880719 66.3782044,120.827285 C66.028743,120.80867 66.0133075,120.781746 66.0097141,120.438539 C66.0084074,120.316048 66.0094691,120.193391 66.0094691,120.013145 M42.3279473,115.806891 C42.3941809,115.770492 42.4052062,115.759357 42.4169665,115.758609 C43.1709343,115.709746 43.1707709,115.709912 43.5480815,116.36965 C43.5748689,116.416436 43.6061481,116.460397 43.6310571,116.499038 C43.7061109,116.513581 43.7384518,116.470036 43.7726711,116.426325 C44.3561958,115.679829 45.1232306,115.476564 45.9995384,115.702931 C46.8172897,115.914091 47.2283295,116.530617 47.3824388,117.33279 C47.5117208,118.00624 47.495632,118.6821 47.2752075,119.340177 C46.9372614,120.349022 46.1231036,120.900563 45.0836211,120.830011 C44.6949586,120.803668 44.6768281,120.784388 44.6776448,120.390407 C44.6777264,120.307472 44.6791965,120.224371 44.684995,120.141685 C44.6868734,120.11634 44.7053305,120.092157 44.7241144,120.049526 C44.958096,120.062241 45.199101,120.103127 45.4407595,120.066728 C45.9757728,119.985871 46.3481015,119.689616 46.5093977,119.167576 C46.7102217,118.517976 46.709895,117.855828 46.4878371,117.210299 C46.3238459,116.733549 46.0059903,116.41037 45.4858407,116.355856 C44.9387404,116.298599 44.5377459,116.538678 44.2658699,117.011854 C44.0144929,117.44963 43.9175518,117.937848 43.8369446,118.430304 C43.7251398,119.112979 43.6512294,119.800722 43.5989612,120.489961 C43.5823824,120.708268 43.5030002,120.762283 43.3009512,120.764527 C42.7289419,120.770926 42.7244501,120.779153 42.7950121,120.212155 C42.9006917,119.361949 42.9797472,118.507422 43.1649724,117.669598 C43.2011518,117.50564 43.1550088,117.374673 43.0816701,117.23739 C42.8293947,116.765211 42.5821011,116.290289 42.3279473,115.806891 M12.5610432,120.683553 C13.1315009,119.276571 13.6792545,117.925682 14.2251298,116.579281 C14.1148767,116.459449 14.0003769,116.498922 13.9004141,116.49834 C13.2063096,116.494268 12.5121235,116.498507 11.8179374,116.495099 C11.5164973,116.493604 11.5098821,116.488368 11.5080854,116.209731 C11.5039203,115.558801 11.5124955,114.907788 11.5031853,114.257025 C11.5004902,114.065643 11.5488382,113.990852 11.7517039,113.984038 C12.3353102,113.964426 12.3349019,113.954537 12.3349836,114.532587 C12.3350652,114.837236 12.3306551,115.14205 12.3365353,115.446615 C12.3421704,115.737884 12.3468256,115.745446 12.6392004,115.747523 C13.3333048,115.752343 14.0274909,115.749102 14.721677,115.749352 C14.816903,115.749352 14.9122107,115.749518 15.0074367,115.751014 C15.0974359,115.752343 15.1690596,115.779434 15.1655478,115.889626 C15.1577893,116.13602 15.1920902,116.381085 15.0914741,116.624737 C14.5701811,117.886957 14.0549317,119.151837 13.5504626,120.421038 C13.4714887,120.619732 13.373976,120.706988 13.1633518,120.686961 C12.9888252,120.67034 12.8116852,120.683553 12.5610432,120.683553 M24.5086393,120.683553 C25.0826087,119.268344 25.6300357,117.918619 26.1848129,116.550694 C26.0743148,116.475571 25.9655318,116.497592 25.864834,116.497343 C25.1575808,116.495183 24.450246,116.489615 23.7430746,116.500086 C23.5353904,116.50316 23.4525781,116.443992 23.4561716,116.221614 C23.4669519,115.557388 23.4643384,114.892996 23.4572332,114.22877 C23.4553549,114.049854 23.518485,113.993595 23.6928482,113.985202 C24.2899299,113.956449 24.2896032,113.949717 24.2896849,114.567074 C24.2896849,114.816211 24.2896032,115.065348 24.2896849,115.314484 C24.2898482,115.79622 24.2723711,115.747773 24.6993364,115.74877 C25.3930324,115.750515 26.0866469,115.74769 26.7802613,115.750016 C27.1034253,115.751097 27.0981985,115.754587 27.1084888,116.093389 C27.115349,116.31851 27.079578,116.527924 26.9931722,116.738004 C26.5003001,117.936319 26.0160849,119.138291 25.5281946,120.338768 C25.3887857,120.681808 25.3878056,120.681725 25.0338524,120.68347 C24.8852966,120.684218 24.7367407,120.683553 24.5086393,120.683553 M3.22422386,120.683553 C2.62608045,120.683553 2.02793704,120.685963 1.42971196,120.682556 C1.13643875,120.680894 1.13064026,120.675991 1.13006857,120.392783 C1.12908855,119.875812 1.09552261,119.93847 1.55450212,119.936975 C2.19339834,119.934814 2.8324579,119.930908 3.47127244,119.939634 C3.65951938,119.942127 3.73645153,119.891685 3.73302144,119.684348 C3.72158779,118.97907 3.72999969,118.27346 3.72452787,117.568016 C3.72362951,117.44511 3.70166056,117.320126 3.67323977,117.200045 C3.56306835,116.734098 3.31414138,116.516041 2.8421765,116.500584 C2.39397729,116.485958 1.94496139,116.499088 1.49635383,116.495266 C1.19426037,116.492606 1.1939337,116.488867 1.1894419,116.167682 C1.18829854,116.084664 1.19254532,116.001563 1.1891969,115.918711 C1.18421509,115.794725 1.24375176,115.74744 1.36078337,115.749435 C1.99935291,115.760487 2.64102587,115.702649 3.27600198,115.780431 C3.88721242,115.855305 4.28665527,116.223442 4.46273353,116.827005 C4.53256049,117.066585 4.55395775,117.314059 4.55232437,117.565273 C4.54783258,118.25684 4.54873094,118.948489 4.55191603,119.640138 C4.5533044,119.928748 4.55836788,119.928748 4.84420921,119.936393 C5.33250788,119.949357 5.32205425,119.949273 5.31633743,120.429098 C5.3140507,120.628374 5.25606574,120.691365 5.0594069,120.687708 C4.44786978,120.676324 3.83600599,120.683553 3.22422386,120.683553 M51.4243006,120.646623 C51.9790778,119.277452 52.5305883,117.916342 53.0920623,116.530717 C52.8368468,116.474125 52.6210775,116.498806 52.4080848,116.497393 C51.8230901,116.493654 51.2380138,116.489997 50.6531824,116.499387 C50.4524401,116.502628 50.3603175,116.45335 50.364646,116.22449 C50.3773863,115.560347 50.3736296,114.895622 50.3661977,114.231313 C50.3643193,114.054641 50.4218959,113.994392 50.5977292,113.985168 C51.1841939,113.954421 51.1838672,113.94744 51.1838672,114.532388 C51.1839489,114.83687 51.1807638,115.141518 51.1847656,115.446 C51.1887674,115.740177 51.1920341,115.74641 51.4754254,115.747989 C52.1828419,115.751728 52.8902583,115.749069 53.5976748,115.749401 C53.6928191,115.749485 53.7880451,115.750316 53.8831895,115.753723 C53.96151,115.756465 54.0130431,115.797766 54.0130431,115.879953 C54.0130431,116.127345 54.0419539,116.374653 53.9429711,116.616394 C53.4202898,117.892242 52.8998953,119.169172 52.3893826,120.450173 C52.3149006,120.637067 52.2110993,120.703963 52.0244858,120.685182 C51.8373005,120.666152 51.6461135,120.710611 51.4243006,120.646623 M29.1127724,118.061546 L29.1127724,121.938594 L28.2587402,121.938594 L28.2587402,118.061546 L29.1127724,118.061546 Z M28.5097974,115.750124 C29.7866098,115.748795 31.0634222,115.748462 32.3402346,115.749875 C32.6834892,115.750124 32.6806308,115.753365 32.6861843,116.118095 C32.6893694,116.327676 32.6597235,116.525373 32.5861398,116.724982 C32.1384306,117.939502 31.6952132,119.155851 31.2631844,120.376188 C31.1835572,120.601225 31.0827777,120.725378 30.8323807,120.686321 C30.6609576,120.659645 30.4822659,120.712581 30.2834837,120.643773 C30.5324106,119.954534 30.7786425,119.269616 31.0272428,118.585612 C31.271188,117.914572 31.5175832,117.244529 31.7913375,116.496122 L30.8732968,116.496122 C30.0854365,116.496122 29.2976577,116.497784 28.5097974,116.495374 C28.1716062,116.494376 28.1711979,116.490637 28.1674411,116.160643 L28.1671961,115.80655 C28.2918229,115.728103 28.403056,115.750291 28.5097974,115.750124 Z M55.7884036,115.75098 C56.386302,115.746327 56.9845271,115.740343 57.5822622,115.752144 C58.613251,115.772337 59.1779102,116.318975 59.2038809,117.363637 C59.2293616,118.386278 59.2069843,119.410081 59.2168216,120.433303 C59.218663,120.637316 59.149326,120.69208 58.9574857,120.687177 C58.2610945,120.669559 58.3930715,120.755569 58.3867014,120.129071 C58.3786161,119.341024 58.385558,118.552729 58.3840063,117.764516 C58.3836796,117.612525 58.386293,117.45912 58.3668558,117.30904 C58.3005406,116.794562 58.0097991,116.513681 57.4979798,116.501133 C56.8731307,116.486008 56.2477098,116.496728 55.6226157,116.496147 C55.527553,116.496063 55.4321637,116.491991 55.3372643,116.496728 C55.1878102,116.504207 55.1080196,116.450441 55.1164315,116.283574 C55.1246801,116.119284 55.1182282,115.954162 55.1182282,115.788625 C55.3550682,115.720482 55.5732876,115.752559 55.7884036,115.75098 Z M55.8606807,118.07661 C55.9441463,118.080682 55.9448813,118.170348 55.944963,118.238657 C55.945453,118.996953 55.945453,119.755166 55.943983,120.513462 C55.9439013,120.58094 55.9408796,120.668861 55.8554538,120.672102 C55.6397661,120.680246 55.4226901,120.683071 55.2077374,120.666285 C55.1015677,120.657975 55.1196982,120.545041 55.1192082,120.466344 L55.1179832,119.90802 L55.1182282,119.349634 C55.1181465,118.991219 55.1174932,118.632722 55.1186365,118.274307 C55.1189632,118.193949 55.1049162,118.084837 55.2127192,118.077857 C55.4279985,118.063896 55.6450746,118.065973 55.8606807,118.07661 Z M6.70791105,118.05822 C7.38372163,118.07268 7.23777921,118.004371 7.25198961,118.603445 C7.25786978,118.852416 7.25296964,119.101719 7.25272463,119.350855 C7.25247963,119.724643 7.24725281,120.098431 7.25484803,120.472053 C7.25819645,120.635513 7.19253461,120.678227 7.039487,120.687035 C6.43088996,120.722187 6.43121664,120.727589 6.43113497,120.124276 C6.43113497,119.529107 6.44069023,118.933605 6.4263165,118.338769 C6.42092635,118.113731 6.50235029,118.053899 6.70791105,118.05822 Z M8.98974159,115.756914 C9.9188076,115.79622 10.4739931,116.353495 10.5103358,117.304669 C10.5340198,117.926846 10.518421,118.550518 10.5195644,119.173526 C10.5202994,119.602659 10.515726,120.031959 10.5214428,120.461009 C10.5234845,120.613001 10.482405,120.701753 10.3166987,120.683221 L9.97341412,120.68308 C9.60988701,120.681723 9.70594948,120.644481 9.70009814,120.134838 C9.69103289,119.345794 9.69895478,118.556585 9.69699472,117.767375 C9.69666805,117.615383 9.69903645,117.461148 9.67559746,117.311816 C9.59090675,116.77033 9.30359538,116.508562 8.76311025,116.499255 C8.11016697,116.488285 7.45689701,116.497509 6.8037904,116.495681 C6.43113497,116.494684 6.42933825,116.492606 6.43236,116.107766 C6.43317669,115.999236 6.40859434,115.886551 6.48176972,115.749268 L7.38661332,115.749047 C7.53963674,115.749084 7.69332863,115.749213 7.8470296,115.749518 C8.22801527,115.750266 8.60940928,115.740709 8.98974159,115.756914 Z M-8.93068889,117.682263 C-8.93077056,118.165827 -8.93068889,118.649392 -8.93077056,119.132956 C-8.93077056,119.298743 -8.93926413,119.462867 -8.97054334,119.627241 C-9.11387235,120.3808 -9.49951315,120.719935 -10.2572377,120.746527 C-10.3792511,120.750849 -10.5015912,120.747441 -10.623768,120.747358 C-11.1506144,120.747192 -11.1668665,120.722511 -11.1187635,120.192244 C-11.1053698,120.045571 -11.0449347,120.003272 -10.9158161,120.005682 C-10.7393295,120.009006 -10.5622712,120.014325 -10.386438,120.003023 C-9.99083357,119.977428 -9.76975571,119.781642 -9.76199716,119.383007 C-9.74435667,118.485351 -9.75701536,117.587029 -9.75358526,116.68904 C-9.75301358,116.544528 -9.81932877,116.494917 -9.95097912,116.496163 C-10.2089713,116.498656 -10.4671269,116.489432 -10.7248741,116.498324 C-10.8999724,116.504307 -10.9639191,116.43633 -10.9606524,116.257165 C-10.9497904,115.653021 -11.005897,115.756731 -10.5072264,115.750415 C-10.0727475,115.744931 -9.63802369,115.757562 -9.20387154,115.745762 C-8.99733076,115.740194 -8.91892856,115.799279 -8.92546208,116.024482 C-8.94138752,116.576605 -8.93068889,117.129642 -8.93068889,117.682263 M60.4257546,120.747176 C60.3680147,120.493468 60.3762632,120.26386 60.4197111,120.005333 C60.6428307,120.005333 60.8595801,120.013976 61.0754311,120.003588 C61.5159535,119.982481 61.7194725,119.777886 61.7241276,119.325235 C61.7330295,118.466719 61.7211059,117.608037 61.7312328,116.749604 C61.7337646,116.544594 61.6646726,116.482269 61.4725056,116.493321 C61.2419541,116.506534 61.0096876,116.488418 60.7787278,116.498473 C60.6058347,116.506036 60.5427046,116.443045 60.5338026,116.262467 C60.5084036,115.749318 60.500645,115.749485 60.9870653,115.749318 C61.4361629,115.749069 61.8853421,115.75339 62.334358,115.747324 C62.4852006,115.745329 62.5544559,115.788625 62.5532468,115.956738 C62.5440022,117.133614 62.5649095,118.311321 62.5291385,119.487282 C62.5046378,120.292447 62.036838,120.717176 61.2449759,120.745597 C60.974815,120.755319 60.7039191,120.747176 60.4257546,120.747176 M38.3876164,120.674304 C38.0454234,120.677296 37.719401,120.781089 37.4952197,120.631092 C37.2990509,120.499959 37.3037877,120.160907 37.2217104,119.913432 C37.0654777,119.441917 36.9273755,118.964004 36.8435015,118.473542 C36.73039,117.811144 36.7216514,117.156143 37.1038621,116.53114 C36.8670221,116.471391 36.6656265,116.499396 36.4678243,116.498315 C36.3150217,116.497484 36.2385795,116.44322 36.2519732,116.279677 C36.265367,116.115968 36.2277992,115.949101 36.2792507,115.783897 C36.4656192,115.717582 36.6573779,115.7529 36.8455432,115.751155 C37.3892134,115.745836 37.933047,115.747914 38.4767989,115.749742 C38.8426758,115.750989 38.8425941,115.752983 38.8398174,116.140483 C38.8395723,116.168155 38.8363056,116.196327 38.8402257,116.223418 C38.8733833,116.451862 38.7588834,116.514769 38.5572428,116.497983 C38.4357194,116.487845 38.3124809,116.491335 38.1903858,116.497734 C37.838556,116.516016 37.6516974,116.665099 37.5324608,117.009802 C37.434213,117.293841 37.4516085,117.582035 37.5006099,117.870395 C37.6287485,118.623456 37.8963776,119.333304 38.1573099,120.045147 C38.2277902,120.237443 38.2981072,120.429988 38.3876164,120.674304 M41.1323792,118.239297 C41.1324609,118.944159 41.1340942,119.649105 41.1317258,120.353884 C41.1306641,120.676398 41.126989,120.684459 40.8288974,120.681966 C40.2043749,120.676565 40.304256,120.762408 40.3010709,120.17181 C40.2952724,119.066151 40.3003359,117.960493 40.2988659,116.854752 C40.2984575,116.518443 40.2952724,116.499662 39.9797036,116.502487 C39.7537256,116.504398 39.6926372,116.410079 39.7109311,116.20698 C39.7183629,116.124793 39.7155862,116.041111 39.7119928,115.958425 C39.7063576,115.827292 39.7476004,115.748678 39.8934612,115.750234 C40.2465161,115.753914 40.599816,115.755077 40.9528708,115.75059 C41.1371977,115.748097 41.1332776,115.868926 41.1330325,116.000308 C41.1316442,116.746638 41.1323792,117.492967 41.1323792,118.239297 M-12.285135,117.342555 C-12.285135,117.783821 -12.2934652,118.225253 -12.2814599,118.666187 C-12.2758247,118.870781 -12.3540636,118.926209 -12.5432905,118.922137 C-13.2644274,118.906431 -13.1341654,118.995931 -13.1428223,118.3514 C-13.1499275,117.827532 -13.1522142,117.303331 -13.1405356,116.779712 C-13.1358804,116.57171 -13.1896186,116.488609 -13.4094714,116.490105 C-13.7107482,116.492266 -13.7112382,116.4739 -13.71573,116.164432 C-13.716955,116.081747 -13.7123816,115.998895 -13.71524,115.916293 C-13.7196501,115.788234 -13.6493331,115.749509 -13.5375284,115.749842 C-13.1852085,115.750839 -12.832807,115.754745 -12.4806504,115.747847 C-12.3126574,115.744523 -12.2810515,115.829619 -12.2830116,115.977538 C-12.2889734,116.432516 -12.285135,116.887577 -12.285135,117.342555 M22.287987,117.353349 C22.287987,117.795114 22.2831685,118.236962 22.2903554,118.67856 C22.2931322,118.849831 22.2445391,118.925869 22.0611923,118.922129 C21.3181682,118.907088 21.4709708,118.995009 21.4601088,118.354882 C21.4511253,117.830432 21.4503086,117.305566 21.4621506,116.781283 C21.4668057,116.574694 21.4174776,116.488185 21.1952564,116.490097 C20.8855678,116.492839 20.8851594,116.474806 20.8797693,116.176972 C20.8785442,116.107999 20.8848327,116.038526 20.8788709,115.970051 C20.8650689,115.81432 20.9230538,115.745097 21.08435,115.748836 C21.4098008,115.756399 21.7357416,115.759224 22.0609473,115.747424 C22.241354,115.740859 22.2946839,115.810248 22.2910904,115.986837 C22.2819435,116.442148 22.287987,116.897873 22.287987,117.353349 M35.119184,117.354405 C35.119184,117.796834 35.1142022,118.239347 35.1215524,118.681693 C35.1244108,118.85795 35.0641392,118.925262 34.8860192,118.921855 C34.1392383,118.907478 34.2931026,118.994984 34.2820773,118.355854 C34.2730937,117.830573 34.2718686,117.304877 34.284364,116.779845 C34.2893458,116.570098 34.2351993,116.488742 34.0151831,116.490238 C33.7032894,116.492316 33.7031261,116.474449 33.7015744,116.132405 C33.6998593,115.753631 33.6998593,115.7528 34.0733314,115.750806 C34.3451257,115.749476 34.6172467,115.759282 34.8884692,115.747731 C35.0662626,115.740169 35.1261259,115.805403 35.1223691,115.985649 C35.1128139,116.44179 35.119184,116.898181 35.119184,117.354405 M19.0019714,116.937202 C18.4614862,116.937363 18.4591995,116.937363 18.4622213,116.387401 C18.4655697,115.781678 18.3985195,115.865693 18.988006,115.866607 C19.5784725,115.867521 19.4942718,115.776276 19.5032554,116.394381 C19.5035004,116.408176 19.5035004,116.422054 19.5032554,116.435848 C19.4950885,117.016226 19.5730824,116.927806 19.0019714,116.937202 M19.5033044,120.179106 C19.4938308,120.759317 19.5795015,120.682531 19.0131273,120.681368 C18.3720261,120.680121 18.4675787,120.774109 18.4630869,120.111877 C18.4593302,119.568979 18.4104105,119.620667 18.9363585,119.624656 C19.5928136,119.629559 19.4924424,119.530087 19.5033044,120.179106 M-26.520895,91.1531796 C-26.0723692,91.1722097 -25.697427,91.2430117 -25.3149713,91.1915722 C-24.8154023,91.1244267 -24.4928916,90.8652348 -24.3444175,90.3749392 C-24.2512332,90.0674657 -24.2145638,89.7512666 -24.2132571,89.4330731 C-24.2077036,88.0348165 -24.2086837,86.6363937 -24.2104804,85.2380541 C-24.2108887,84.9428795 -24.2169322,84.9371456 -24.4991801,84.9352342 C-25.0841748,84.9312454 -25.6693329,84.936647 -26.2543276,84.9328243 C-26.5422106,84.9309961 -26.5473558,84.9255945 -26.5494792,84.6349905 C-26.5533993,84.0950837 -26.5533176,83.5550937 -26.5495608,83.0151868 C-26.5475191,82.7200954 -26.5427007,82.7166051 -26.2589827,82.7121177 C-25.9733047,82.7076302 -25.6875451,82.7111205 -25.4017854,82.7111205 C-23.1295918,82.7111205 -20.8572348,82.7120346 -18.5849596,82.7101233 C-18.2158159,82.7098273 -17.8519807,82.7479342 -17.4938624,82.8366029 C-15.9856818,83.2099755 -15.0860983,84.2849693 -14.9717617,85.8579041 C-14.9457094,86.2165678 -14.9310906,86.5768935 -14.9304373,86.9364713 C-14.9265171,88.9024735 -14.9285589,90.8684757 -14.9285589,92.834478 C-14.9285589,92.9037011 -14.9332957,92.9733396 -14.9277422,93.0420641 C-14.9141851,93.2101774 -14.9657182,93.2956051 -15.1527401,93.2936938 C-15.8737953,93.2861316 -16.5950139,93.2878767 -17.3161507,93.2922811 C-17.4792436,93.2932783 -17.5320834,93.2179888 -17.5226098,93.0650831 C-17.516648,92.9686029 -17.5217931,92.8713748 -17.5217931,92.7744791 C-17.5217931,90.8361495 -17.5234265,88.8978198 -17.5199147,86.9595733 C-17.5194247,86.6949799 -17.5387803,86.4332119 -17.5845149,86.1746018 C-17.7128168,85.448715 -18.2038106,84.9736269 -18.9221707,84.9470346 C-19.7510289,84.9163703 -20.5818471,84.9396386 -21.4116854,84.931744 C-21.5725732,84.9302482 -21.6303948,84.9933218 -21.6260664,85.1492192 C-21.6206762,85.3429275 -21.623943,85.5368851 -21.6255763,85.7306765 C-21.6388067,87.267213 -21.5960939,88.8039989 -21.649587,90.3402861 C-21.660694,90.6597262 -21.7232524,90.9706068 -21.8080248,91.2783296 C-22.1017063,92.3440993 -22.7657566,93.0237819 -23.827453,93.2859654 C-24.6205402,93.4818344 -25.4159141,93.4696185 -26.2132481,93.3023363 C-26.4279558,93.2572956 -26.5382089,93.180261 -26.5280002,92.9216509 C-26.5052146,92.3429359 -26.520895,91.7626419 -26.520895,91.1531796" id="Combined-Shape" fill="#000000" fill-rule="nonzero" transform="translate(21.336533, 100.570460) rotate(-90.000000) translate(-21.336533, -100.570460) "></path>
            </g>
        </g>
    </g>
</svg>