<?xml version="1.0" encoding="UTF-8"?>
<svg width="482px" height="140px" viewBox="0 0 482 140" version="1.1" xmlns="http://www.w3.org/2000/svg" xmlns:xlink="http://www.w3.org/1999/xlink">
    <title>Group 7</title>
    <g id="Page-1" stroke="none" stroke-width="1" fill="none" fill-rule="evenodd">
        <g id="לובי-דסקטופ" transform="translate(-719.000000, -6016.000000)" fill="#6E4E9B" fill-rule="nonzero">
            <g id="Group-9-Copy" transform="translate(0.000000, 5930.016707)">
                <g id="Group-7" transform="translate(719.406186, 86.812057)">
                    <g id="Group-6" transform="translate(457.843406, 29.000000)">
                        <path d="M14.6312375,109.487687 L22.357846,109.487687 C23.0154297,109.487687 23.3442216,109.158895 23.3442216,108.501312 L23.3442216,5.91825336 C23.3442216,1.97275112 21.3714705,0 17.4259682,0 L0.986375561,0 C0.328791854,0 0,0.328791854 0,0.986375561 L0,8.71298412 C0,9.37056783 0.328791854,9.69935968 0.986375561,9.69935968 L13.6448619,9.69935968 L13.6448619,108.501312 C13.6448619,109.158895 13.9736538,109.487687 14.6312375,109.487687 Z" id="Path"></path>
                        <path d="M0.986375561,109.487687 L8.54858819,109.487687 C9.2061719,109.487687 9.53496375,109.158895 9.53496375,108.501312 L9.53496375,30.7420383 C9.53496375,30.0844546 9.2061719,29.7556627 8.54858819,29.7556627 L0.986375561,29.7556627 C0.328791854,29.7556627 0,30.0844546 0,30.7420383 L0,108.501312 C0,109.158895 0.328791854,109.487687 0.986375561,109.487687 Z" id="Path"></path>
                    </g>
                    <path d="M401.056208,109.487687 L412.399527,109.487687 C418.646572,109.487687 423.742846,104.555809 423.742846,98.3087642 L423.742846,5.91825336 C423.742846,1.97275112 421.770095,0 417.824592,0 L401.056208,0 C400.398624,0 400.069832,0.328791854 400.069832,0.986375561 L400.069832,8.71298412 C400.069832,9.37056783 400.398624,9.69935968 401.056208,9.69935968 L414.043486,9.69935968 L414.043486,97.8155764 C414.043486,98.9663479 413.221506,99.7883276 412.070735,99.7883276 L401.056208,99.7883276 C400.398624,99.7883276 400.069832,100.117119 400.069832,100.774703 L400.069832,108.501312 C400.069832,109.158895 400.398624,109.487687 401.056208,109.487687 Z" id="Path"></path>
                    <path d="M366.290713,83.7438436 L373.68853,83.7438436 C374.346113,83.7438436 374.674905,83.4150518 374.674905,82.7574681 L374.674905,34.2606697 C374.674905,30.3151674 372.702154,28.3424163 368.756652,28.3424163 L362.674003,28.3424163 C362.016419,28.3424163 361.687627,28.6712081 361.687627,29.3287919 L361.687627,37.0554004 C361.687627,37.7129841 362.016419,38.041776 362.674003,38.041776 L365.304338,38.041776 L365.304338,82.7574681 C365.304338,83.4150518 365.633129,83.7438436 366.290713,83.7438436 Z" id="Path"></path>
                    <path d="M327.744112,138.487687 L335.306325,138.487687 C335.963908,138.487687 336.2927,138.158895 336.2927,137.501312 L336.2927,34.9182534 C336.2927,30.9727511 334.319949,29 330.374447,29 L313.934854,29 C313.277271,29 312.948479,29.3287919 312.948479,29.9863756 L312.948479,37.7129841 C312.948479,38.3705678 313.277271,38.6993597 313.934854,38.6993597 L326.757737,38.6993597 L326.757737,137.501312 C326.757737,138.158895 327.086528,138.487687 327.744112,138.487687 Z" id="Path"></path>
                    <path d="M279.191645,115.743844 L286.589462,115.743844 C287.247045,115.743844 287.575837,115.415052 287.575837,114.757468 L287.575837,12.1744097 C287.575837,8.22890751 285.603086,6.25615638 281.657584,6.25615638 L275.410538,6.25615638 C274.752955,6.25615638 274.424163,6.58494824 274.424163,7.24253195 L274.424163,14.9691405 C274.424163,15.6267242 274.752955,15.9555161 275.410538,15.9555161 L278.205269,15.9555161 L278.205269,114.757468 C278.205269,115.415052 278.534061,115.743844 279.191645,115.743844 Z" id="Path"></path>
                    <path d="M198.155371,76.1552848 L204.895604,61.3596513 C205.224396,60.8664636 205.388792,60.2088799 205.388792,59.5512962 L205.388792,20.9182534 C205.388792,16.9727511 203.416041,15 199.470539,15 L193.387889,15 C192.730306,15 192.401514,15.3287919 192.401514,15.9863756 L192.401514,23.7129841 C192.401514,24.3705678 192.730306,24.6993597 193.387889,24.6993597 L196.018224,24.6993597 L196.018224,60.5376717 L195.360641,62.0172351 L187.798428,24.5349638 L187.798428,15.9863756 C187.798428,15.3287919 187.469636,15 186.812052,15 L179.24984,15 C178.592256,15 178.263464,15.3287919 178.263464,15.9863756 L178.263464,24.5349638 L185.496885,60.3732758 L178.756652,74.5113255 C178.42786,75.0045133 178.263464,75.662097 178.263464,76.3196807 L178.263464,123.501312 C178.263464,124.158895 178.592256,124.487687 179.24984,124.487687 L190.593159,124.487687 C191.250742,124.487687 191.579534,124.158895 191.579534,123.501312 L191.579534,115.774703 C191.579534,115.117119 191.250742,114.788328 190.593159,114.788328 L187.634032,114.788328 L187.634032,75.3333051 L188.291616,74.5113255 L196.347016,115.117119 L196.347016,123.501312 C196.347016,124.158895 196.675808,124.487687 197.333392,124.487687 L204.895604,124.487687 C205.553188,124.487687 205.88198,124.158895 205.88198,123.501312 L205.88198,115.117119 L198.155371,76.1552848 Z" id="Path"></path>
                    <path d="M141.876296,109.487687 L149.274112,109.487687 C149.931696,109.487687 150.260488,109.158895 150.260488,108.501312 L150.260488,5.91825336 C150.260488,1.97275112 148.287737,2.27373675e-13 144.342234,2.27373675e-13 L138.095189,2.27373675e-13 C137.437605,2.27373675e-13 137.108814,0.328791854 137.108814,0.986375561 L137.108814,8.71298412 C137.108814,9.37056783 137.437605,9.69935968 138.095189,9.69935968 L140.88992,9.69935968 L140.88992,108.501312 C140.88992,109.158895 141.218712,109.487687 141.876296,109.487687 Z" id="Path"></path>
                    <path d="M84.4464482,133.487687 L94.8033916,133.487687 C95.4609753,133.487687 95.7897671,133.158895 95.7897671,132.501312 L95.7897671,33.6993597 L100.064061,33.6993597 L100.064061,132.501312 C100.064061,133.158895 100.392853,133.487687 101.050437,133.487687 L108.777045,133.487687 C109.434629,133.487687 109.763421,133.158895 109.763421,132.501312 L109.763421,29.9182534 C109.763421,25.9727511 107.79067,24 103.845168,24 L84.4464482,24 C83.7888645,24 83.4600726,24.3287919 83.4600726,24.9863756 L83.4600726,32.7129841 C83.4600726,33.3705678 83.7888645,33.6993597 84.4464482,33.6993597 L90.5290975,33.6993597 L86.9123871,38.6312375 C86.4191993,39.1244253 86.2548034,39.782009 86.2548034,40.4395927 L86.2548034,123.788328 L84.4464482,123.788328 C83.7888645,123.788328 83.4600726,124.117119 83.4600726,124.774703 L83.4600726,132.501312 C83.4600726,133.158895 83.7888645,133.487687 84.4464482,133.487687 Z" id="Path"></path>
                    <path d="M41.4834424,109.487687 L50.1964265,109.487687 C54.1419288,109.487687 56.1146799,107.514936 56.1146799,103.569434 L56.1146799,5.91825336 C56.1146799,1.97275112 54.1419288,2.27373675e-13 50.1964265,2.27373675e-13 L43.1274017,2.27373675e-13 C42.469818,2.27373675e-13 42.1410261,0.328791854 42.1410261,0.986375561 L42.1410261,8.71298412 C42.1410261,9.37056783 42.469818,9.69935968 43.1274017,9.69935968 L46.4153202,9.69935968 L46.4153202,99.7883276 L41.4834424,99.7883276 C40.8258587,99.7883276 40.4970669,100.117119 40.4970669,100.774703 L40.4970669,108.501312 C40.4970669,109.158895 40.8258587,109.487687 41.4834424,109.487687 Z" id="Path"></path>
                    <path d="M4.76748188,124.487687 L12.1652986,124.487687 C12.8228823,124.487687 13.1516741,124.158895 13.1516741,123.501312 L13.1516741,20.9182534 C13.1516741,16.9727511 11.178923,15 7.23342078,15 L0.986375561,15 C0.328791854,15 0,15.3287919 0,15.9863756 L0,23.7129841 C0,24.3705678 0.328791854,24.6993597 0.986375561,24.6993597 L3.78110632,24.6993597 L3.78110632,123.501312 C3.78110632,124.158895 4.10989817,124.487687 4.76748188,124.487687 Z" id="Path"></path>
                </g>
            </g>
        </g>
    </g>
</svg>